{"glyphs":{"0":{"ha":794,"x_min":70,"x_max":724,"o":"m 724 497 q 648 121 724 255 q 396 -14 572 -14 q 150 120 231 -14 q 70 497 70 254 q 102 770 70 656 q 206 946 134 884 q 396 1007 278 1007 q 644 872 564 1007 q 724 497 724 737 m 183 497 q 232 186 183 289 q 396 83 281 83 q 561 185 511 83 q 610 497 610 288 q 562 806 610 702 q 396 910 513 910 q 231 806 279 910 q 183 497 183 701 z "},"1":{"ha":794,"x_min":125,"x_max":488,"o":"m 488 0 l 378 0 l 378 703 q 379 799 378 762 q 382 873 380 836 q 343 837 361 852 q 298 799 325 821 l 184 708 l 125 785 l 394 991 l 488 991 l 488 0 z "},"2":{"ha":794,"x_min":68,"x_max":718,"o":"m 718 0 l 68 0 l 68 94 l 334 363 q 458 496 408 438 q 535 611 509 555 q 562 736 562 668 q 512 864 562 820 q 380 909 462 909 q 254 884 309 909 q 142 815 199 860 l 81 891 q 215 973 140 941 q 380 1006 290 1006 q 597 935 517 1006 q 677 743 677 864 q 646 596 677 664 q 559 463 615 529 q 427 323 503 397 l 212 108 l 212 103 l 718 103 l 718 0 z "},"3":{"ha":794,"x_min":62,"x_max":712,"o":"m 682 760 q 625 601 682 661 q 475 522 568 541 l 475 517 q 653 441 593 502 q 712 281 712 380 q 621 69 712 151 q 336 -14 530 -14 q 190 -1 257 -14 q 62 41 123 12 l 62 146 q 197 99 124 116 q 337 81 269 81 q 533 135 473 81 q 593 283 593 189 q 519 421 593 379 q 313 464 444 464 l 214 464 l 214 560 l 313 560 q 500 612 434 560 q 566 753 566 665 q 515 869 566 828 q 379 910 465 910 q 240 887 299 910 q 125 825 182 863 l 68 903 q 201 975 123 945 q 378 1006 279 1006 q 606 937 530 1006 q 682 760 682 867 z "},"4":{"ha":794,"x_min":30,"x_max":768,"o":"m 768 230 l 619 230 l 619 0 l 509 0 l 509 230 l 30 230 l 30 325 l 502 997 l 619 997 l 619 332 l 768 332 l 768 230 m 509 332 l 509 656 q 512 780 509 730 q 516 876 515 829 l 511 876 q 481 819 498 849 q 448 765 465 789 l 142 332 l 509 332 z "},"5":{"ha":794,"x_min":90,"x_max":714,"o":"m 382 606 q 624 530 534 606 q 714 315 714 454 q 616 74 714 161 q 345 -14 518 -14 q 201 0 268 -14 q 90 41 135 14 l 90 148 q 210 100 139 118 q 347 83 280 83 q 529 137 460 83 q 598 304 598 192 q 537 457 598 403 q 346 511 477 511 q 254 504 304 511 q 171 489 203 497 l 114 526 l 152 991 l 645 991 l 645 888 l 248 888 l 223 589 q 290 601 249 595 q 382 606 330 606 z "},"6":{"ha":794,"x_min":79,"x_max":727,"o":"m 79 424 q 99 640 79 536 q 169 827 119 745 q 306 958 218 909 q 528 1006 394 1006 q 594 1003 559 1006 q 652 993 629 1000 l 652 896 q 595 909 627 905 q 530 913 563 913 q 332 858 404 913 q 228 709 260 803 q 191 498 196 615 l 199 498 q 288 584 230 548 q 439 619 347 619 q 648 541 570 619 q 727 319 727 462 q 643 76 727 165 q 414 -14 559 -14 q 241 36 317 -14 q 122 182 165 85 q 79 424 79 279 m 412 81 q 560 140 505 81 q 616 319 616 199 q 566 473 616 416 q 417 530 517 530 q 299 502 349 530 q 221 431 249 474 q 193 345 193 389 q 217 224 193 285 q 289 122 241 163 q 412 81 338 81 z "},"7":{"ha":794,"x_min":63,"x_max":724,"o":"m 197 0 l 604 888 l 63 888 l 63 991 l 724 991 l 724 905 l 320 0 l 197 0 z "},"8":{"ha":794,"x_min":70,"x_max":722,"o":"m 396 1006 q 608 945 526 1006 q 690 770 690 884 q 634 623 690 680 q 496 526 577 566 q 611 460 560 496 q 692 374 663 423 q 722 256 722 324 q 633 59 722 132 q 399 -14 545 -14 q 156 57 241 -14 q 70 252 70 127 q 99 371 70 320 q 176 458 128 421 q 281 519 224 494 q 154 619 207 560 q 102 770 102 677 q 140 898 102 846 q 245 978 178 951 q 396 1006 312 1006 m 395 913 q 264 875 315 913 q 213 765 213 837 q 238 678 213 713 q 305 617 262 642 q 401 570 348 591 q 528 646 477 602 q 578 766 578 690 q 528 876 578 838 q 395 913 477 913 m 180 251 q 234 126 180 175 q 396 77 288 77 q 555 126 499 77 q 612 255 612 175 q 555 378 612 329 q 401 464 498 427 l 376 473 q 232 382 283 433 q 180 251 180 330 z "},"9":{"ha":794,"x_min":70,"x_max":720,"o":"m 720 569 q 699 352 720 456 q 629 165 679 248 q 491 34 578 82 q 268 -14 403 -14 q 201 -11 239 -14 q 140 0 164 -7 l 140 98 q 199 84 165 89 q 266 79 233 79 q 465 133 393 79 q 570 282 538 188 q 606 493 602 376 l 597 493 q 508 408 567 444 q 355 372 449 372 q 148 451 227 372 q 70 672 70 529 q 109 849 70 774 q 218 965 148 924 q 385 1006 289 1006 q 558 956 482 1006 q 676 810 633 907 q 720 569 720 713 m 385 910 q 238 851 294 910 q 182 673 182 792 q 231 518 182 575 q 379 461 279 461 q 499 489 448 461 q 577 559 549 517 q 604 647 604 602 q 581 767 604 707 q 509 869 557 828 q 385 910 460 910 z "},"\u0000":{"ha":0,"x_min":0,"x_max":0,"o":""},"\r":{"ha":361,"x_min":0,"x_max":0,"o":""}," ":{"ha":361,"x_min":0,"x_max":0,"o":""},"!":{"ha":367,"x_min":102,"x_max":263,"o":"m 220 275 l 146 275 l 115 991 l 252 991 l 220 275 m 102 71 q 125 138 102 118 q 182 158 148 158 q 240 138 216 158 q 263 71 263 118 q 240 2 263 24 q 182 -19 216 -19 q 125 2 148 -19 q 102 71 102 24 z "},"\"":{"ha":553,"x_min":92,"x_max":462,"o":"m 214 991 l 188 633 l 117 633 l 92 991 l 214 991 m 462 991 l 437 633 l 366 633 l 340 991 l 462 991 z "},"#":{"ha":897,"x_min":35,"x_max":861,"o":"m 665 610 l 621 379 l 812 379 l 812 293 l 604 293 l 546 0 l 454 0 l 512 293 l 305 293 l 250 0 l 159 0 l 213 293 l 35 293 l 35 379 l 230 379 l 275 610 l 87 610 l 87 694 l 291 694 l 347 991 l 440 991 l 384 694 l 592 694 l 648 991 l 738 991 l 682 694 l 861 694 l 861 610 l 665 610 m 321 379 l 528 379 l 573 610 l 366 610 l 321 379 z "},"$":{"ha":794,"x_min":86,"x_max":710,"o":"m 351 -81 l 351 62 q 202 75 273 63 q 87 107 132 87 l 87 217 q 207 179 134 195 q 351 161 280 163 l 351 460 q 152 553 217 497 q 86 709 86 609 q 158 871 86 812 q 351 937 231 930 l 351 1054 l 434 1054 l 434 938 q 566 922 507 936 q 677 886 626 908 l 642 792 q 542 823 595 810 q 434 841 488 836 l 434 545 q 586 488 525 518 q 679 414 648 458 q 710 300 710 370 q 637 141 710 201 q 434 67 565 80 l 434 -81 l 351 -81 m 351 573 l 351 838 q 236 802 275 833 q 197 719 197 770 q 232 627 197 659 q 351 573 267 595 m 434 168 q 600 293 600 184 q 563 378 600 349 q 434 432 526 407 l 434 168 z "},"%":{"ha":1148,"x_min":69,"x_max":1079,"o":"m 271 1006 q 425 925 372 1006 q 477 696 477 844 q 427 466 477 548 q 271 383 376 383 q 121 466 173 383 q 69 696 69 548 q 119 925 69 844 q 271 1006 168 1006 m 899 991 l 349 0 l 250 0 l 800 991 l 899 991 m 271 925 q 164 696 164 925 q 271 465 164 465 q 383 696 383 465 q 271 925 383 925 m 872 608 q 1026 527 973 608 q 1079 298 1079 446 q 1028 69 1079 151 q 872 -14 977 -14 q 722 69 774 -14 q 671 298 671 151 q 720 527 671 446 q 872 608 769 608 m 872 527 q 766 298 766 527 q 872 68 766 68 q 985 298 985 68 q 872 527 985 527 z "},"&":{"ha":1012,"x_min":75,"x_max":1004,"o":"m 422 1007 q 596 951 532 1007 q 660 794 660 895 q 603 645 660 706 q 457 534 545 584 l 732 267 q 793 367 770 310 q 833 492 817 425 l 947 492 q 891 327 926 402 q 806 195 857 252 l 1004 0 l 852 0 l 729 120 q 583 23 663 60 q 387 -14 503 -14 q 160 56 244 -14 q 75 257 75 126 q 102 380 75 329 q 177 472 128 432 q 294 550 226 512 q 208 659 246 602 q 170 791 170 715 q 238 950 170 892 q 422 1007 306 1007 m 418 914 q 318 882 357 914 q 280 792 280 850 q 308 697 280 741 q 387 601 336 654 q 510 691 472 648 q 549 794 549 735 q 513 881 549 848 q 418 914 477 914 m 361 479 q 238 387 282 433 q 193 261 193 340 q 247 134 193 182 q 390 86 300 86 q 547 117 482 86 q 657 191 612 147 l 361 479 z "},"'":{"ha":304,"x_min":92,"x_max":214,"o":"m 214 991 l 188 633 l 117 633 l 92 991 l 214 991 z "},"(":{"ha":410,"x_min":56,"x_max":368,"o":"m 56 380 q 105 709 56 552 q 260 991 155 867 l 368 991 q 220 705 269 863 q 170 382 170 548 q 220 64 170 219 q 366 -220 269 -90 l 260 -220 q 105 56 155 -98 q 56 380 56 211 z "},")":{"ha":410,"x_min":42,"x_max":354,"o":"m 354 382 q 304 57 354 212 q 150 -220 254 -98 l 43 -220 q 191 65 141 -90 q 240 382 240 220 q 190 705 240 549 q 42 991 140 862 l 150 991 q 304 710 254 867 q 354 382 354 553 z "},"*":{"ha":765,"x_min":60,"x_max":701,"o":"m 441 1055 l 416 786 l 684 864 l 701 745 l 445 719 l 610 498 l 500 438 l 378 680 l 265 438 l 151 498 l 315 719 l 60 745 l 79 864 l 343 786 l 317 1055 l 441 1055 z "},"+":{"ha":794,"x_min":70,"x_max":722,"o":"m 442 536 l 722 536 l 722 444 l 442 444 l 442 156 l 349 156 l 349 444 l 70 444 l 70 536 l 349 536 l 349 825 l 442 825 l 442 536 z "},",":{"ha":359,"x_min":56,"x_max":256,"o":"m 248 161 l 256 146 q 206 -16 238 72 q 140 -179 174 -104 l 56 -179 q 97 -5 78 -98 q 127 161 116 87 l 248 161 z "},"-":{"ha":447,"x_min":56,"x_max":392,"o":"m 56 323 l 56 423 l 392 423 l 392 323 l 56 323 z "},".":{"ha":365,"x_min":102,"x_max":263,"o":"m 102 71 q 125 138 102 118 q 181 158 148 158 q 239 138 216 158 q 263 71 263 118 q 239 2 263 24 q 181 -19 216 -19 q 125 2 148 -19 q 102 71 102 24 z "},"/":{"ha":509,"x_min":14,"x_max":494,"o":"m 494 991 l 125 0 l 14 0 l 384 991 l 494 991 z "},":":{"ha":365,"x_min":102,"x_max":263,"o":"m 102 672 q 125 741 102 721 q 181 761 148 761 q 239 741 216 761 q 263 672 263 721 q 239 605 263 626 q 181 584 216 584 q 125 605 148 584 q 102 672 102 626 m 102 71 q 125 138 102 118 q 181 158 148 158 q 239 138 216 158 q 263 71 263 118 q 239 2 263 24 q 181 -19 216 -19 q 125 2 148 -19 q 102 71 102 24 z "},";":{"ha":365,"x_min":44,"x_max":260,"o":"m 99 672 q 122 741 99 721 q 178 761 145 761 q 237 741 214 761 q 260 672 260 721 q 237 605 260 626 q 178 584 214 584 q 122 605 145 584 q 99 672 99 626 m 236 161 l 245 146 q 195 -16 227 73 q 130 -179 162 -105 l 44 -179 q 85 -5 65 -98 q 116 161 105 87 l 236 161 z "},"<":{"ha":794,"x_min":70,"x_max":722,"o":"m 722 165 l 70 454 l 70 518 l 722 841 l 722 741 l 192 490 l 722 264 l 722 165 z "},"=":{"ha":794,"x_min":78,"x_max":714,"o":"m 78 582 l 78 673 l 714 673 l 714 582 l 78 582 m 78 304 l 78 396 l 714 396 l 714 304 l 78 304 z "},">":{"ha":794,"x_min":70,"x_max":722,"o":"m 70 264 l 601 489 l 70 741 l 70 841 l 722 518 l 722 454 l 70 165 l 70 264 z "},"?":{"ha":600,"x_min":21,"x_max":562,"o":"m 195 275 l 195 311 q 205 404 195 365 q 241 477 216 443 q 312 549 267 511 q 396 624 365 593 q 440 686 427 654 q 454 761 454 717 q 408 869 454 831 q 280 907 363 907 q 161 890 213 907 q 60 849 109 873 l 21 940 q 142 987 77 969 q 287 1006 207 1006 q 490 941 418 1006 q 562 763 562 876 q 541 655 562 700 q 484 574 521 611 q 395 496 446 537 q 327 429 351 458 q 294 370 303 400 q 286 298 286 340 l 286 275 l 195 275 m 165 71 q 188 138 165 118 q 245 158 210 158 q 302 138 279 158 q 326 71 326 118 q 302 2 326 24 q 245 -19 279 -19 q 188 2 210 -19 q 165 71 165 24 z "},"@":{"ha":1245,"x_min":80,"x_max":1166,"o":"m 1166 495 q 1140 330 1166 409 q 1061 201 1114 252 q 928 151 1008 151 q 827 188 865 151 q 783 275 790 224 l 777 275 q 701 186 751 221 q 578 151 651 151 q 415 221 473 151 q 358 408 358 292 q 394 569 358 499 q 497 680 431 640 q 653 720 563 720 q 770 710 713 720 q 861 688 827 700 l 848 414 q 846 376 847 389 q 846 355 846 363 q 872 257 846 282 q 935 231 898 231 q 1011 267 981 231 q 1059 362 1042 302 q 1075 496 1075 422 q 1023 717 1075 625 q 879 857 970 808 q 667 905 787 905 q 399 840 509 905 q 231 659 288 774 q 173 393 173 544 q 283 73 173 185 q 599 -40 393 -40 q 758 -22 682 -40 q 895 20 835 -3 l 895 -68 q 762 -110 836 -94 q 599 -125 688 -125 q 319 -64 435 -125 q 142 113 203 -3 q 80 389 80 228 q 151 700 80 564 q 354 913 222 836 q 667 990 486 990 q 925 930 813 990 q 1102 759 1038 870 q 1166 495 1166 648 m 459 406 q 495 273 459 315 q 595 231 531 231 q 710 290 673 231 q 753 446 747 349 l 761 623 q 713 634 741 629 q 654 638 685 638 q 542 605 585 638 q 479 519 498 572 q 459 406 459 466 z "},"A":{"ha":878,"x_min":0,"x_max":877,"o":"m 758 0 l 635 315 l 238 315 l 117 0 l 0 0 l 388 996 l 492 996 l 877 0 l 758 0 m 601 417 l 485 730 q 472 770 481 742 q 453 827 463 798 q 437 876 444 857 q 415 794 427 834 q 395 730 403 754 l 277 417 l 601 417 z "},"B":{"ha":897,"x_min":136,"x_max":822,"o":"m 136 991 l 416 991 q 696 936 602 991 q 789 747 789 880 q 741 602 789 660 q 600 526 692 543 l 600 519 q 759 450 696 504 q 822 282 822 395 q 728 73 822 145 q 477 0 635 0 l 136 0 l 136 991 m 251 566 l 441 566 q 620 609 570 566 q 670 734 670 652 q 611 856 670 819 q 422 893 551 893 l 251 893 l 251 566 m 251 469 l 251 98 l 457 98 q 644 150 589 98 q 699 290 699 202 q 642 422 699 374 q 447 469 585 469 l 251 469 z "},"C":{"ha":875,"x_min":85,"x_max":832,"o":"m 559 904 q 371 854 450 904 q 249 713 292 805 q 206 496 206 622 q 294 198 206 309 q 556 87 381 87 q 681 99 623 87 q 795 127 740 110 l 795 26 q 682 -4 741 6 q 540 -14 622 -14 q 287 49 389 -14 q 135 227 186 112 q 85 497 85 341 q 140 762 85 647 q 302 941 196 876 q 561 1006 408 1006 q 832 948 715 1006 l 786 850 q 682 888 739 872 q 559 904 625 904 z "},"D":{"ha":1008,"x_min":136,"x_max":923,"o":"m 923 505 q 787 127 923 254 q 405 0 652 0 l 136 0 l 136 991 l 435 991 q 792 868 661 991 q 923 505 923 744 m 802 501 q 703 798 802 702 q 417 893 604 893 l 251 893 l 251 99 l 391 99 q 802 501 802 99 z "},"E":{"ha":772,"x_min":136,"x_max":688,"o":"m 688 0 l 136 0 l 136 991 l 688 991 l 688 890 l 251 890 l 251 569 l 663 569 l 663 469 l 251 469 l 251 102 l 688 102 l 688 0 z "},"F":{"ha":717,"x_min":136,"x_max":688,"o":"m 251 0 l 136 0 l 136 991 l 688 991 l 688 890 l 251 890 l 251 526 l 661 526 l 661 425 l 251 425 l 251 0 z "},"G":{"ha":1010,"x_min":85,"x_max":906,"o":"m 559 519 l 906 519 l 906 39 q 746 -1 828 12 q 562 -14 663 -14 q 301 48 407 -14 q 140 224 195 110 q 85 496 85 338 q 145 764 85 650 q 321 942 206 879 q 597 1006 436 1006 q 754 990 680 1006 q 892 947 829 975 l 848 847 q 727 888 793 871 q 591 905 661 905 q 383 854 469 905 q 251 713 296 804 q 205 496 205 621 q 245 280 205 372 q 370 137 285 188 q 588 86 454 86 q 703 94 655 86 q 791 113 751 102 l 791 416 l 559 416 l 559 519 z "},"H":{"ha":1024,"x_min":136,"x_max":887,"o":"m 887 0 l 772 0 l 772 467 l 251 467 l 251 0 l 136 0 l 136 991 l 251 991 l 251 569 l 772 569 l 772 991 l 887 991 l 887 0 z "},"I":{"ha":388,"x_min":136,"x_max":251,"o":"m 136 0 l 136 991 l 251 991 l 251 0 l 136 0 z "},"J":{"ha":373,"x_min":-111,"x_max":245,"o":"m -7 -261 q -67 -256 -41 -261 q -111 -243 -93 -252 l -111 -145 q -64 -156 -90 -152 q -10 -159 -39 -159 q 88 -124 47 -159 q 130 5 130 -89 l 130 991 l 245 991 l 245 14 q 177 -193 245 -125 q -7 -261 109 -261 z "},"K":{"ha":850,"x_min":136,"x_max":850,"o":"m 850 0 l 714 0 l 357 482 l 251 387 l 251 0 l 136 0 l 136 991 l 251 991 l 251 497 q 330 585 290 541 q 411 673 371 629 l 701 991 l 836 991 l 441 562 l 850 0 z "},"L":{"ha":725,"x_min":136,"x_max":691,"o":"m 136 0 l 136 991 l 251 991 l 251 103 l 691 103 l 691 0 l 136 0 z "},"M":{"ha":1249,"x_min":136,"x_max":1114,"o":"m 572 0 l 239 878 l 233 878 q 240 768 237 836 q 243 627 243 700 l 243 0 l 136 0 l 136 991 l 307 991 l 621 167 l 625 167 l 944 991 l 1114 991 l 1114 0 l 1000 0 l 1000 635 q 1003 767 1000 701 q 1008 876 1006 833 l 1003 876 l 666 0 l 572 0 z "},"N":{"ha":1046,"x_min":136,"x_max":911,"o":"m 911 0 l 778 0 l 237 833 l 232 833 q 239 713 235 783 q 243 570 243 644 l 243 0 l 136 0 l 136 991 l 268 991 l 806 161 l 811 161 q 808 229 810 185 q 804 323 806 273 q 802 417 802 374 l 802 991 l 911 991 l 911 0 z "},"O":{"ha":1080,"x_min":85,"x_max":996,"o":"m 996 497 q 944 229 996 344 q 791 51 892 115 q 541 -14 690 -14 q 286 51 387 -14 q 135 230 184 115 q 85 498 85 345 q 135 765 85 650 q 287 943 185 880 q 543 1007 389 1007 q 791 944 690 1007 q 944 767 892 881 q 996 497 996 652 m 206 497 q 288 197 206 308 q 541 86 370 86 q 794 197 713 86 q 874 497 874 307 q 794 797 874 689 q 543 905 713 905 q 288 796 370 905 q 206 497 206 687 z "},"P":{"ha":836,"x_min":136,"x_max":764,"o":"m 395 991 q 675 917 587 991 q 764 702 764 842 q 726 547 764 618 q 602 433 688 475 q 372 390 516 390 l 251 390 l 251 0 l 136 0 l 136 991 l 395 991 m 384 893 l 251 893 l 251 489 l 359 489 q 573 536 501 489 q 644 697 644 583 q 581 845 644 796 q 384 893 518 893 z "},"Q":{"ha":1080,"x_min":85,"x_max":996,"o":"m 996 497 q 921 184 996 313 q 701 9 846 55 l 934 -236 l 769 -236 l 577 -12 q 559 -13 568 -12 q 541 -14 550 -14 q 286 51 387 -14 q 135 230 184 115 q 85 498 85 345 q 135 765 85 650 q 287 943 185 880 q 543 1007 389 1007 q 791 944 690 1007 q 944 767 892 881 q 996 497 996 652 m 206 497 q 288 197 206 308 q 541 86 370 86 q 794 197 713 86 q 874 497 874 307 q 794 797 874 689 q 543 905 713 905 q 288 796 370 905 q 206 497 206 687 z "},"R":{"ha":857,"x_min":136,"x_max":834,"o":"m 404 991 q 675 923 587 991 q 764 712 764 855 q 735 581 764 633 q 661 496 707 528 q 562 446 614 463 l 834 0 l 700 0 l 457 414 l 251 414 l 251 0 l 136 0 l 136 991 l 404 991 m 397 892 l 251 892 l 251 511 l 408 511 q 587 561 530 511 q 644 707 644 610 q 584 850 644 808 q 397 892 523 892 z "},"S":{"ha":762,"x_min":71,"x_max":695,"o":"m 695 264 q 599 59 695 131 q 344 -14 503 -14 q 189 -1 259 -14 q 71 33 119 11 l 71 143 q 195 104 122 122 q 349 86 269 86 q 520 131 460 86 q 580 254 580 175 q 557 339 580 305 q 483 402 535 374 q 342 462 431 430 q 150 572 216 507 q 84 753 84 637 q 124 889 84 832 q 236 976 165 945 q 401 1006 308 1006 q 548 991 480 1006 q 671 951 615 976 l 635 852 q 522 889 582 874 q 398 904 462 904 q 252 863 303 904 q 201 752 201 822 q 223 665 201 700 q 293 604 245 631 q 422 548 342 577 q 570 480 509 516 q 663 394 631 445 q 695 264 695 342 z "},"T":{"ha":765,"x_min":12,"x_max":751,"o":"m 440 0 l 324 0 l 324 890 l 12 890 l 12 991 l 751 991 l 751 890 l 440 890 l 440 0 z "},"U":{"ha":1013,"x_min":125,"x_max":886,"o":"m 886 991 l 886 350 q 843 163 886 245 q 715 34 801 81 q 501 -14 630 -14 q 221 86 317 -14 q 125 353 125 186 l 125 991 l 241 991 l 241 349 q 308 155 241 223 q 508 86 375 86 q 707 159 644 86 q 771 349 771 231 l 771 991 l 886 991 z "},"V":{"ha":828,"x_min":0,"x_max":828,"o":"m 828 991 l 472 0 l 356 0 l 0 991 l 121 991 l 353 338 q 414 130 394 221 q 439 229 423 176 q 475 340 454 281 l 706 991 l 828 991 z "},"W":{"ha":1282,"x_min":20,"x_max":1262,"o":"m 1262 991 l 997 0 l 881 0 l 684 667 q 653 780 667 724 q 635 856 639 835 q 621 781 633 835 q 591 667 608 726 l 399 0 l 283 0 l 20 991 l 140 991 l 300 370 q 347 141 332 246 q 368 255 355 194 q 399 376 382 316 l 577 991 l 696 991 l 882 372 q 914 248 901 308 q 935 141 927 188 q 953 249 941 191 q 982 370 965 307 l 1141 991 l 1262 991 z "},"X":{"ha":802,"x_min":4,"x_max":798,"o":"m 798 0 l 667 0 l 399 437 l 127 0 l 4 0 l 334 517 l 27 991 l 155 991 l 403 596 l 652 991 l 774 991 l 467 519 l 798 0 z "},"Y":{"ha":777,"x_min":0,"x_max":777,"o":"m 389 494 l 652 991 l 777 991 l 446 385 l 446 0 l 331 0 l 331 379 l 0 991 l 126 991 l 389 494 z "},"Z":{"ha":795,"x_min":53,"x_max":741,"o":"m 741 0 l 53 0 l 53 87 l 587 888 l 71 888 l 71 991 l 727 991 l 727 905 l 193 103 l 741 103 l 741 0 z "},"[":{"ha":454,"x_min":113,"x_max":420,"o":"m 420 -220 l 113 -220 l 113 991 l 420 991 l 420 899 l 222 899 l 222 -126 l 420 -126 l 420 -220 z "},"\\":{"ha":509,"x_min":14,"x_max":496,"o":"m 125 991 l 496 0 l 384 0 l 14 991 l 125 991 z "},"]":{"ha":454,"x_min":35,"x_max":342,"o":"m 35 -126 l 232 -126 l 232 899 l 35 899 l 35 991 l 342 991 l 342 -220 l 35 -220 l 35 -126 z "},"^":{"ha":794,"x_min":54,"x_max":741,"o":"m 54 372 l 352 999 l 417 999 l 741 372 l 640 372 l 386 878 l 155 372 l 54 372 z "},"_":{"ha":608,"x_min":-3,"x_max":611,"o":"m 611 -208 l -3 -208 l -3 -125 l 611 -125 l 611 -208 z "},"`":{"ha":385,"x_min":56,"x_max":330,"o":"m 190 1064 q 230 995 206 1033 q 281 920 254 956 q 330 858 308 884 l 330 842 l 254 842 q 182 907 222 867 q 107 985 142 946 q 56 1050 73 1025 l 56 1064 l 190 1064 z "},"a":{"ha":772,"x_min":64,"x_max":659,"o":"m 397 755 q 594 696 530 755 q 659 505 659 636 l 659 0 l 576 0 l 555 110 l 549 110 q 448 17 503 48 q 297 -14 393 -14 q 130 40 195 -14 q 64 204 64 94 q 152 375 64 315 q 420 440 240 435 l 549 446 l 549 491 q 507 626 549 587 q 391 665 466 665 q 279 648 332 665 q 179 608 227 631 l 144 693 q 260 737 195 719 q 397 755 325 755 m 547 366 l 434 361 q 238 316 295 356 q 181 203 181 276 q 220 109 181 139 q 322 78 258 78 q 484 133 421 78 q 547 298 547 188 l 547 366 z "},"b":{"ha":850,"x_min":119,"x_max":772,"o":"m 231 1055 l 231 791 q 229 703 231 746 q 225 637 227 661 l 231 637 q 319 722 262 687 q 467 756 377 756 q 689 660 606 756 q 772 372 772 563 q 689 85 772 184 q 464 -14 606 -14 q 319 19 376 -14 q 232 100 262 52 l 223 100 l 200 0 l 119 0 l 119 1055 l 231 1055 m 448 662 q 279 591 328 662 q 231 375 231 520 l 231 369 q 278 154 231 229 q 448 80 325 80 q 604 156 552 80 q 656 373 656 232 q 448 662 656 662 z "},"c":{"ha":665,"x_min":77,"x_max":620,"o":"m 416 -14 q 239 28 316 -14 q 120 154 163 69 q 77 368 77 239 q 122 588 77 503 q 247 715 168 674 q 427 757 326 757 q 535 746 483 757 q 620 718 587 734 l 586 623 q 508 648 552 637 q 425 659 463 659 q 251 584 309 659 q 194 369 194 510 q 250 159 194 234 q 416 84 305 84 q 522 97 475 84 q 608 126 570 109 l 608 26 q 525 -3 571 7 q 416 -14 479 -14 z "},"d":{"ha":850,"x_min":77,"x_max":730,"o":"m 383 -14 q 160 83 242 -14 q 77 369 77 179 q 161 659 77 561 q 385 757 245 757 q 529 723 473 757 q 618 640 585 690 l 626 640 q 621 698 623 661 q 618 758 618 734 l 618 1055 l 730 1055 l 730 0 l 640 0 l 623 106 l 618 106 q 530 21 586 56 q 383 -14 473 -14 m 401 80 q 570 148 520 80 q 619 349 619 216 l 619 370 q 572 587 619 511 q 401 663 525 663 q 245 584 297 663 q 194 366 194 504 q 245 155 194 229 q 401 80 296 80 z "},"e":{"ha":780,"x_min":77,"x_max":707,"o":"m 405 757 q 568 715 500 757 q 671 597 635 673 q 707 420 707 522 l 707 351 l 194 351 q 259 151 196 220 q 437 83 322 83 q 562 96 507 83 q 674 134 616 109 l 674 35 q 563 -2 618 9 q 432 -14 507 -14 q 174 84 271 -14 q 77 366 77 182 q 118 574 77 486 q 232 709 158 662 q 405 757 305 757 m 404 665 q 260 606 313 665 q 196 441 206 547 l 589 441 q 544 603 589 541 q 404 665 498 665 z "},"f":{"ha":467,"x_min":20,"x_max":530,"o":"m 450 655 l 264 655 l 264 0 l 152 0 l 152 655 l 20 655 l 20 709 l 152 747 l 152 796 q 214 1000 152 937 q 389 1063 275 1063 q 468 1055 432 1063 q 530 1038 503 1048 l 501 949 q 449 963 478 957 q 391 970 420 970 q 295 928 326 970 q 264 798 264 886 l 264 743 l 450 743 l 450 655 z "},"g":{"ha":754,"x_min":21,"x_max":726,"o":"m 326 -334 q 100 -279 180 -334 q 21 -126 21 -224 q 65 -7 21 -56 q 189 59 110 43 q 139 100 159 73 q 118 162 118 127 q 141 234 118 203 q 210 293 163 264 q 116 373 152 317 q 79 505 79 430 q 153 692 79 625 q 361 758 227 758 q 471 745 425 758 l 726 745 l 726 672 l 589 655 q 623 591 610 629 q 637 509 637 554 q 562 332 637 397 q 355 267 486 267 q 291 272 323 267 q 223 180 223 235 q 253 134 223 147 q 335 121 282 121 l 466 121 q 652 70 587 121 q 717 -79 717 19 q 616 -268 717 -202 q 326 -334 516 -334 m 359 349 q 521 508 521 349 q 357 675 521 675 q 238 632 280 675 q 197 506 197 589 q 239 389 197 430 q 359 349 281 349 m 330 -245 q 535 -204 467 -245 q 604 -90 604 -162 q 558 -4 604 -24 q 427 16 513 16 l 298 16 q 178 -19 222 16 q 134 -122 134 -54 q 184 -214 134 -182 q 330 -245 235 -245 z "},"h":{"ha":852,"x_min":119,"x_max":739,"o":"m 231 1055 l 231 740 q 225 635 231 681 l 233 635 q 329 724 267 693 q 469 755 392 755 q 670 691 602 755 q 739 484 739 626 l 739 0 l 627 0 l 627 477 q 455 662 627 662 q 281 591 330 662 q 231 389 231 521 l 231 0 l 119 0 l 119 1055 l 231 1055 z "},"i":{"ha":351,"x_min":109,"x_max":244,"o":"m 176 1021 q 224 1003 204 1021 q 244 947 244 985 q 224 892 244 910 q 176 873 204 873 q 128 892 147 873 q 109 947 109 910 q 128 1003 109 985 q 176 1021 147 1021 m 231 743 l 231 0 l 119 0 l 119 743 l 231 743 z "},"j":{"ha":351,"x_min":-76,"x_max":244,"o":"m 109 947 q 128 1003 109 985 q 176 1021 147 1021 q 224 1003 204 1021 q 244 947 244 985 q 224 892 244 910 q 176 873 204 873 q 128 892 147 873 q 109 947 109 910 m 29 -334 q -31 -329 -5 -334 q -76 -317 -57 -323 l -76 -225 q -33 -236 -55 -232 q 16 -239 -12 -239 q 90 -214 62 -239 q 119 -120 119 -188 l 119 743 l 231 743 l 231 -117 q 182 -277 231 -220 q 29 -334 133 -334 z "},"k":{"ha":730,"x_min":119,"x_max":719,"o":"m 231 1055 l 231 507 q 229 441 231 480 q 225 372 227 402 l 230 372 q 272 425 244 390 q 318 480 299 459 l 565 743 l 697 743 l 398 426 l 719 0 l 583 0 l 321 352 l 231 269 l 231 0 l 119 0 l 119 1055 l 231 1055 z "},"l":{"ha":351,"x_min":119,"x_max":232,"o":"m 232 0 l 119 0 l 119 1055 l 232 1055 l 232 0 z "},"m":{"ha":1286,"x_min":119,"x_max":1173,"o":"m 926 757 q 1111 693 1048 757 q 1173 487 1173 629 l 1173 0 l 1062 0 l 1062 481 q 907 662 1062 662 q 751 600 800 662 q 702 416 702 537 l 702 0 l 590 0 l 590 481 q 435 662 590 662 q 278 593 324 662 q 231 393 231 525 l 231 0 l 119 0 l 119 743 l 210 743 l 227 638 l 233 638 q 325 726 267 696 q 454 757 383 757 q 596 725 539 757 q 680 629 654 694 l 686 629 q 786 725 722 694 q 926 757 850 757 z "},"n":{"ha":852,"x_min":119,"x_max":739,"o":"m 471 757 q 671 692 603 757 q 739 484 739 627 l 739 0 l 627 0 l 627 477 q 455 662 627 662 q 281 592 332 662 q 231 389 231 522 l 231 0 l 119 0 l 119 743 l 210 743 l 227 636 l 233 636 q 332 726 269 695 q 471 757 395 757 z "},"o":{"ha":836,"x_min":77,"x_max":760,"o":"m 760 373 q 668 88 760 190 q 416 -14 576 -14 q 240 32 317 -14 q 120 164 163 78 q 77 373 77 251 q 169 656 77 556 q 420 757 261 757 q 598 711 522 757 q 717 580 675 666 q 760 373 760 494 m 194 373 q 248 159 194 238 q 418 80 302 80 q 589 159 534 80 q 643 373 643 239 q 589 584 643 507 q 418 662 535 662 q 248 585 302 662 q 194 373 194 509 z "},"p":{"ha":850,"x_min":119,"x_max":772,"o":"m 468 757 q 690 661 607 757 q 772 374 772 566 q 689 85 772 184 q 465 -14 605 -14 q 320 20 376 -14 q 232 102 263 54 l 224 102 q 229 38 226 75 q 232 -27 232 1 l 232 -332 l 119 -332 l 119 743 l 212 743 l 227 633 l 232 633 q 319 721 264 684 q 468 757 375 757 m 448 662 q 283 595 332 662 q 232 394 233 528 l 232 372 q 280 156 232 231 q 450 80 328 80 q 605 162 553 80 q 656 375 656 244 q 605 584 656 507 q 448 662 554 662 z "},"q":{"ha":850,"x_min":77,"x_max":730,"o":"m 617 -332 l 617 -14 q 618 47 617 13 q 623 107 620 82 l 616 107 q 527 21 585 56 q 378 -14 469 -14 q 159 83 242 -14 q 77 370 77 179 q 161 658 77 559 q 385 757 245 757 q 530 722 473 757 q 618 637 586 687 l 623 637 l 640 743 l 730 743 l 730 -332 l 617 -332 m 399 80 q 567 147 517 80 q 618 347 616 214 l 618 371 q 570 589 618 515 q 399 663 521 663 q 244 584 295 663 q 193 368 193 504 q 244 156 193 231 q 399 80 295 80 z "},"r":{"ha":568,"x_min":119,"x_max":547,"o":"m 456 757 q 547 748 505 757 l 532 644 q 450 654 492 654 q 340 622 390 654 q 261 533 291 591 q 232 399 232 476 l 232 0 l 119 0 l 119 743 l 212 743 l 224 606 l 229 606 q 320 713 263 669 q 456 757 377 757 z "},"s":{"ha":662,"x_min":70,"x_max":600,"o":"m 600 203 q 520 42 600 97 q 304 -14 441 -14 q 170 -1 227 -14 q 70 33 113 11 l 70 137 q 178 96 115 115 q 307 78 241 78 q 447 109 404 78 q 490 194 490 140 q 450 271 490 240 q 302 342 410 302 q 179 396 231 369 q 99 461 127 422 q 71 562 71 500 q 148 706 71 656 q 348 757 224 757 q 474 744 415 757 q 583 708 532 730 l 545 618 q 447 651 499 637 q 340 665 395 665 q 221 639 262 665 q 179 568 179 613 q 198 511 179 534 q 260 469 218 489 q 373 423 303 450 q 494 370 443 397 q 572 303 545 342 q 600 203 600 264 z "},"t":{"ha":495,"x_min":22,"x_max":463,"o":"m 359 79 q 416 83 387 79 q 463 95 445 88 l 463 7 q 409 -7 444 -1 q 340 -14 374 -14 q 233 7 281 -14 q 156 77 185 28 q 127 214 127 127 l 127 655 l 22 655 l 22 710 l 128 754 l 173 916 l 241 916 l 241 743 l 458 743 l 458 655 l 241 655 l 241 218 q 273 113 241 148 q 359 79 305 79 z "},"u":{"ha":852,"x_min":111,"x_max":732,"o":"m 732 743 l 732 0 l 640 0 l 624 104 l 618 104 q 519 16 583 46 q 378 -14 455 -14 q 178 51 245 -14 q 111 256 111 116 l 111 743 l 224 743 l 224 264 q 395 80 224 80 q 569 150 518 80 q 619 352 619 220 l 619 743 l 732 743 z "},"v":{"ha":694,"x_min":0,"x_max":694,"o":"m 282 0 l 0 743 l 121 743 l 284 294 q 319 192 301 248 q 343 102 336 136 l 348 102 q 375 192 356 136 q 410 294 394 248 l 573 743 l 694 743 l 411 0 l 282 0 z "},"w":{"ha":1076,"x_min":16,"x_max":1060,"o":"m 724 1 l 591 434 q 561 541 574 489 q 541 623 547 592 l 536 623 q 517 540 530 592 q 486 432 505 488 l 348 1 l 221 1 l 16 745 l 133 745 l 240 334 q 270 215 256 273 q 288 119 283 157 l 294 119 q 315 210 301 153 q 343 314 328 267 l 480 745 l 602 745 l 734 315 q 763 212 749 266 q 783 120 778 159 l 789 120 q 807 213 793 154 q 837 334 821 271 l 945 745 l 1060 745 l 854 1 l 724 1 z "},"x":{"ha":727,"x_min":26,"x_max":701,"o":"m 296 380 l 39 743 l 168 743 l 363 457 l 559 743 l 686 743 l 429 380 l 701 0 l 572 0 l 363 303 l 154 0 l 26 0 l 296 380 z "},"y":{"ha":696,"x_min":1,"x_max":696,"o":"m 1 743 l 122 743 l 286 312 q 324 204 307 254 q 349 111 340 155 l 354 111 q 381 200 363 144 q 419 313 399 255 l 574 743 l 696 743 l 372 -109 q 274 -273 334 -212 q 111 -334 215 -334 q 55 -331 79 -334 q 13 -322 31 -327 l 13 -232 q 49 -238 28 -235 q 94 -241 71 -241 q 195 -205 156 -241 q 258 -106 234 -170 l 299 -1 l 1 743 z "},"z":{"ha":651,"x_min":54,"x_max":596,"o":"m 596 0 l 54 0 l 54 75 l 462 655 l 80 655 l 80 743 l 587 743 l 587 660 l 185 87 l 596 87 l 596 0 z "},"{":{"ha":521,"x_min":39,"x_max":476,"o":"m 476 -220 q 278 -165 349 -218 q 206 -2 206 -111 l 206 205 q 164 309 206 278 q 39 340 121 340 l 39 433 q 164 465 121 435 q 206 567 206 495 l 206 776 q 281 938 206 884 q 476 991 355 991 l 476 899 q 359 866 401 897 q 317 765 317 834 l 317 561 q 171 391 317 417 l 171 383 q 282 328 247 370 q 317 214 317 285 l 317 5 q 358 -95 317 -64 q 476 -126 399 -125 l 476 -220 z "},"|":{"ha":763,"x_min":334,"x_max":428,"o":"m 334 1056 l 428 1056 l 428 -336 l 334 -336 l 334 1056 z "},"}":{"ha":521,"x_min":45,"x_max":483,"o":"m 45 -220 l 45 -126 q 162 -94 120 -125 q 203 7 203 -62 l 203 212 q 350 382 203 357 l 350 390 q 203 559 203 416 l 203 766 q 163 867 203 836 q 45 899 122 899 l 45 991 q 243 937 172 991 q 315 774 315 884 l 315 568 q 357 464 315 495 q 483 433 400 433 l 483 340 q 357 309 400 339 q 315 207 315 278 l 315 -3 q 240 -166 315 -112 q 45 -220 166 -220 z "},"~":{"ha":794,"x_min":70,"x_max":722,"o":"m 376 446 q 294 476 328 468 q 229 485 261 485 q 148 462 191 485 q 70 404 104 439 l 70 505 q 237 577 138 577 q 318 568 279 577 q 418 533 358 559 q 500 503 467 512 q 563 494 532 494 q 646 517 603 494 q 722 576 688 541 l 722 476 q 648 421 690 441 q 557 402 607 402 q 476 411 516 402 q 376 446 436 420 z "}," ":{"ha":361,"x_min":0,"x_max":0,"o":""},"¡":{"ha":367,"x_min":102,"x_max":263,"o":"m 263 668 q 240 601 263 621 q 182 581 216 581 q 125 601 149 581 q 102 668 102 621 q 125 735 102 714 q 182 757 149 757 q 240 735 216 757 q 263 668 263 714 m 144 462 l 219 462 l 250 -254 l 113 -254 l 144 462 z "},"¢":{"ha":794,"x_min":125,"x_max":671,"o":"m 488 1006 l 488 894 q 588 881 541 892 q 671 854 636 870 l 638 760 q 556 785 601 774 q 473 795 511 795 q 241 504 241 795 q 297 290 241 359 q 465 220 353 220 q 571 232 525 220 q 659 261 617 243 l 659 163 q 582 134 622 144 q 487 121 541 123 l 487 -14 l 400 -14 l 400 125 q 199 231 273 142 q 125 503 125 319 q 200 780 125 689 q 400 888 275 870 l 400 1006 l 488 1006 z "},"£":{"ha":794,"x_min":46,"x_max":741,"o":"m 465 1004 q 600 988 541 1004 q 707 949 660 972 l 667 859 q 575 894 625 878 q 468 910 524 910 q 343 867 386 910 q 300 727 300 823 l 300 532 l 583 532 l 583 446 l 300 446 l 300 296 q 271 167 300 210 q 203 103 241 125 l 741 103 l 741 0 l 46 0 l 46 96 q 148 156 109 110 q 187 294 187 201 l 187 446 l 52 446 l 52 532 l 187 532 l 187 739 q 263 935 187 865 q 465 1004 338 1004 z "},"¤":{"ha":794,"x_min":82,"x_max":710,"o":"m 124 490 q 138 573 124 533 q 175 647 152 614 l 82 743 l 144 804 l 238 713 q 397 763 307 763 q 480 750 441 763 q 553 713 519 736 l 648 804 l 710 743 l 618 648 q 655 575 641 615 q 670 490 670 534 q 618 332 670 400 l 709 238 l 648 178 l 553 269 q 397 219 484 219 q 238 270 304 219 l 144 178 l 83 239 l 175 333 q 138 407 152 366 q 124 490 124 447 m 211 490 q 236 396 211 438 q 303 329 260 353 q 397 304 345 304 q 492 329 450 304 q 560 396 535 354 q 585 490 585 439 q 560 586 585 543 q 492 654 535 629 q 397 680 450 680 q 303 654 345 680 q 236 586 260 629 q 211 490 211 543 z "},"¥":{"ha":794,"x_min":21,"x_max":770,"o":"m 396 503 l 652 991 l 770 991 l 486 469 l 665 469 l 665 385 l 451 385 l 451 267 l 665 267 l 665 184 l 451 184 l 451 0 l 341 0 l 341 184 l 127 184 l 127 267 l 341 267 l 341 385 l 127 385 l 127 469 l 303 469 l 21 991 l 141 991 l 396 503 z "},"¦":{"ha":763,"x_min":334,"x_max":428,"o":"m 334 1056 l 428 1056 l 428 529 l 334 529 l 334 1056 m 334 191 l 428 191 l 428 -336 l 334 -336 l 334 191 z "},"§":{"ha":713,"x_min":83,"x_max":618,"o":"m 95 549 q 130 660 95 617 q 210 724 164 703 q 129 788 158 750 q 100 883 100 825 q 170 1014 100 966 q 370 1062 240 1062 q 500 1049 447 1062 q 605 1015 554 1036 l 570 928 q 476 961 524 947 q 363 974 428 974 q 241 951 278 974 q 205 886 205 928 q 246 817 205 844 q 391 751 288 789 q 557 665 496 713 q 618 532 618 616 q 586 416 618 461 q 511 347 553 370 q 588 284 561 321 q 616 193 616 248 q 537 46 616 99 q 317 -6 459 -6 q 183 6 241 -6 q 83 39 126 18 l 83 137 q 193 98 129 116 q 322 80 257 80 q 468 111 427 80 q 508 184 508 142 q 493 234 508 213 q 438 276 478 255 q 325 323 399 296 q 202 378 254 350 q 123 447 151 407 q 95 549 95 488 m 192 561 q 237 472 192 507 q 391 397 283 437 l 427 384 q 491 436 463 404 q 520 515 520 468 q 473 608 520 570 q 299 685 426 646 q 224 642 257 674 q 192 561 192 609 z "},"¨":{"ha":805,"x_min":210,"x_max":593,"o":"m 210 945 q 228 995 210 979 q 271 1010 245 1010 q 316 995 298 1010 q 334 945 334 979 q 316 896 334 912 q 271 879 298 879 q 228 896 245 879 q 210 945 210 912 m 471 945 q 488 995 471 979 q 531 1010 506 1010 q 575 995 557 1010 q 593 945 593 979 q 575 896 593 912 q 531 879 557 879 q 488 896 506 879 q 471 945 471 912 z "},"©":{"ha":1156,"x_min":68,"x_max":1088,"o":"m 578 -14 q 374 24 467 -14 q 212 131 281 62 q 105 293 143 199 q 68 496 68 386 q 106 700 68 606 q 213 861 144 793 q 375 968 281 930 q 578 1006 468 1006 q 777 967 684 1006 q 939 860 869 929 q 1048 699 1009 791 q 1088 496 1088 606 q 1050 293 1088 386 q 943 131 1012 199 q 781 24 874 62 q 578 -14 688 -14 m 578 56 q 747 88 668 56 q 886 180 826 121 q 979 320 945 239 q 1013 496 1013 400 q 981 666 1013 587 q 890 806 949 745 q 752 902 832 867 q 578 936 673 936 q 353 879 452 936 q 198 723 254 822 q 142 496 142 623 q 174 325 142 405 q 264 185 205 245 q 402 90 323 124 q 578 56 482 56 m 600 186 q 393 270 463 186 q 324 496 324 355 q 357 655 324 586 q 453 765 390 725 q 605 804 515 804 q 694 793 650 804 q 777 763 738 783 l 739 684 q 606 720 668 720 q 473 660 520 720 q 425 496 425 600 q 468 329 425 387 q 604 271 511 271 q 677 279 638 271 q 751 302 716 288 l 751 220 q 683 195 718 205 q 600 186 648 186 z "},"ª":{"ha":490,"x_min":46,"x_max":422,"o":"m 244 1003 q 377 966 332 1003 q 422 848 422 928 l 422 543 l 360 543 l 345 602 q 279 553 318 572 q 189 534 241 534 q 84 568 123 534 q 46 670 46 602 q 265 815 46 806 l 341 818 l 341 850 q 312 916 341 897 q 241 935 283 935 q 169 925 204 935 q 103 899 134 915 l 74 963 q 153 992 109 981 q 244 1003 197 1003 m 341 758 l 275 755 q 160 731 191 753 q 130 670 130 709 q 151 617 130 634 q 208 601 172 601 q 310 634 278 601 q 341 724 341 668 l 341 758 z "},"«":{"ha":688,"x_min":54,"x_max":637,"o":"m 54 377 l 284 654 l 365 608 l 170 369 l 365 130 l 284 83 l 54 359 l 54 377 m 323 377 l 557 654 l 637 608 l 443 369 l 637 130 l 557 83 l 323 359 l 323 377 z "},"¬":{"ha":794,"x_min":70,"x_max":719,"o":"m 719 536 l 719 178 l 628 178 l 628 444 l 70 444 l 70 536 l 719 536 z "},"­":{"ha":447,"x_min":56,"x_max":392,"o":"m 56 323 l 56 423 l 392 423 l 392 323 l 56 323 z "},"®":{"ha":1156,"x_min":68,"x_max":1088,"o":"m 578 -14 q 374 24 467 -14 q 212 131 281 62 q 105 293 143 199 q 68 496 68 386 q 106 700 68 606 q 213 861 144 793 q 375 968 281 930 q 578 1006 468 1006 q 777 967 684 1006 q 939 860 869 929 q 1048 699 1009 791 q 1088 496 1088 606 q 1050 293 1088 386 q 943 131 1012 199 q 781 24 874 62 q 578 -14 688 -14 m 578 56 q 747 88 668 56 q 886 180 826 121 q 979 320 945 239 q 1013 496 1013 400 q 981 666 1013 587 q 890 806 949 745 q 752 902 832 867 q 578 936 673 936 q 353 879 452 936 q 198 723 254 822 q 142 496 142 623 q 174 325 142 405 q 264 185 205 245 q 402 90 323 124 q 578 56 482 56 m 390 193 l 390 798 l 567 798 q 783 620 783 798 q 750 516 783 554 q 673 460 716 477 l 833 193 l 722 193 l 582 434 l 488 434 l 488 193 l 390 193 m 488 514 l 564 514 q 652 542 620 514 q 684 617 684 570 q 654 692 684 669 q 562 715 625 715 l 488 715 l 488 514 z "},"¯":{"ha":694,"x_min":-4,"x_max":699,"o":"m 699 1055 l -4 1055 l -4 1141 l 699 1141 l 699 1055 z "},"°":{"ha":595,"x_min":79,"x_max":515,"o":"m 297 583 q 139 641 199 583 q 79 793 79 699 q 138 947 79 888 q 297 1006 197 1006 q 455 947 394 1006 q 515 793 515 888 q 455 641 515 699 q 297 583 394 583 m 298 660 q 398 697 365 660 q 431 793 431 734 q 397 893 431 856 q 298 930 363 930 q 197 893 230 930 q 163 793 163 856 q 196 697 163 734 q 298 660 229 660 z "},"±":{"ha":794,"x_min":70,"x_max":723,"o":"m 442 539 l 722 539 l 722 447 l 442 447 l 442 159 l 349 159 l 349 447 l 70 447 l 70 539 l 349 539 l 349 828 l 442 828 l 442 539 m 70 0 l 70 92 l 723 92 l 723 0 l 70 0 z "},"²":{"ha":483,"x_min":34,"x_max":425,"o":"m 425 578 l 34 578 l 34 648 l 195 806 q 280 895 250 860 q 321 957 310 929 q 332 1017 332 985 q 306 1085 332 1061 q 235 1109 279 1109 q 158 1094 193 1109 q 87 1050 123 1078 l 42 1110 q 130 1164 83 1144 q 236 1185 178 1185 q 374 1141 324 1185 q 425 1021 425 1097 q 383 898 425 952 q 262 770 341 844 l 147 659 l 425 659 l 425 578 z "},"³":{"ha":483,"x_min":25,"x_max":443,"o":"m 230 1185 q 376 1142 327 1185 q 426 1033 426 1099 q 396 940 426 976 q 323 891 366 904 l 323 887 q 411 841 378 876 q 443 749 443 805 q 385 618 443 668 q 206 568 327 568 q 111 576 155 568 q 25 606 66 585 l 25 688 q 118 654 71 666 q 207 642 165 642 q 315 671 280 642 q 350 751 350 701 q 310 826 350 803 q 196 850 269 850 l 115 850 l 115 922 l 196 922 q 299 949 267 922 q 332 1023 332 977 q 303 1088 332 1067 q 231 1110 275 1110 q 150 1096 188 1110 q 75 1057 113 1081 l 29 1118 q 119 1166 71 1148 q 230 1185 166 1185 z "},"´":{"ha":385,"x_min":56,"x_max":330,"o":"m 330 1064 l 330 1050 q 277 985 312 1025 q 203 907 243 946 q 131 842 164 867 l 56 842 l 56 858 q 103 920 77 884 q 153 995 129 956 q 194 1064 178 1033 l 330 1064 z "},"µ":{"ha":859,"x_min":119,"x_max":740,"o":"m 740 743 l 740 0 l 648 0 l 631 103 l 625 103 q 535 17 590 47 q 398 -14 480 -14 q 299 5 340 -14 q 231 54 258 23 l 225 54 q 231 -106 231 5 l 231 -334 l 119 -334 l 119 743 l 231 743 l 231 263 q 406 80 231 80 q 579 151 531 80 q 627 352 627 221 l 627 743 l 740 743 z "},"¶":{"ha":909,"x_min":83,"x_max":758,"o":"m 758 -176 l 682 -176 l 682 983 l 536 983 l 536 -176 l 460 -176 l 460 391 q 412 382 439 385 q 361 379 386 379 q 214 412 276 379 q 117 518 151 445 q 83 714 83 592 q 120 917 83 842 q 224 1023 157 991 q 382 1055 292 1055 l 758 1055 l 758 -176 z "},"·":{"ha":365,"x_min":102,"x_max":263,"o":"m 102 484 q 125 552 102 532 q 181 572 148 572 q 239 552 216 572 q 263 484 263 532 q 239 416 263 437 q 181 395 216 395 q 125 416 148 395 q 102 484 102 437 z "},"¸":{"ha":308,"x_min":19,"x_max":290,"o":"m 290 -194 q 239 -297 290 -260 q 90 -334 188 -334 q 50 -331 68 -334 q 19 -326 31 -329 l 19 -255 q 93 -262 47 -262 q 171 -247 144 -262 q 198 -197 198 -232 q 162 -142 198 -159 q 69 -119 125 -125 l 130 0 l 205 0 l 168 -76 q 254 -114 219 -86 q 290 -194 290 -141 z "},"¹":{"ha":483,"x_min":52,"x_max":326,"o":"m 326 1173 l 326 578 l 235 578 l 235 962 q 236 1029 235 998 q 239 1090 237 1060 q 208 1063 225 1077 q 170 1036 190 1048 l 96 983 l 52 1047 l 233 1173 l 326 1173 z "},"º":{"ha":519,"x_min":45,"x_max":475,"o":"m 475 770 q 417 596 475 659 q 258 534 358 534 q 105 594 164 534 q 45 770 45 655 q 103 943 45 882 q 261 1004 161 1004 q 417 943 359 1004 q 475 770 475 882 m 127 770 q 159 645 127 688 q 259 603 190 603 q 360 645 328 603 q 391 770 391 688 q 360 892 391 851 q 260 934 329 934 q 159 893 191 934 q 127 770 127 852 z "},"»":{"ha":688,"x_min":52,"x_max":635,"o":"m 635 359 l 401 83 l 323 130 l 517 370 l 323 608 l 401 654 l 635 378 l 635 359 m 363 359 l 132 83 l 52 130 l 246 370 l 52 608 l 132 654 l 363 378 l 363 359 z "},"¼":{"ha":1028,"x_min":45,"x_max":1015,"o":"m 178 0 l 774 991 l 871 991 l 275 0 l 178 0 m 228 397 l 228 781 q 229 848 228 817 q 233 909 231 880 q 201 882 218 897 q 163 854 183 868 l 90 803 l 45 867 l 226 991 l 319 991 l 319 397 l 228 397 m 832 0 l 832 139 l 559 139 l 559 205 l 834 599 l 928 599 l 928 216 l 1015 216 l 1015 139 l 928 139 l 928 0 l 832 0 m 651 216 l 832 216 l 832 357 q 833 424 832 387 q 836 494 833 461 q 807 446 828 477 q 771 391 787 414 l 651 216 z "},"½":{"ha":1067,"x_min":30,"x_max":1009,"o":"m 141 0 l 737 991 l 834 991 l 238 0 l 141 0 m 212 397 l 212 781 q 214 848 212 817 q 218 909 216 880 q 185 882 203 897 q 149 854 168 868 l 75 803 l 30 867 l 211 991 l 304 991 l 304 397 l 212 397 m 618 0 l 618 71 l 779 228 q 864 317 834 282 q 905 379 894 351 q 917 439 917 407 q 890 508 917 484 q 819 532 863 532 q 742 516 777 532 q 671 472 707 500 l 627 532 q 714 587 667 566 q 820 607 762 607 q 958 563 908 607 q 1008 444 1008 519 q 966 320 1008 374 q 846 192 924 266 l 731 81 l 1009 81 l 1009 0 l 618 0 z "},"¾":{"ha":1081,"x_min":22,"x_max":1069,"o":"m 203 387 q 109 396 153 387 q 22 425 64 405 l 22 507 q 205 461 118 461 q 313 490 278 461 q 348 571 348 519 q 307 646 348 623 q 193 669 267 669 l 113 669 l 113 741 l 193 741 q 297 769 264 741 q 330 842 330 797 q 301 908 330 886 q 229 930 272 930 q 148 915 185 930 q 73 877 111 901 l 26 937 q 116 986 68 968 q 228 1004 164 1004 q 374 961 324 1004 q 423 852 423 918 q 393 760 423 795 q 321 711 363 724 l 321 706 q 408 660 376 695 q 441 568 441 625 q 382 437 441 488 q 203 387 324 387 m 241 0 l 838 991 l 935 991 l 339 0 l 241 0 m 886 0 l 886 139 l 613 139 l 613 205 l 888 599 l 982 599 l 982 216 l 1069 216 l 1069 139 l 982 139 l 982 0 l 886 0 m 705 216 l 886 216 l 886 357 q 887 424 886 387 q 890 494 888 461 q 861 446 881 477 q 825 391 840 414 l 705 216 z "},"¿":{"ha":600,"x_min":36,"x_max":576,"o":"m 432 669 q 410 601 432 621 q 352 581 388 581 q 295 601 319 581 q 272 669 272 621 q 295 737 272 715 q 352 758 319 758 q 410 737 388 758 q 432 669 432 715 m 402 464 l 402 429 q 392 336 402 375 q 356 262 382 296 q 286 191 331 229 q 201 116 233 146 q 157 54 170 85 q 144 -22 144 22 q 190 -130 144 -92 q 317 -168 235 -168 q 437 -150 385 -168 q 537 -110 489 -133 l 576 -201 q 456 -248 521 -230 q 311 -267 391 -267 q 108 -202 180 -267 q 36 -24 36 -137 q 56 84 36 39 q 114 165 77 128 q 202 243 152 202 q 271 310 248 281 q 303 369 294 339 q 312 441 312 399 l 312 464 l 402 464 z "},"À":{"ha":878,"x_min":0,"x_max":877,"o":"m 758 0 l 635 315 l 238 315 l 117 0 l 0 0 l 388 996 l 492 996 l 877 0 l 758 0 m 601 417 l 485 730 q 472 770 481 742 q 453 827 463 798 q 437 876 444 857 q 415 794 427 834 q 395 730 403 754 l 277 417 l 601 417 m 391 1313 q 432 1243 408 1282 q 483 1169 456 1205 q 532 1107 509 1133 l 532 1090 l 455 1090 q 383 1156 423 1116 q 309 1234 343 1195 q 257 1299 274 1274 l 257 1313 l 391 1313 z "},"Á":{"ha":878,"x_min":0,"x_max":877,"o":"m 758 0 l 635 315 l 238 315 l 117 0 l 0 0 l 388 996 l 492 996 l 877 0 l 758 0 m 601 417 l 485 730 q 472 770 481 742 q 453 827 463 798 q 437 876 444 857 q 415 794 427 834 q 395 730 403 754 l 277 417 l 601 417 m 634 1313 l 634 1299 q 581 1234 616 1274 q 507 1156 547 1195 q 435 1090 468 1116 l 359 1090 l 359 1107 q 407 1169 381 1133 q 457 1243 433 1205 q 498 1313 481 1282 l 634 1313 z "},"Â":{"ha":878,"x_min":0,"x_max":877,"o":"m 758 0 l 635 315 l 238 315 l 117 0 l 0 0 l 388 996 l 492 996 l 877 0 l 758 0 m 601 417 l 485 730 q 472 770 481 742 q 453 827 463 798 q 437 876 444 857 q 415 794 427 834 q 395 730 403 754 l 277 417 l 601 417 m 496 1312 q 544 1243 513 1282 q 608 1168 574 1205 q 669 1105 642 1132 l 669 1090 l 589 1090 q 513 1149 552 1114 q 438 1221 475 1183 q 364 1149 401 1183 q 290 1090 326 1115 l 212 1090 l 212 1105 q 271 1169 238 1133 q 334 1244 304 1206 q 382 1312 364 1282 l 496 1312 z "},"Ã":{"ha":878,"x_min":0,"x_max":877,"o":"m 758 0 l 635 315 l 238 315 l 117 0 l 0 0 l 388 996 l 492 996 l 877 0 l 758 0 m 601 417 l 485 730 q 472 770 481 742 q 453 827 463 798 q 437 876 444 857 q 415 794 427 834 q 395 730 403 754 l 277 417 l 601 417 m 182 1093 q 229 1219 190 1173 q 332 1265 268 1265 q 410 1245 374 1265 q 479 1204 446 1225 q 542 1183 512 1183 q 592 1203 574 1183 q 620 1267 610 1223 l 686 1267 q 640 1140 677 1187 q 537 1093 602 1093 q 461 1114 498 1093 q 392 1155 425 1135 q 327 1175 359 1175 q 276 1155 294 1175 q 249 1093 258 1135 l 182 1093 z "},"Ä":{"ha":878,"x_min":0,"x_max":877,"o":"m 758 0 l 635 315 l 238 315 l 117 0 l 0 0 l 388 996 l 492 996 l 877 0 l 758 0 m 601 417 l 485 730 q 472 770 481 742 q 453 827 463 798 q 437 876 444 857 q 415 794 427 834 q 395 730 403 754 l 277 417 l 601 417 m 245 1194 q 263 1244 245 1228 q 307 1259 281 1259 q 351 1244 333 1259 q 369 1194 369 1228 q 351 1144 369 1161 q 307 1128 333 1128 q 263 1144 281 1128 q 245 1194 245 1161 m 506 1194 q 524 1244 506 1228 q 566 1259 541 1259 q 610 1244 592 1259 q 629 1194 629 1228 q 610 1144 629 1161 q 566 1128 592 1128 q 524 1144 541 1128 q 506 1194 506 1161 z "},"Å":{"ha":878,"x_min":0,"x_max":877,"o":"m 758 0 l 635 315 l 238 315 l 117 0 l 0 0 l 388 996 l 492 996 l 877 0 l 758 0 m 601 417 l 485 730 q 472 770 481 742 q 453 827 463 798 q 437 876 444 857 q 415 794 427 834 q 395 730 403 754 l 277 417 l 601 417 m 436 930 q 328 969 370 930 q 286 1077 286 1008 q 328 1183 286 1145 q 436 1222 370 1222 q 545 1183 500 1222 q 589 1078 589 1145 q 545 969 589 1008 q 436 930 502 930 m 436 996 q 495 1018 472 996 q 517 1077 517 1040 q 494 1136 517 1114 q 436 1158 471 1158 q 379 1136 402 1158 q 355 1077 355 1114 q 376 1018 355 1040 q 436 996 397 996 z "},"Æ":{"ha":1206,"x_min":-1,"x_max":1129,"o":"m 1129 0 l 611 0 l 611 315 l 269 315 l 118 0 l -1 0 l 465 991 l 1129 991 l 1129 890 l 726 890 l 726 569 l 1103 569 l 1103 469 l 726 469 l 726 102 l 1129 102 l 1129 0 m 313 417 l 611 417 l 611 888 l 533 888 l 313 417 z "},"Ç":{"ha":875,"x_min":85,"x_max":832,"o":"m 559 904 q 371 854 450 904 q 249 713 292 805 q 206 496 206 622 q 294 198 206 309 q 556 87 381 87 q 681 99 623 87 q 795 127 740 110 l 795 26 q 682 -4 741 6 q 540 -14 622 -14 q 287 49 389 -14 q 135 227 186 112 q 85 497 85 341 q 140 762 85 647 q 302 941 196 876 q 561 1006 408 1006 q 832 948 715 1006 l 786 850 q 682 888 739 872 q 559 904 625 904 m 652 -194 q 601 -297 652 -260 q 452 -334 550 -334 q 412 -331 431 -334 q 381 -326 393 -329 l 381 -255 q 455 -262 410 -262 q 533 -247 506 -262 q 560 -197 560 -232 q 524 -142 560 -159 q 431 -119 488 -125 l 492 0 l 567 0 l 530 -76 q 616 -114 581 -86 q 652 -194 652 -141 z "},"È":{"ha":772,"x_min":136,"x_max":688,"o":"m 688 0 l 136 0 l 136 991 l 688 991 l 688 890 l 251 890 l 251 569 l 663 569 l 663 469 l 251 469 l 251 102 l 688 102 l 688 0 m 378 1313 q 418 1243 394 1282 q 469 1169 442 1205 q 518 1107 496 1133 l 518 1090 l 441 1090 q 370 1156 410 1116 q 295 1234 330 1195 q 243 1299 260 1274 l 243 1313 l 378 1313 z "},"É":{"ha":772,"x_min":136,"x_max":688,"o":"m 688 0 l 136 0 l 136 991 l 688 991 l 688 890 l 251 890 l 251 569 l 663 569 l 663 469 l 251 469 l 251 102 l 688 102 l 688 0 m 621 1313 l 621 1299 q 568 1234 603 1274 q 494 1156 534 1195 q 422 1090 455 1116 l 347 1090 l 347 1107 q 394 1169 368 1133 q 444 1243 420 1205 q 485 1313 469 1282 l 621 1313 z "},"Ê":{"ha":772,"x_min":136,"x_max":688,"o":"m 688 0 l 136 0 l 136 991 l 688 991 l 688 890 l 251 890 l 251 569 l 663 569 l 663 469 l 251 469 l 251 102 l 688 102 l 688 0 m 483 1312 q 530 1243 500 1282 q 595 1168 561 1205 q 655 1105 629 1132 l 655 1090 l 575 1090 q 500 1149 538 1114 q 425 1221 461 1183 q 350 1149 388 1183 q 276 1090 313 1115 l 199 1090 l 199 1105 q 257 1169 224 1133 q 320 1244 290 1206 q 368 1312 351 1282 l 483 1312 z "},"Ë":{"ha":772,"x_min":136,"x_max":688,"o":"m 688 0 l 136 0 l 136 991 l 688 991 l 688 890 l 251 890 l 251 569 l 663 569 l 663 469 l 251 469 l 251 102 l 688 102 l 688 0 m 233 1194 q 250 1244 233 1228 q 294 1259 268 1259 q 338 1244 320 1259 q 356 1194 356 1228 q 338 1144 356 1161 q 294 1128 320 1128 q 250 1144 268 1128 q 233 1194 233 1161 m 493 1194 q 511 1244 493 1228 q 553 1259 528 1259 q 597 1244 579 1259 q 616 1194 616 1228 q 597 1144 616 1161 q 553 1128 579 1128 q 511 1144 528 1128 q 493 1194 493 1161 z "},"Ì":{"ha":388,"x_min":-8,"x_max":267,"o":"m 136 0 l 136 991 l 251 991 l 251 0 l 136 0 m 126 1313 q 166 1243 142 1282 q 217 1169 191 1205 q 267 1107 244 1133 l 267 1090 l 190 1090 q 118 1156 158 1116 q 43 1234 78 1195 q -8 1299 9 1274 l -8 1313 l 126 1313 z "},"Í":{"ha":388,"x_min":122,"x_max":397,"o":"m 136 0 l 136 991 l 251 991 l 251 0 l 136 0 m 397 1313 l 397 1299 q 344 1234 378 1274 q 270 1156 309 1195 q 197 1090 231 1116 l 122 1090 l 122 1107 q 170 1169 144 1133 q 220 1243 195 1205 q 260 1313 244 1282 l 397 1313 z "},"Î":{"ha":388,"x_min":-34,"x_max":422,"o":"m 136 0 l 136 991 l 251 991 l 251 0 l 136 0 m 250 1312 q 298 1243 267 1282 q 362 1168 328 1205 q 422 1105 396 1132 l 422 1090 l 342 1090 q 267 1149 306 1114 q 192 1221 229 1183 q 118 1149 155 1183 q 43 1090 80 1115 l -34 1090 l -34 1105 q 25 1169 -8 1133 q 88 1244 58 1206 q 136 1312 118 1282 l 250 1312 z "},"Ï":{"ha":388,"x_min":4,"x_max":387,"o":"m 136 0 l 136 991 l 251 991 l 251 0 l 136 0 m 4 1194 q 22 1244 4 1228 q 65 1259 39 1259 q 110 1244 92 1259 q 127 1194 127 1228 q 110 1144 127 1161 q 65 1128 92 1128 q 22 1144 39 1128 q 4 1194 4 1161 m 264 1194 q 282 1244 264 1228 q 325 1259 300 1259 q 369 1244 351 1259 q 387 1194 387 1228 q 369 1144 387 1161 q 325 1128 351 1128 q 282 1144 300 1128 q 264 1194 264 1161 z "},"Ð":{"ha":1008,"x_min":39,"x_max":923,"o":"m 435 991 q 695 936 585 991 q 864 773 804 881 q 923 505 923 665 q 787 127 923 254 q 404 0 651 0 l 144 0 l 144 440 l 39 440 l 39 541 l 144 541 l 144 991 l 435 991 m 417 893 l 259 893 l 259 541 l 511 541 l 511 440 l 259 440 l 259 99 l 391 99 q 802 501 802 99 q 702 798 802 702 q 417 893 602 893 z "},"Ñ":{"ha":1046,"x_min":136,"x_max":911,"o":"m 911 0 l 778 0 l 237 833 l 232 833 q 239 713 235 783 q 243 570 243 644 l 243 0 l 136 0 l 136 991 l 268 991 l 806 161 l 811 161 q 808 229 810 185 q 804 323 806 273 q 802 417 802 374 l 802 991 l 911 991 l 911 0 m 270 1093 q 316 1219 277 1173 q 419 1265 355 1265 q 497 1245 461 1265 q 567 1204 534 1225 q 629 1183 600 1183 q 680 1203 662 1183 q 707 1267 698 1223 l 774 1267 q 727 1140 765 1187 q 625 1093 689 1093 q 549 1114 585 1093 q 479 1155 513 1135 q 414 1175 446 1175 q 363 1155 381 1175 q 336 1093 346 1135 l 270 1093 z "},"Ò":{"ha":1080,"x_min":85,"x_max":996,"o":"m 996 497 q 944 229 996 344 q 791 51 892 115 q 541 -14 690 -14 q 286 51 387 -14 q 135 230 184 115 q 85 498 85 345 q 135 765 85 650 q 287 943 185 880 q 543 1007 389 1007 q 791 944 690 1007 q 944 767 892 881 q 996 497 996 652 m 206 497 q 288 197 206 308 q 541 86 370 86 q 794 197 713 86 q 874 497 874 307 q 794 797 874 689 q 543 905 713 905 q 288 796 370 905 q 206 497 206 687 m 495 1313 q 535 1243 511 1282 q 586 1169 559 1205 q 635 1107 613 1133 l 635 1090 l 559 1090 q 487 1156 527 1116 q 412 1234 447 1195 q 361 1299 378 1274 l 361 1313 l 495 1313 z "},"Ó":{"ha":1080,"x_min":85,"x_max":996,"o":"m 996 497 q 944 229 996 344 q 791 51 892 115 q 541 -14 690 -14 q 286 51 387 -14 q 135 230 184 115 q 85 498 85 345 q 135 765 85 650 q 287 943 185 880 q 543 1007 389 1007 q 791 944 690 1007 q 944 767 892 881 q 996 497 996 652 m 206 497 q 288 197 206 308 q 541 86 370 86 q 794 197 713 86 q 874 497 874 307 q 794 797 874 689 q 543 905 713 905 q 288 796 370 905 q 206 497 206 687 m 737 1313 l 737 1299 q 684 1234 719 1274 q 610 1156 650 1195 q 538 1090 571 1116 l 463 1090 l 463 1107 q 510 1169 484 1133 q 560 1243 536 1205 q 601 1313 585 1282 l 737 1313 z "},"Ô":{"ha":1080,"x_min":85,"x_max":996,"o":"m 996 497 q 944 229 996 344 q 791 51 892 115 q 541 -14 690 -14 q 286 51 387 -14 q 135 230 184 115 q 85 498 85 345 q 135 765 85 650 q 287 943 185 880 q 543 1007 389 1007 q 791 944 690 1007 q 944 767 892 881 q 996 497 996 652 m 206 497 q 288 197 206 308 q 541 86 370 86 q 794 197 713 86 q 874 497 874 307 q 794 797 874 689 q 543 905 713 905 q 288 796 370 905 q 206 497 206 687 m 600 1312 q 647 1243 616 1282 q 711 1168 677 1205 q 772 1105 745 1132 l 772 1090 l 692 1090 q 616 1149 655 1114 q 541 1221 578 1183 q 467 1149 505 1183 q 393 1090 429 1115 l 315 1090 l 315 1105 q 374 1169 341 1133 q 437 1244 407 1206 q 485 1312 467 1282 l 600 1312 z "},"Õ":{"ha":1080,"x_min":85,"x_max":996,"o":"m 996 497 q 944 229 996 344 q 791 51 892 115 q 541 -14 690 -14 q 286 51 387 -14 q 135 230 184 115 q 85 498 85 345 q 135 765 85 650 q 287 943 185 880 q 543 1007 389 1007 q 791 944 690 1007 q 944 767 892 881 q 996 497 996 652 m 206 497 q 288 197 206 308 q 541 86 370 86 q 794 197 713 86 q 874 497 874 307 q 794 797 874 689 q 543 905 713 905 q 288 796 370 905 q 206 497 206 687 m 285 1093 q 331 1219 292 1173 q 434 1265 370 1265 q 512 1245 476 1265 q 582 1204 549 1225 q 644 1183 614 1183 q 695 1203 677 1183 q 722 1267 713 1223 l 789 1267 q 742 1140 780 1187 q 640 1093 704 1093 q 564 1114 600 1093 q 494 1155 528 1135 q 429 1175 461 1175 q 378 1155 396 1175 q 351 1093 361 1135 l 285 1093 z "},"Ö":{"ha":1080,"x_min":85,"x_max":996,"o":"m 996 497 q 944 229 996 344 q 791 51 892 115 q 541 -14 690 -14 q 286 51 387 -14 q 135 230 184 115 q 85 498 85 345 q 135 765 85 650 q 287 943 185 880 q 543 1007 389 1007 q 791 944 690 1007 q 944 767 892 881 q 996 497 996 652 m 206 497 q 288 197 206 308 q 541 86 370 86 q 794 197 713 86 q 874 497 874 307 q 794 797 874 689 q 543 905 713 905 q 288 796 370 905 q 206 497 206 687 m 349 1194 q 366 1244 349 1228 q 410 1259 384 1259 q 454 1244 436 1259 q 472 1194 472 1228 q 454 1144 472 1161 q 410 1128 436 1128 q 366 1144 384 1128 q 349 1194 349 1161 m 609 1194 q 627 1244 609 1228 q 669 1259 644 1259 q 713 1244 695 1259 q 732 1194 732 1228 q 713 1144 732 1161 q 669 1128 695 1128 q 627 1144 644 1128 q 609 1194 609 1161 z "},"×":{"ha":794,"x_min":90,"x_max":701,"o":"m 637 796 l 701 730 l 461 490 l 701 250 l 636 184 l 395 423 l 158 184 l 91 250 l 330 490 l 90 729 l 157 796 l 396 555 l 637 796 z "},"Ø":{"ha":1080,"x_min":85,"x_max":996,"o":"m 996 497 q 944 229 996 344 q 791 51 892 115 q 541 -14 690 -14 q 281 56 382 -14 l 212 -42 l 133 9 l 208 115 q 115 280 146 183 q 85 498 85 378 q 135 765 85 650 q 287 943 185 880 q 543 1007 389 1007 q 679 990 616 1007 q 793 941 742 972 l 859 1036 l 937 982 l 865 882 q 962 718 928 815 q 996 497 996 621 m 206 497 q 277 214 206 317 l 731 852 q 543 905 656 905 q 288 796 370 905 q 206 497 206 687 m 874 497 q 799 787 874 682 l 342 144 q 430 101 380 117 q 541 86 479 86 q 794 197 713 86 q 874 497 874 307 z "},"Ù":{"ha":1013,"x_min":125,"x_max":886,"o":"m 886 991 l 886 350 q 843 163 886 245 q 715 34 801 81 q 501 -14 630 -14 q 221 86 317 -14 q 125 353 125 186 l 125 991 l 241 991 l 241 349 q 308 155 241 223 q 508 86 375 86 q 707 159 644 86 q 771 349 771 231 l 771 991 l 886 991 m 460 1313 q 501 1243 477 1282 q 552 1169 525 1205 q 601 1107 578 1133 l 601 1090 l 524 1090 q 452 1156 492 1116 q 378 1234 412 1195 q 326 1299 343 1274 l 326 1313 l 460 1313 z "},"Ú":{"ha":1013,"x_min":125,"x_max":886,"o":"m 886 991 l 886 350 q 843 163 886 245 q 715 34 801 81 q 501 -14 630 -14 q 221 86 317 -14 q 125 353 125 186 l 125 991 l 241 991 l 241 349 q 308 155 241 223 q 508 86 375 86 q 707 159 644 86 q 771 349 771 231 l 771 991 l 886 991 m 703 1313 l 703 1299 q 650 1234 685 1274 q 576 1156 616 1195 q 504 1090 537 1116 l 429 1090 l 429 1107 q 476 1169 450 1133 q 526 1243 502 1205 q 567 1313 551 1282 l 703 1313 z "},"Û":{"ha":1013,"x_min":125,"x_max":886,"o":"m 886 991 l 886 350 q 843 163 886 245 q 715 34 801 81 q 501 -14 630 -14 q 221 86 317 -14 q 125 353 125 186 l 125 991 l 241 991 l 241 349 q 308 155 241 223 q 508 86 375 86 q 707 159 644 86 q 771 349 771 231 l 771 991 l 886 991 m 566 1312 q 613 1243 583 1282 q 677 1168 644 1205 q 738 1105 711 1132 l 738 1090 l 658 1090 q 583 1149 621 1114 q 507 1221 544 1183 q 433 1149 471 1183 q 359 1090 395 1115 l 281 1090 l 281 1105 q 340 1169 307 1133 q 403 1244 373 1206 q 451 1312 433 1282 l 566 1312 z "},"Ü":{"ha":1013,"x_min":125,"x_max":886,"o":"m 886 991 l 886 350 q 843 163 886 245 q 715 34 801 81 q 501 -14 630 -14 q 221 86 317 -14 q 125 353 125 186 l 125 991 l 241 991 l 241 349 q 308 155 241 223 q 508 86 375 86 q 707 159 644 86 q 771 349 771 231 l 771 991 l 886 991 m 315 1194 q 333 1244 315 1228 q 376 1259 351 1259 q 421 1244 403 1259 q 439 1194 439 1228 q 421 1144 439 1161 q 376 1128 403 1128 q 333 1144 351 1128 q 315 1194 315 1161 m 576 1194 q 593 1244 576 1228 q 636 1259 611 1259 q 680 1244 662 1259 q 699 1194 699 1228 q 680 1144 699 1161 q 636 1128 662 1128 q 593 1144 611 1128 q 576 1194 576 1161 z "},"Ý":{"ha":777,"x_min":0,"x_max":777,"o":"m 389 494 l 652 991 l 777 991 l 446 385 l 446 0 l 331 0 l 331 379 l 0 991 l 126 991 l 389 494 m 585 1313 l 585 1299 q 532 1234 567 1274 q 458 1156 498 1195 q 386 1090 419 1116 l 311 1090 l 311 1107 q 358 1169 332 1133 q 408 1243 384 1205 q 449 1313 433 1282 l 585 1313 z "},"Þ":{"ha":836,"x_min":136,"x_max":764,"o":"m 764 530 q 727 374 764 446 q 604 260 690 303 q 370 218 517 218 l 251 218 l 251 0 l 136 0 l 136 991 l 251 991 l 251 818 l 393 818 q 677 743 589 818 q 764 530 764 668 m 251 316 l 358 316 q 575 364 505 316 q 645 524 645 412 q 583 672 645 624 q 383 720 521 720 l 251 720 l 251 316 z "},"ß":{"ha":865,"x_min":119,"x_max":801,"o":"m 712 860 q 692 777 712 812 q 644 716 673 743 q 586 667 615 690 q 538 623 557 645 q 518 574 518 601 q 528 536 518 553 q 565 499 538 520 q 642 446 591 479 q 758 345 715 396 q 801 210 801 294 q 731 41 801 95 q 546 -14 661 -14 q 431 -2 480 -14 q 346 32 382 10 l 346 134 q 435 95 383 113 q 543 78 488 78 q 656 112 621 78 q 691 202 691 145 q 662 291 691 256 q 560 373 633 326 q 443 469 476 428 q 409 568 409 511 q 428 642 409 612 q 475 695 447 672 q 532 740 504 718 q 579 788 560 762 q 598 853 598 815 q 549 941 598 913 q 422 968 500 968 q 326 954 370 968 q 257 904 283 939 q 231 808 231 869 l 231 0 l 119 0 l 119 808 q 158 957 119 901 q 266 1038 197 1013 q 422 1063 334 1063 q 633 1011 553 1063 q 712 860 712 960 z "},"à":{"ha":772,"x_min":64,"x_max":659,"o":"m 397 755 q 594 696 530 755 q 659 505 659 636 l 659 0 l 576 0 l 555 110 l 549 110 q 448 17 503 48 q 297 -14 393 -14 q 130 40 195 -14 q 64 204 64 94 q 152 375 64 315 q 420 440 240 435 l 549 446 l 549 491 q 507 626 549 587 q 391 665 466 665 q 279 648 332 665 q 179 608 227 631 l 144 693 q 260 737 195 719 q 397 755 325 755 m 547 366 l 434 361 q 238 316 295 356 q 181 203 181 276 q 220 109 181 139 q 322 78 258 78 q 484 133 421 78 q 547 298 547 188 l 547 366 m 339 1064 q 379 995 355 1033 q 430 920 404 956 q 479 858 457 884 l 479 842 l 403 842 q 331 907 371 867 q 256 985 291 946 q 205 1050 222 1025 l 205 1064 l 339 1064 z "},"á":{"ha":772,"x_min":64,"x_max":659,"o":"m 397 755 q 594 696 530 755 q 659 505 659 636 l 659 0 l 576 0 l 555 110 l 549 110 q 448 17 503 48 q 297 -14 393 -14 q 130 40 195 -14 q 64 204 64 94 q 152 375 64 315 q 420 440 240 435 l 549 446 l 549 491 q 507 626 549 587 q 391 665 466 665 q 279 648 332 665 q 179 608 227 631 l 144 693 q 260 737 195 719 q 397 755 325 755 m 547 366 l 434 361 q 238 316 295 356 q 181 203 181 276 q 220 109 181 139 q 322 78 258 78 q 484 133 421 78 q 547 298 547 188 l 547 366 m 583 1064 l 583 1050 q 530 985 564 1025 q 456 907 495 946 q 383 842 416 867 l 308 842 l 308 858 q 355 920 330 884 q 406 995 381 956 q 446 1064 430 1033 l 583 1064 z "},"â":{"ha":772,"x_min":64,"x_max":659,"o":"m 397 755 q 594 696 530 755 q 659 505 659 636 l 659 0 l 576 0 l 555 110 l 549 110 q 448 17 503 48 q 297 -14 393 -14 q 130 40 195 -14 q 64 204 64 94 q 152 375 64 315 q 420 440 240 435 l 549 446 l 549 491 q 507 626 549 587 q 391 665 466 665 q 279 648 332 665 q 179 608 227 631 l 144 693 q 260 737 195 719 q 397 755 325 755 m 547 366 l 434 361 q 238 316 295 356 q 181 203 181 276 q 220 109 181 139 q 322 78 258 78 q 484 133 421 78 q 547 298 547 188 l 547 366 m 444 1063 q 492 995 461 1033 q 556 920 522 956 q 616 857 590 883 l 616 842 l 536 842 q 461 900 500 865 q 386 972 422 935 q 312 900 349 935 q 237 842 274 866 l 160 842 l 160 857 q 219 920 186 884 q 282 995 252 957 q 330 1063 312 1033 l 444 1063 z "},"ã":{"ha":772,"x_min":64,"x_max":659,"o":"m 397 755 q 594 696 530 755 q 659 505 659 636 l 659 0 l 576 0 l 555 110 l 549 110 q 448 17 503 48 q 297 -14 393 -14 q 130 40 195 -14 q 64 204 64 94 q 152 375 64 315 q 420 440 240 435 l 549 446 l 549 491 q 507 626 549 587 q 391 665 466 665 q 279 648 332 665 q 179 608 227 631 l 144 693 q 260 737 195 719 q 397 755 325 755 m 547 366 l 434 361 q 238 316 295 356 q 181 203 181 276 q 220 109 181 139 q 322 78 258 78 q 484 133 421 78 q 547 298 547 188 l 547 366 m 130 844 q 176 970 137 924 q 279 1017 215 1017 q 357 996 321 1017 q 426 955 393 976 q 489 935 459 935 q 539 955 522 935 q 567 1018 557 975 l 633 1018 q 587 891 625 939 q 484 844 549 844 q 409 865 445 844 q 339 906 372 886 q 274 926 306 926 q 223 906 241 926 q 196 844 205 886 l 130 844 z "},"ä":{"ha":772,"x_min":64,"x_max":659,"o":"m 397 755 q 594 696 530 755 q 659 505 659 636 l 659 0 l 576 0 l 555 110 l 549 110 q 448 17 503 48 q 297 -14 393 -14 q 130 40 195 -14 q 64 204 64 94 q 152 375 64 315 q 420 440 240 435 l 549 446 l 549 491 q 507 626 549 587 q 391 665 466 665 q 279 648 332 665 q 179 608 227 631 l 144 693 q 260 737 195 719 q 397 755 325 755 m 547 366 l 434 361 q 238 316 295 356 q 181 203 181 276 q 220 109 181 139 q 322 78 258 78 q 484 133 421 78 q 547 298 547 188 l 547 366 m 194 945 q 212 995 194 979 q 255 1010 229 1010 q 299 995 281 1010 q 317 945 317 979 q 299 896 317 912 q 255 879 281 879 q 212 896 229 879 q 194 945 194 912 m 454 945 q 472 995 454 979 q 515 1010 490 1010 q 559 995 541 1010 q 577 945 577 979 q 559 896 577 912 q 515 879 541 879 q 472 896 490 879 q 454 945 454 912 z "},"å":{"ha":772,"x_min":64,"x_max":659,"o":"m 397 755 q 594 696 530 755 q 659 505 659 636 l 659 0 l 576 0 l 555 110 l 549 110 q 448 17 503 48 q 297 -14 393 -14 q 130 40 195 -14 q 64 204 64 94 q 152 375 64 315 q 420 440 240 435 l 549 446 l 549 491 q 507 626 549 587 q 391 665 466 665 q 279 648 332 665 q 179 608 227 631 l 144 693 q 260 737 195 719 q 397 755 325 755 m 547 366 l 434 361 q 238 316 295 356 q 181 203 181 276 q 220 109 181 139 q 322 78 258 78 q 484 133 421 78 q 547 298 547 188 l 547 366 m 386 842 q 278 881 320 842 q 236 989 236 920 q 278 1095 236 1057 q 386 1134 319 1134 q 494 1095 450 1134 q 538 990 538 1057 q 495 881 538 920 q 386 842 452 842 m 386 907 q 445 929 422 907 q 467 989 467 951 q 444 1048 467 1026 q 386 1069 420 1069 q 329 1048 352 1069 q 305 989 305 1026 q 326 929 305 951 q 386 907 347 907 z "},"æ":{"ha":1198,"x_min":64,"x_max":1126,"o":"m 838 757 q 992 715 928 757 q 1092 597 1057 673 q 1126 423 1126 522 l 1126 352 l 645 352 q 704 149 648 215 q 866 83 760 83 q 986 96 934 83 q 1093 134 1038 109 l 1093 35 q 984 -2 1038 9 q 863 -14 931 -14 q 581 149 663 -14 q 471 31 535 75 q 299 -14 408 -14 q 130 40 197 -14 q 64 204 64 94 q 404 440 64 429 l 530 446 l 530 494 q 487 626 530 588 q 371 665 444 665 q 263 648 316 665 q 162 608 210 631 l 127 693 q 244 738 177 720 q 380 755 312 755 q 523 725 467 755 q 606 626 579 694 q 701 722 642 688 q 838 757 760 757 m 836 665 q 705 607 754 665 q 648 441 655 550 l 1006 441 q 965 603 1007 542 q 836 665 924 665 m 527 366 l 420 361 q 235 316 290 356 q 181 203 181 276 q 218 109 181 139 q 317 78 255 78 q 468 133 408 78 q 527 298 527 188 l 527 366 z "},"ç":{"ha":665,"x_min":77,"x_max":620,"o":"m 416 -14 q 239 28 316 -14 q 120 154 163 69 q 77 368 77 239 q 122 588 77 503 q 247 715 168 674 q 427 757 326 757 q 535 746 483 757 q 620 718 587 734 l 586 623 q 508 648 552 637 q 425 659 463 659 q 251 584 309 659 q 194 369 194 510 q 250 159 194 234 q 416 84 305 84 q 522 97 475 84 q 608 126 570 109 l 608 26 q 525 -3 571 7 q 416 -14 479 -14 m 527 -194 q 476 -297 527 -260 q 327 -334 425 -334 q 287 -331 306 -334 q 256 -326 268 -329 l 256 -255 q 330 -262 285 -262 q 408 -247 381 -262 q 435 -197 435 -232 q 399 -142 435 -159 q 307 -119 363 -125 l 367 0 l 442 0 l 406 -76 q 492 -114 456 -86 q 527 -194 527 -141 z "},"è":{"ha":780,"x_min":77,"x_max":707,"o":"m 405 757 q 568 715 500 757 q 671 597 635 673 q 707 420 707 522 l 707 351 l 194 351 q 259 151 196 220 q 437 83 322 83 q 562 96 507 83 q 674 134 616 109 l 674 35 q 563 -2 618 9 q 432 -14 507 -14 q 174 84 271 -14 q 77 366 77 182 q 118 574 77 486 q 232 709 158 662 q 405 757 305 757 m 404 665 q 260 606 313 665 q 196 441 206 547 l 589 441 q 544 603 589 541 q 404 665 498 665 m 349 1064 q 389 995 365 1033 q 440 920 413 956 q 489 858 467 884 l 489 842 l 412 842 q 340 907 380 867 q 266 985 300 946 q 214 1050 231 1025 l 214 1064 l 349 1064 z "},"é":{"ha":780,"x_min":77,"x_max":707,"o":"m 405 757 q 568 715 500 757 q 671 597 635 673 q 707 420 707 522 l 707 351 l 194 351 q 259 151 196 220 q 437 83 322 83 q 562 96 507 83 q 674 134 616 109 l 674 35 q 563 -2 618 9 q 432 -14 507 -14 q 174 84 271 -14 q 77 366 77 182 q 118 574 77 486 q 232 709 158 662 q 405 757 305 757 m 404 665 q 260 606 313 665 q 196 441 206 547 l 589 441 q 544 603 589 541 q 404 665 498 665 m 591 1064 l 591 1050 q 538 985 573 1025 q 465 907 504 946 q 392 842 425 867 l 317 842 l 317 858 q 364 920 338 884 q 414 995 390 956 q 455 1064 439 1033 l 591 1064 z "},"ê":{"ha":780,"x_min":77,"x_max":707,"o":"m 405 757 q 568 715 500 757 q 671 597 635 673 q 707 420 707 522 l 707 351 l 194 351 q 259 151 196 220 q 437 83 322 83 q 562 96 507 83 q 674 134 616 109 l 674 35 q 563 -2 618 9 q 432 -14 507 -14 q 174 84 271 -14 q 77 366 77 182 q 118 574 77 486 q 232 709 158 662 q 405 757 305 757 m 404 665 q 260 606 313 665 q 196 441 206 547 l 589 441 q 544 603 589 541 q 404 665 498 665 m 454 1063 q 501 995 471 1033 q 566 920 532 956 q 626 857 600 883 l 626 842 l 546 842 q 471 900 509 865 q 395 972 432 935 q 321 900 359 935 q 247 842 283 866 l 170 842 l 170 857 q 228 920 195 884 q 291 995 261 957 q 339 1063 321 1033 l 454 1063 z "},"ë":{"ha":780,"x_min":77,"x_max":707,"o":"m 405 757 q 568 715 500 757 q 671 597 635 673 q 707 420 707 522 l 707 351 l 194 351 q 259 151 196 220 q 437 83 322 83 q 562 96 507 83 q 674 134 616 109 l 674 35 q 563 -2 618 9 q 432 -14 507 -14 q 174 84 271 -14 q 77 366 77 182 q 118 574 77 486 q 232 709 158 662 q 405 757 305 757 m 404 665 q 260 606 313 665 q 196 441 206 547 l 589 441 q 544 603 589 541 q 404 665 498 665 m 203 945 q 221 995 203 979 q 264 1010 239 1010 q 309 995 291 1010 q 327 945 327 979 q 309 896 327 912 q 264 879 291 879 q 221 896 239 879 q 203 945 203 912 m 464 945 q 481 995 464 979 q 524 1010 499 1010 q 568 995 550 1010 q 587 945 587 979 q 568 896 587 912 q 524 879 550 879 q 481 896 499 879 q 464 945 464 912 z "},"ì":{"ha":351,"x_min":-5,"x_max":269,"o":"m 231 0 l 119 0 l 119 743 l 231 743 l 231 0 m 129 1064 q 169 995 145 1033 q 220 920 193 956 q 269 858 247 884 l 269 842 l 193 842 q 121 907 161 867 q 46 985 81 946 q -5 1050 12 1025 l -5 1064 l 129 1064 z "},"í":{"ha":351,"x_min":97,"x_max":372,"o":"m 231 0 l 119 0 l 119 743 l 231 743 l 231 0 m 372 1064 l 372 1050 q 319 985 353 1025 q 245 907 284 946 q 172 842 205 867 l 97 842 l 97 858 q 144 920 119 884 q 195 995 170 956 q 235 1064 219 1033 l 372 1064 z "},"î":{"ha":351,"x_min":-51,"x_max":406,"o":"m 231 0 l 119 0 l 119 743 l 231 743 l 231 0 m 233 1063 q 281 995 250 1033 q 345 920 311 956 q 406 857 379 883 l 406 842 l 326 842 q 250 900 289 865 q 175 972 212 935 q 101 900 138 935 q 26 842 63 866 l -51 842 l -51 857 q 8 920 -25 884 q 71 995 41 957 q 119 1063 101 1033 l 233 1063 z "},"ï":{"ha":351,"x_min":-17,"x_max":366,"o":"m 231 0 l 119 0 l 119 743 l 231 743 l 231 0 m -17 945 q 1 995 -17 979 q 44 1010 18 1010 q 89 995 71 1010 q 106 945 106 979 q 89 896 106 912 q 44 879 71 879 q 1 896 18 879 q -17 945 -17 912 m 243 945 q 261 995 243 979 q 304 1010 279 1010 q 348 995 330 1010 q 366 945 366 979 q 348 896 366 912 q 304 879 330 879 q 261 896 279 879 q 243 945 243 912 z "},"ð":{"ha":833,"x_min":77,"x_max":756,"o":"m 298 1061 q 388 1015 344 1040 q 471 961 432 990 l 631 1054 l 680 985 l 541 904 q 697 682 638 814 q 756 381 756 549 q 666 87 756 187 q 414 -14 575 -14 q 238 27 315 -14 q 119 143 162 68 q 77 322 77 219 q 165 567 77 477 q 401 656 253 656 q 621 573 555 656 l 627 575 q 558 727 605 657 q 452 852 512 797 l 271 747 l 222 818 l 379 908 q 252 984 321 949 l 298 1061 m 418 564 q 246 500 301 564 q 191 318 191 437 q 246 145 191 212 q 416 79 300 79 q 587 149 532 79 q 642 354 642 220 q 619 457 642 410 q 546 535 595 505 q 418 564 496 564 z "},"ñ":{"ha":852,"x_min":119,"x_max":739,"o":"m 471 757 q 671 692 603 757 q 739 484 739 627 l 739 0 l 627 0 l 627 477 q 455 662 627 662 q 281 592 332 662 q 231 389 231 522 l 231 0 l 119 0 l 119 743 l 210 743 l 227 636 l 233 636 q 332 726 269 695 q 471 757 395 757 m 172 844 q 219 970 180 924 q 321 1017 258 1017 q 400 996 363 1017 q 469 955 436 976 q 532 935 502 935 q 582 955 564 935 q 610 1018 600 975 l 676 1018 q 629 891 667 939 q 527 844 591 844 q 451 865 488 844 q 382 906 415 886 q 317 926 349 926 q 266 906 283 926 q 239 844 248 886 l 172 844 z "},"ò":{"ha":836,"x_min":77,"x_max":760,"o":"m 760 373 q 668 88 760 190 q 416 -14 576 -14 q 240 32 317 -14 q 120 164 163 78 q 77 373 77 251 q 169 656 77 556 q 420 757 261 757 q 598 711 522 757 q 717 580 675 666 q 760 373 760 494 m 194 373 q 248 159 194 238 q 418 80 302 80 q 589 159 534 80 q 643 373 643 239 q 589 584 643 507 q 418 662 535 662 q 248 585 302 662 q 194 373 194 509 m 372 1064 q 412 995 388 1033 q 463 920 436 956 q 512 858 490 884 l 512 842 l 435 842 q 363 907 404 867 q 289 985 323 946 q 237 1050 254 1025 l 237 1064 l 372 1064 z "},"ó":{"ha":836,"x_min":77,"x_max":760,"o":"m 760 373 q 668 88 760 190 q 416 -14 576 -14 q 240 32 317 -14 q 120 164 163 78 q 77 373 77 251 q 169 656 77 556 q 420 757 261 757 q 598 711 522 757 q 717 580 675 666 q 760 373 760 494 m 194 373 q 248 159 194 238 q 418 80 302 80 q 589 159 534 80 q 643 373 643 239 q 589 584 643 507 q 418 662 535 662 q 248 585 302 662 q 194 373 194 509 m 615 1064 l 615 1050 q 562 985 597 1025 q 488 907 528 946 q 416 842 449 867 l 340 842 l 340 858 q 388 920 362 884 q 438 995 414 956 q 479 1064 463 1033 l 615 1064 z "},"ô":{"ha":836,"x_min":77,"x_max":760,"o":"m 760 373 q 668 88 760 190 q 416 -14 576 -14 q 240 32 317 -14 q 120 164 163 78 q 77 373 77 251 q 169 656 77 556 q 420 757 261 757 q 598 711 522 757 q 717 580 675 666 q 760 373 760 494 m 194 373 q 248 159 194 238 q 418 80 302 80 q 589 159 534 80 q 643 373 643 239 q 589 584 643 507 q 418 662 535 662 q 248 585 302 662 q 194 373 194 509 m 477 1063 q 524 995 494 1033 q 589 920 555 956 q 649 857 623 883 l 649 842 l 569 842 q 494 900 532 865 q 418 972 455 935 q 344 900 382 935 q 270 842 307 866 l 193 842 l 193 857 q 251 920 218 884 q 314 995 284 957 q 362 1063 345 1033 l 477 1063 z "},"õ":{"ha":836,"x_min":77,"x_max":760,"o":"m 760 373 q 668 88 760 190 q 416 -14 576 -14 q 240 32 317 -14 q 120 164 163 78 q 77 373 77 251 q 169 656 77 556 q 420 757 261 757 q 598 711 522 757 q 717 580 675 666 q 760 373 760 494 m 194 373 q 248 159 194 238 q 418 80 302 80 q 589 159 534 80 q 643 373 643 239 q 589 584 643 507 q 418 662 535 662 q 248 585 302 662 q 194 373 194 509 m 163 844 q 209 970 170 924 q 312 1017 248 1017 q 390 996 354 1017 q 459 955 427 976 q 522 935 492 935 q 573 955 555 935 q 600 1018 591 975 l 667 1018 q 620 891 658 939 q 517 844 582 844 q 442 865 478 844 q 372 906 406 886 q 307 926 339 926 q 256 906 274 926 q 229 844 239 886 l 163 844 z "},"ö":{"ha":836,"x_min":77,"x_max":760,"o":"m 760 373 q 668 88 760 190 q 416 -14 576 -14 q 240 32 317 -14 q 120 164 163 78 q 77 373 77 251 q 169 656 77 556 q 420 757 261 757 q 598 711 522 757 q 717 580 675 666 q 760 373 760 494 m 194 373 q 248 159 194 238 q 418 80 302 80 q 589 159 534 80 q 643 373 643 239 q 589 584 643 507 q 418 662 535 662 q 248 585 302 662 q 194 373 194 509 m 227 945 q 244 995 227 979 q 288 1010 262 1010 q 332 995 314 1010 q 350 945 350 979 q 332 896 350 912 q 288 879 314 879 q 244 896 262 879 q 227 945 227 912 m 487 945 q 505 995 487 979 q 547 1010 522 1010 q 591 995 573 1010 q 610 945 610 979 q 591 896 610 912 q 547 879 573 879 q 505 896 522 879 q 487 945 487 912 z "},"÷":{"ha":794,"x_min":70,"x_max":723,"o":"m 396 648 q 344 667 365 648 q 323 728 323 686 q 344 789 323 771 q 396 806 365 806 q 447 789 426 806 q 468 728 468 771 q 447 667 468 686 q 396 648 426 648 m 70 444 l 70 536 l 723 536 l 723 444 l 70 444 m 396 172 q 344 191 365 172 q 323 252 323 210 q 344 313 323 296 q 396 331 365 331 q 447 313 426 331 q 468 252 468 296 q 447 191 468 210 q 396 172 426 172 z "},"ø":{"ha":836,"x_min":77,"x_max":760,"o":"m 760 373 q 668 88 760 190 q 416 -14 576 -14 q 232 37 310 -14 l 172 -45 l 98 5 l 164 95 q 100 215 123 146 q 77 373 77 285 q 169 656 77 556 q 420 757 261 757 q 605 704 527 757 l 663 785 l 739 735 l 673 646 q 736 528 713 596 q 760 373 760 459 m 194 373 q 202 271 194 317 q 230 189 211 224 l 547 623 q 418 662 494 662 q 248 585 302 662 q 194 373 194 509 m 643 373 q 608 552 643 484 l 290 117 q 418 80 339 80 q 589 159 534 80 q 643 373 643 239 z "},"ù":{"ha":852,"x_min":111,"x_max":732,"o":"m 732 743 l 732 0 l 640 0 l 624 104 l 618 104 q 519 16 583 46 q 378 -14 455 -14 q 178 51 245 -14 q 111 256 111 116 l 111 743 l 224 743 l 224 264 q 395 80 224 80 q 569 150 518 80 q 619 352 619 220 l 619 743 l 732 743 m 380 1064 q 420 995 396 1033 q 471 920 444 956 q 520 858 498 884 l 520 842 l 444 842 q 372 907 412 867 q 297 985 332 946 q 245 1050 262 1025 l 245 1064 l 380 1064 z "},"ú":{"ha":852,"x_min":111,"x_max":732,"o":"m 732 743 l 732 0 l 640 0 l 624 104 l 618 104 q 519 16 583 46 q 378 -14 455 -14 q 178 51 245 -14 q 111 256 111 116 l 111 743 l 224 743 l 224 264 q 395 80 224 80 q 569 150 518 80 q 619 352 619 220 l 619 743 l 732 743 m 623 1064 l 623 1050 q 570 985 604 1025 q 496 907 535 946 q 423 842 456 867 l 348 842 l 348 858 q 395 920 370 884 q 446 995 421 956 q 486 1064 470 1033 l 623 1064 z "},"û":{"ha":852,"x_min":111,"x_max":732,"o":"m 732 743 l 732 0 l 640 0 l 624 104 l 618 104 q 519 16 583 46 q 378 -14 455 -14 q 178 51 245 -14 q 111 256 111 116 l 111 743 l 224 743 l 224 264 q 395 80 224 80 q 569 150 518 80 q 619 352 619 220 l 619 743 l 732 743 m 484 1063 q 532 995 501 1033 q 596 920 562 956 q 656 857 630 883 l 656 842 l 576 842 q 501 900 540 865 q 426 972 463 935 q 352 900 389 935 q 277 842 314 866 l 200 842 l 200 857 q 259 920 226 884 q 322 995 292 957 q 370 1063 352 1033 l 484 1063 z "},"ü":{"ha":852,"x_min":111,"x_max":732,"o":"m 732 743 l 732 0 l 640 0 l 624 104 l 618 104 q 519 16 583 46 q 378 -14 455 -14 q 178 51 245 -14 q 111 256 111 116 l 111 743 l 224 743 l 224 264 q 395 80 224 80 q 569 150 518 80 q 619 352 619 220 l 619 743 l 732 743 m 234 945 q 252 995 234 979 q 295 1010 269 1010 q 339 995 321 1010 q 357 945 357 979 q 339 896 357 912 q 295 879 321 879 q 252 896 269 879 q 234 945 234 912 m 494 945 q 512 995 494 979 q 555 1010 530 1010 q 599 995 581 1010 q 617 945 617 979 q 599 896 617 912 q 555 879 581 879 q 512 896 530 879 q 494 945 494 912 z "},"ý":{"ha":696,"x_min":1,"x_max":696,"o":"m 1 743 l 122 743 l 286 312 q 324 204 307 254 q 349 111 340 155 l 354 111 q 381 200 363 144 q 419 313 399 255 l 574 743 l 696 743 l 372 -109 q 274 -273 334 -212 q 111 -334 215 -334 q 55 -331 79 -334 q 13 -322 31 -327 l 13 -232 q 49 -238 28 -235 q 94 -241 71 -241 q 195 -205 156 -241 q 258 -106 234 -170 l 299 -1 l 1 743 m 544 1064 l 544 1050 q 491 985 526 1025 q 417 907 456 946 q 345 842 378 867 l 269 842 l 269 858 q 317 920 291 884 q 367 995 342 956 q 408 1064 391 1033 l 544 1064 z "},"þ":{"ha":850,"x_min":119,"x_max":772,"o":"m 772 374 q 689 85 772 184 q 467 -14 606 -14 q 320 20 376 -14 q 232 102 264 54 l 224 102 q 227 66 225 90 q 231 18 229 43 q 232 -22 232 -6 l 232 -332 l 119 -332 l 119 1055 l 232 1055 l 232 743 q 231 688 232 722 q 228 635 229 655 l 233 635 q 320 721 265 686 q 468 757 376 757 q 690 660 607 757 q 772 374 772 563 m 656 375 q 606 590 656 519 q 450 662 555 662 q 283 595 333 662 q 232 397 233 528 l 232 372 q 280 156 232 231 q 450 80 328 80 q 605 156 554 80 q 656 375 656 233 z "},"ÿ":{"ha":696,"x_min":1,"x_max":696,"o":"m 1 743 l 122 743 l 286 312 q 324 204 307 254 q 349 111 340 155 l 354 111 q 381 200 363 144 q 419 313 399 255 l 574 743 l 696 743 l 372 -109 q 274 -273 334 -212 q 111 -334 215 -334 q 55 -331 79 -334 q 13 -322 31 -327 l 13 -232 q 49 -238 28 -235 q 94 -241 71 -241 q 195 -205 156 -241 q 258 -106 234 -170 l 299 -1 l 1 743 m 155 945 q 173 995 155 979 q 216 1010 191 1010 q 261 995 243 1010 q 279 945 279 979 q 261 896 279 912 q 216 879 243 879 q 173 896 191 879 q 155 945 155 912 m 416 945 q 433 995 416 979 q 476 1010 451 1010 q 520 995 502 1010 q 538 945 538 979 q 520 896 538 912 q 476 879 502 879 q 433 896 451 879 q 416 945 416 912 z "},"Ā":{"ha":878,"x_min":0,"x_max":877,"o":"m 758 0 l 635 315 l 238 315 l 117 0 l 0 0 l 388 996 l 492 996 l 877 0 l 758 0 m 601 417 l 485 730 q 472 770 481 742 q 453 827 463 798 q 437 876 444 857 q 415 794 427 834 q 395 730 403 754 l 277 417 l 601 417 m 640 1183 l 640 1092 l 234 1092 l 234 1183 l 640 1183 z "},"ā":{"ha":772,"x_min":64,"x_max":659,"o":"m 397 755 q 594 696 530 755 q 659 505 659 636 l 659 0 l 576 0 l 555 110 l 549 110 q 448 17 503 48 q 297 -14 393 -14 q 130 40 195 -14 q 64 204 64 94 q 152 375 64 315 q 420 440 240 435 l 549 446 l 549 491 q 507 626 549 587 q 391 665 466 665 q 279 648 332 665 q 179 608 227 631 l 144 693 q 260 737 195 719 q 397 755 325 755 m 547 366 l 434 361 q 238 316 295 356 q 181 203 181 276 q 220 109 181 139 q 322 78 258 78 q 484 133 421 78 q 547 298 547 188 l 547 366 m 588 934 l 588 843 l 182 843 l 182 934 l 588 934 z "},"Ă":{"ha":878,"x_min":0,"x_max":877,"o":"m 758 0 l 635 315 l 238 315 l 117 0 l 0 0 l 388 996 l 492 996 l 877 0 l 758 0 m 601 417 l 485 730 q 472 770 481 742 q 453 827 463 798 q 437 876 444 857 q 415 794 427 834 q 395 730 403 754 l 277 417 l 601 417 m 654 1274 q 592 1141 647 1192 q 439 1090 537 1090 q 289 1140 340 1090 q 232 1274 237 1190 l 302 1274 q 343 1199 309 1217 q 442 1182 378 1182 q 537 1201 498 1182 q 582 1274 575 1219 l 654 1274 z "},"ă":{"ha":772,"x_min":64,"x_max":659,"o":"m 397 755 q 594 696 530 755 q 659 505 659 636 l 659 0 l 576 0 l 555 110 l 549 110 q 448 17 503 48 q 297 -14 393 -14 q 130 40 195 -14 q 64 204 64 94 q 152 375 64 315 q 420 440 240 435 l 549 446 l 549 491 q 507 626 549 587 q 391 665 466 665 q 279 648 332 665 q 179 608 227 631 l 144 693 q 260 737 195 719 q 397 755 325 755 m 547 366 l 434 361 q 238 316 295 356 q 181 203 181 276 q 220 109 181 139 q 322 78 258 78 q 484 133 421 78 q 547 298 547 188 l 547 366 m 602 1025 q 540 892 595 943 q 387 842 485 842 q 236 891 288 842 q 180 1025 185 941 l 250 1025 q 291 950 256 968 q 390 933 326 933 q 485 952 446 933 q 530 1025 523 970 l 602 1025 z "},"Ą":{"ha":878,"x_min":0,"x_max":877,"o":"m 758 0 l 635 315 l 238 315 l 117 0 l 0 0 l 388 996 l 492 996 l 877 0 l 758 0 m 601 417 l 485 730 q 472 770 481 742 q 453 827 463 798 q 437 876 444 857 q 415 794 427 834 q 395 730 403 754 l 277 417 l 601 417 m 745 -163 q 810 -229 745 -229 q 849 -225 833 -229 q 877 -220 865 -222 l 877 -293 q 838 -301 858 -298 q 792 -305 819 -305 q 687 -271 721 -305 q 652 -176 652 -237 q 672 -100 652 -137 q 722 -32 692 -63 q 781 20 751 -1 l 844 0 q 771 -81 796 -43 q 745 -163 745 -119 z "},"ą":{"ha":772,"x_min":64,"x_max":693,"o":"m 397 755 q 594 696 530 755 q 659 505 659 636 l 659 0 l 576 0 l 555 110 l 549 110 q 448 17 503 48 q 297 -14 393 -14 q 130 40 195 -14 q 64 204 64 94 q 152 375 64 315 q 420 440 240 435 l 549 446 l 549 491 q 507 626 549 587 q 391 665 466 665 q 279 648 332 665 q 179 608 227 631 l 144 693 q 260 737 195 719 q 397 755 325 755 m 547 366 l 434 361 q 238 316 295 356 q 181 203 181 276 q 220 109 181 139 q 322 78 258 78 q 484 133 421 78 q 547 298 547 188 l 547 366 m 562 -163 q 627 -229 562 -229 q 665 -225 649 -229 q 693 -220 682 -222 l 693 -293 q 654 -301 674 -298 q 608 -305 635 -305 q 503 -271 537 -305 q 469 -176 469 -237 q 488 -100 469 -137 q 538 -32 508 -63 q 597 20 568 -1 l 660 0 q 587 -81 612 -43 q 562 -163 562 -119 z "},"Ć":{"ha":875,"x_min":85,"x_max":832,"o":"m 559 904 q 371 854 450 904 q 249 713 292 805 q 206 496 206 622 q 294 198 206 309 q 556 87 381 87 q 681 99 623 87 q 795 127 740 110 l 795 26 q 682 -4 741 6 q 540 -14 622 -14 q 287 49 389 -14 q 135 227 186 112 q 85 497 85 341 q 140 762 85 647 q 302 941 196 876 q 561 1006 408 1006 q 832 948 715 1006 l 786 850 q 682 888 739 872 q 559 904 625 904 m 723 1313 l 723 1299 q 670 1234 705 1274 q 596 1156 635 1195 q 524 1090 557 1116 l 448 1090 l 448 1107 q 496 1169 470 1133 q 546 1243 522 1205 q 587 1313 570 1282 l 723 1313 z "},"ć":{"ha":665,"x_min":77,"x_max":620,"o":"m 416 -14 q 239 28 316 -14 q 120 154 163 69 q 77 368 77 239 q 122 588 77 503 q 247 715 168 674 q 427 757 326 757 q 535 746 483 757 q 620 718 587 734 l 586 623 q 508 648 552 637 q 425 659 463 659 q 251 584 309 659 q 194 369 194 510 q 250 159 194 234 q 416 84 305 84 q 522 97 475 84 q 608 126 570 109 l 608 26 q 525 -3 571 7 q 416 -14 479 -14 m 591 1064 l 591 1050 q 538 985 573 1025 q 465 907 504 946 q 392 842 425 867 l 317 842 l 317 858 q 364 920 338 884 q 414 995 390 956 q 455 1064 439 1033 l 591 1064 z "},"Ĉ":{"ha":875,"x_min":85,"x_max":832,"o":"m 559 904 q 371 854 450 904 q 249 713 292 805 q 206 496 206 622 q 294 198 206 309 q 556 87 381 87 q 681 99 623 87 q 795 127 740 110 l 795 26 q 682 -4 741 6 q 540 -14 622 -14 q 287 49 389 -14 q 135 227 186 112 q 85 497 85 341 q 140 762 85 647 q 302 941 196 876 q 561 1006 408 1006 q 832 948 715 1006 l 786 850 q 682 888 739 872 q 559 904 625 904 m 585 1312 q 632 1243 602 1282 q 696 1168 663 1205 q 757 1105 730 1132 l 757 1090 l 677 1090 q 602 1149 640 1114 q 526 1221 563 1183 q 452 1149 490 1183 q 378 1090 414 1115 l 300 1090 l 300 1105 q 359 1169 326 1133 q 422 1244 392 1206 q 470 1312 452 1282 l 585 1312 z "},"ĉ":{"ha":665,"x_min":77,"x_max":625,"o":"m 416 -14 q 239 28 316 -14 q 120 154 163 69 q 77 368 77 239 q 122 588 77 503 q 247 715 168 674 q 427 757 326 757 q 535 746 483 757 q 620 718 587 734 l 586 623 q 508 648 552 637 q 425 659 463 659 q 251 584 309 659 q 194 369 194 510 q 250 159 194 234 q 416 84 305 84 q 522 97 475 84 q 608 126 570 109 l 608 26 q 525 -3 571 7 q 416 -14 479 -14 m 453 1063 q 500 995 470 1033 q 565 920 531 956 q 625 857 599 883 l 625 842 l 545 842 q 470 900 509 865 q 395 972 431 935 q 320 900 358 935 q 246 842 283 866 l 169 842 l 169 857 q 228 920 195 884 q 291 995 260 957 q 338 1063 321 1033 l 453 1063 z "},"Ċ":{"ha":875,"x_min":85,"x_max":832,"o":"m 559 904 q 371 854 450 904 q 249 713 292 805 q 206 496 206 622 q 294 198 206 309 q 556 87 381 87 q 681 99 623 87 q 795 127 740 110 l 795 26 q 682 -4 741 6 q 540 -14 622 -14 q 287 49 389 -14 q 135 227 186 112 q 85 497 85 341 q 140 762 85 647 q 302 941 196 876 q 561 1006 408 1006 q 832 948 715 1006 l 786 850 q 682 888 739 872 q 559 904 625 904 m 529 1270 q 577 1252 557 1270 q 597 1196 597 1234 q 577 1141 597 1159 q 529 1122 557 1122 q 480 1141 500 1122 q 461 1196 461 1159 q 480 1252 461 1234 q 529 1270 500 1270 z "},"ċ":{"ha":665,"x_min":77,"x_max":620,"o":"m 416 -14 q 239 28 316 -14 q 120 154 163 69 q 77 368 77 239 q 122 588 77 503 q 247 715 168 674 q 427 757 326 757 q 535 746 483 757 q 620 718 587 734 l 586 623 q 508 648 552 637 q 425 659 463 659 q 251 584 309 659 q 194 369 194 510 q 250 159 194 234 q 416 84 305 84 q 522 97 475 84 q 608 126 570 109 l 608 26 q 525 -3 571 7 q 416 -14 479 -14 m 396 1021 q 444 1003 424 1021 q 464 947 464 985 q 444 892 464 910 q 396 873 424 873 q 348 892 367 873 q 328 947 328 910 q 348 1003 328 985 q 396 1021 367 1021 z "},"Č":{"ha":875,"x_min":85,"x_max":832,"o":"m 559 904 q 371 854 450 904 q 249 713 292 805 q 206 496 206 622 q 294 198 206 309 q 556 87 381 87 q 681 99 623 87 q 795 127 740 110 l 795 26 q 682 -4 741 6 q 540 -14 622 -14 q 287 49 389 -14 q 135 227 186 112 q 85 497 85 341 q 140 762 85 647 q 302 941 196 876 q 561 1006 408 1006 q 832 948 715 1006 l 786 850 q 682 888 739 872 q 559 904 625 904 m 468 1090 q 420 1159 450 1122 q 356 1233 389 1196 q 298 1295 323 1269 l 298 1312 l 376 1312 q 451 1252 412 1287 q 524 1179 490 1217 q 600 1252 561 1217 q 675 1312 638 1287 l 755 1312 l 755 1295 q 694 1233 728 1269 q 630 1159 661 1196 q 583 1090 600 1122 l 468 1090 z "},"č":{"ha":665,"x_min":77,"x_max":623,"o":"m 416 -14 q 239 28 316 -14 q 120 154 163 69 q 77 368 77 239 q 122 588 77 503 q 247 715 168 674 q 427 757 326 757 q 535 746 483 757 q 620 718 587 734 l 586 623 q 508 648 552 637 q 425 659 463 659 q 251 584 309 659 q 194 369 194 510 q 250 159 194 234 q 416 84 305 84 q 522 97 475 84 q 608 126 570 109 l 608 26 q 525 -3 571 7 q 416 -14 479 -14 m 336 842 q 288 910 318 873 q 224 984 257 947 q 166 1046 191 1020 l 166 1063 l 243 1063 q 319 1003 280 1038 q 392 930 358 968 q 467 1003 429 968 q 543 1063 506 1038 l 623 1063 l 623 1046 q 562 984 596 1020 q 498 910 528 947 q 450 842 467 873 l 336 842 z "},"Ď":{"ha":1008,"x_min":136,"x_max":923,"o":"m 923 505 q 787 127 923 254 q 405 0 652 0 l 136 0 l 136 991 l 435 991 q 792 868 661 991 q 923 505 923 744 m 802 501 q 703 798 802 702 q 417 893 604 893 l 251 893 l 251 99 l 391 99 q 802 501 802 99 m 441 1090 q 393 1159 423 1122 q 329 1233 362 1196 q 271 1295 296 1269 l 271 1312 l 349 1312 q 424 1252 385 1287 q 497 1179 463 1217 q 572 1252 534 1217 q 648 1312 611 1287 l 728 1312 l 728 1295 q 667 1233 701 1269 q 603 1159 633 1196 q 555 1090 572 1122 l 441 1090 z "},"ď":{"ha":850,"x_min":77,"x_max":944,"o":"m 383 -14 q 160 83 242 -14 q 77 369 77 179 q 161 659 77 561 q 385 757 245 757 q 529 723 473 757 q 618 640 585 690 l 626 640 q 621 698 623 661 q 618 758 618 734 l 618 1055 l 730 1055 l 730 0 l 640 0 l 623 106 l 618 106 q 530 21 586 56 q 383 -14 473 -14 m 401 80 q 570 148 520 80 q 619 349 619 216 l 619 370 q 572 587 619 511 q 401 663 525 663 q 245 584 297 663 q 194 366 194 504 q 245 155 194 229 q 401 80 296 80 m 944 1055 l 944 1044 q 922 980 938 1017 q 887 903 907 942 q 846 833 867 865 l 784 833 l 784 849 q 803 912 793 875 q 821 987 813 949 q 832 1055 829 1025 l 944 1055 z "},"Đ":{"ha":1008,"x_min":39,"x_max":923,"o":"m 435 991 q 695 936 585 991 q 864 773 804 881 q 923 505 923 665 q 787 127 923 254 q 404 0 651 0 l 144 0 l 144 440 l 39 440 l 39 541 l 144 541 l 144 991 l 435 991 m 417 893 l 259 893 l 259 541 l 511 541 l 511 440 l 259 440 l 259 99 l 391 99 q 802 501 802 99 q 702 798 802 702 q 417 893 602 893 z "},"đ":{"ha":852,"x_min":77,"x_max":836,"o":"m 383 -14 q 160 82 242 -14 q 77 366 77 178 q 161 657 77 561 q 385 753 245 753 q 529 720 473 753 q 618 637 585 686 l 626 637 q 620 694 623 658 q 618 755 618 731 l 618 844 l 317 844 l 317 929 l 618 929 l 618 1055 l 730 1055 l 730 929 l 836 929 l 836 844 l 730 844 l 730 0 l 638 0 l 622 106 l 616 106 q 528 21 585 56 q 383 -14 472 -14 m 401 80 q 570 147 521 80 q 618 347 618 214 l 618 368 q 572 585 618 511 q 401 660 525 660 q 246 582 297 660 q 195 366 195 504 q 245 154 195 229 q 401 80 296 80 z "},"Ē":{"ha":772,"x_min":136,"x_max":688,"o":"m 688 0 l 136 0 l 136 991 l 688 991 l 688 890 l 251 890 l 251 569 l 663 569 l 663 469 l 251 469 l 251 102 l 688 102 l 688 0 m 627 1183 l 627 1092 l 221 1092 l 221 1183 l 627 1183 z "},"ē":{"ha":780,"x_min":77,"x_max":707,"o":"m 405 757 q 568 715 500 757 q 671 597 635 673 q 707 420 707 522 l 707 351 l 194 351 q 259 151 196 220 q 437 83 322 83 q 562 96 507 83 q 674 134 616 109 l 674 35 q 563 -2 618 9 q 432 -14 507 -14 q 174 84 271 -14 q 77 366 77 182 q 118 574 77 486 q 232 709 158 662 q 405 757 305 757 m 404 665 q 260 606 313 665 q 196 441 206 547 l 589 441 q 544 603 589 541 q 404 665 498 665 m 598 934 l 598 843 l 192 843 l 192 934 l 598 934 z "},"Ĕ":{"ha":772,"x_min":136,"x_max":688,"o":"m 688 0 l 136 0 l 136 991 l 688 991 l 688 890 l 251 890 l 251 569 l 663 569 l 663 469 l 251 469 l 251 102 l 688 102 l 688 0 m 640 1274 q 578 1141 633 1192 q 426 1090 524 1090 q 275 1140 326 1090 q 218 1274 224 1190 l 289 1274 q 330 1199 295 1217 q 429 1182 365 1182 q 523 1201 485 1182 q 568 1274 562 1219 l 640 1274 z "},"ĕ":{"ha":780,"x_min":77,"x_max":707,"o":"m 405 757 q 568 715 500 757 q 671 597 635 673 q 707 420 707 522 l 707 351 l 194 351 q 259 151 196 220 q 437 83 322 83 q 562 96 507 83 q 674 134 616 109 l 674 35 q 563 -2 618 9 q 432 -14 507 -14 q 174 84 271 -14 q 77 366 77 182 q 118 574 77 486 q 232 709 158 662 q 405 757 305 757 m 404 665 q 260 606 313 665 q 196 441 206 547 l 589 441 q 544 603 589 541 q 404 665 498 665 m 612 1025 q 550 892 605 943 q 397 842 495 842 q 247 891 298 842 q 190 1025 195 941 l 260 1025 q 301 950 267 968 q 400 933 336 933 q 495 952 456 933 q 540 1025 533 970 l 612 1025 z "},"Ė":{"ha":772,"x_min":136,"x_max":688,"o":"m 688 0 l 136 0 l 136 991 l 688 991 l 688 890 l 251 890 l 251 569 l 663 569 l 663 469 l 251 469 l 251 102 l 688 102 l 688 0 m 426 1270 q 474 1252 454 1270 q 494 1196 494 1234 q 474 1141 494 1159 q 426 1122 454 1122 q 377 1141 397 1122 q 358 1196 358 1159 q 377 1252 358 1234 q 426 1270 397 1270 z "},"ė":{"ha":780,"x_min":77,"x_max":707,"o":"m 405 757 q 568 715 500 757 q 671 597 635 673 q 707 420 707 522 l 707 351 l 194 351 q 259 151 196 220 q 437 83 322 83 q 562 96 507 83 q 674 134 616 109 l 674 35 q 563 -2 618 9 q 432 -14 507 -14 q 174 84 271 -14 q 77 366 77 182 q 118 574 77 486 q 232 709 158 662 q 405 757 305 757 m 404 665 q 260 606 313 665 q 196 441 206 547 l 589 441 q 544 603 589 541 q 404 665 498 665 m 397 1021 q 445 1003 425 1021 q 465 947 465 985 q 445 892 465 910 q 397 873 425 873 q 348 892 368 873 q 329 947 329 910 q 348 1003 329 985 q 397 1021 368 1021 z "},"Ę":{"ha":772,"x_min":136,"x_max":688,"o":"m 688 0 l 136 0 l 136 991 l 688 991 l 688 890 l 251 890 l 251 569 l 663 569 l 663 469 l 251 469 l 251 102 l 688 102 l 688 0 m 549 -163 q 614 -229 549 -229 q 653 -225 637 -229 q 681 -220 669 -222 l 681 -293 q 642 -301 662 -298 q 596 -305 623 -305 q 491 -271 525 -305 q 456 -176 456 -237 q 476 -100 456 -137 q 526 -32 496 -63 q 585 20 555 -1 l 648 0 q 575 -81 600 -43 q 549 -163 549 -119 z "},"ę":{"ha":780,"x_min":77,"x_max":707,"o":"m 534 -163 q 599 -229 534 -229 q 638 -225 621 -229 q 665 -220 654 -222 l 665 -293 q 627 -301 646 -298 q 581 -305 608 -305 q 476 -271 510 -305 q 441 -176 441 -237 q 470 -85 441 -129 q 535 -7 498 -41 q 432 -14 489 -14 q 174 84 271 -14 q 77 366 77 182 q 118 574 77 486 q 232 709 158 662 q 405 757 305 757 q 568 715 500 757 q 671 597 635 673 q 707 420 707 522 l 707 351 l 194 351 q 259 151 196 220 q 437 83 322 83 q 562 96 507 83 q 674 134 616 109 l 674 35 q 673 34 673 34 l 673 34 q 563 -75 591 -31 q 534 -163 534 -119 m 404 665 q 260 606 313 665 q 196 441 206 547 l 589 441 q 544 603 589 541 q 404 665 498 665 z "},"Ě":{"ha":772,"x_min":136,"x_max":688,"o":"m 688 0 l 136 0 l 136 991 l 688 991 l 688 890 l 251 890 l 251 569 l 663 569 l 663 469 l 251 469 l 251 102 l 688 102 l 688 0 m 366 1090 q 318 1159 349 1122 q 255 1233 288 1196 q 197 1295 222 1269 l 197 1312 l 274 1312 q 350 1252 311 1287 q 422 1179 389 1217 q 498 1252 459 1217 q 573 1312 536 1287 l 653 1312 l 653 1295 q 593 1233 627 1269 q 528 1159 559 1196 q 481 1090 498 1122 l 366 1090 z "},"ě":{"ha":780,"x_min":77,"x_max":707,"o":"m 405 757 q 568 715 500 757 q 671 597 635 673 q 707 420 707 522 l 707 351 l 194 351 q 259 151 196 220 q 437 83 322 83 q 562 96 507 83 q 674 134 616 109 l 674 35 q 563 -2 618 9 q 432 -14 507 -14 q 174 84 271 -14 q 77 366 77 182 q 118 574 77 486 q 232 709 158 662 q 405 757 305 757 m 404 665 q 260 606 313 665 q 196 441 206 547 l 589 441 q 544 603 589 541 q 404 665 498 665 m 336 842 q 288 910 319 873 q 225 984 258 947 q 167 1046 192 1020 l 167 1063 l 244 1063 q 320 1003 281 1038 q 393 930 359 968 q 468 1003 429 968 q 543 1063 507 1038 l 623 1063 l 623 1046 q 563 984 597 1020 q 498 910 529 947 q 451 842 468 873 l 336 842 z "},"Ĝ":{"ha":1010,"x_min":85,"x_max":906,"o":"m 559 519 l 906 519 l 906 39 q 746 -1 828 12 q 562 -14 663 -14 q 301 48 407 -14 q 140 224 195 110 q 85 496 85 338 q 145 764 85 650 q 321 942 206 879 q 597 1006 436 1006 q 754 990 680 1006 q 892 947 829 975 l 848 847 q 727 888 793 871 q 591 905 661 905 q 383 854 469 905 q 251 713 296 804 q 205 496 205 621 q 245 280 205 372 q 370 137 285 188 q 588 86 454 86 q 703 94 655 86 q 791 113 751 102 l 791 416 l 559 416 l 559 519 m 620 1312 q 667 1243 637 1282 q 732 1168 698 1205 q 792 1105 766 1132 l 792 1090 l 712 1090 q 637 1149 675 1114 q 562 1221 598 1183 q 487 1149 525 1183 q 413 1090 450 1115 l 336 1090 l 336 1105 q 394 1169 361 1133 q 457 1244 427 1206 q 505 1312 488 1282 l 620 1312 z "},"ĝ":{"ha":754,"x_min":21,"x_max":726,"o":"m 326 -334 q 100 -279 180 -334 q 21 -126 21 -224 q 65 -7 21 -56 q 189 59 110 43 q 139 100 159 73 q 118 162 118 127 q 141 234 118 203 q 210 293 163 264 q 116 373 152 317 q 79 505 79 430 q 153 692 79 625 q 361 758 227 758 q 471 745 425 758 l 726 745 l 726 672 l 589 655 q 623 591 610 629 q 637 509 637 554 q 562 332 637 397 q 355 267 486 267 q 291 272 323 267 q 223 180 223 235 q 253 134 223 147 q 335 121 282 121 l 466 121 q 652 70 587 121 q 717 -79 717 19 q 616 -268 717 -202 q 326 -334 516 -334 m 359 349 q 521 508 521 349 q 357 675 521 675 q 238 632 280 675 q 197 506 197 589 q 239 389 197 430 q 359 349 281 349 m 330 -245 q 535 -204 467 -245 q 604 -90 604 -162 q 558 -4 604 -24 q 427 16 513 16 l 298 16 q 178 -19 222 16 q 134 -122 134 -54 q 184 -214 134 -182 q 330 -245 235 -245 m 414 1063 q 462 995 431 1033 q 526 920 492 956 q 587 857 560 883 l 587 842 l 507 842 q 431 900 470 865 q 356 972 393 935 q 282 900 319 935 q 208 842 244 866 l 130 842 l 130 857 q 189 920 156 884 q 252 995 222 957 q 300 1063 282 1033 l 414 1063 z "},"Ğ":{"ha":1010,"x_min":85,"x_max":906,"o":"m 559 519 l 906 519 l 906 39 q 746 -1 828 12 q 562 -14 663 -14 q 301 48 407 -14 q 140 224 195 110 q 85 496 85 338 q 145 764 85 650 q 321 942 206 879 q 597 1006 436 1006 q 754 990 680 1006 q 892 947 829 975 l 848 847 q 727 888 793 871 q 591 905 661 905 q 383 854 469 905 q 251 713 296 804 q 205 496 205 621 q 245 280 205 372 q 370 137 285 188 q 588 86 454 86 q 703 94 655 86 q 791 113 751 102 l 791 416 l 559 416 l 559 519 m 777 1274 q 715 1141 770 1192 q 563 1090 661 1090 q 412 1140 463 1090 q 355 1274 361 1190 l 426 1274 q 467 1199 432 1217 q 566 1182 502 1182 q 660 1201 622 1182 q 705 1274 699 1219 l 777 1274 z "},"ğ":{"ha":754,"x_min":21,"x_max":726,"o":"m 326 -334 q 100 -279 180 -334 q 21 -126 21 -224 q 65 -7 21 -56 q 189 59 110 43 q 139 100 159 73 q 118 162 118 127 q 141 234 118 203 q 210 293 163 264 q 116 373 152 317 q 79 505 79 430 q 153 692 79 625 q 361 758 227 758 q 471 745 425 758 l 726 745 l 726 672 l 589 655 q 623 591 610 629 q 637 509 637 554 q 562 332 637 397 q 355 267 486 267 q 291 272 323 267 q 223 180 223 235 q 253 134 223 147 q 335 121 282 121 l 466 121 q 652 70 587 121 q 717 -79 717 19 q 616 -268 717 -202 q 326 -334 516 -334 m 359 349 q 521 508 521 349 q 357 675 521 675 q 238 632 280 675 q 197 506 197 589 q 239 389 197 430 q 359 349 281 349 m 330 -245 q 535 -204 467 -245 q 604 -90 604 -162 q 558 -4 604 -24 q 427 16 513 16 l 298 16 q 178 -19 222 16 q 134 -122 134 -54 q 184 -214 134 -182 q 330 -245 235 -245 m 569 1025 q 507 892 562 943 q 355 842 452 842 q 204 891 255 842 q 147 1025 153 941 l 218 1025 q 259 950 224 968 q 357 933 294 933 q 452 952 414 933 q 497 1025 490 970 l 569 1025 z "},"Ġ":{"ha":1010,"x_min":85,"x_max":906,"o":"m 559 519 l 906 519 l 906 39 q 746 -1 828 12 q 562 -14 663 -14 q 301 48 407 -14 q 140 224 195 110 q 85 496 85 338 q 145 764 85 650 q 321 942 206 879 q 597 1006 436 1006 q 754 990 680 1006 q 892 947 829 975 l 848 847 q 727 888 793 871 q 591 905 661 905 q 383 854 469 905 q 251 713 296 804 q 205 496 205 621 q 245 280 205 372 q 370 137 285 188 q 588 86 454 86 q 703 94 655 86 q 791 113 751 102 l 791 416 l 559 416 l 559 519 m 564 1270 q 611 1252 591 1270 q 631 1196 631 1234 q 611 1141 631 1159 q 564 1122 591 1122 q 515 1141 534 1122 q 496 1196 496 1159 q 515 1252 496 1234 q 564 1270 534 1270 z "},"ġ":{"ha":754,"x_min":21,"x_max":726,"o":"m 326 -334 q 100 -279 180 -334 q 21 -126 21 -224 q 65 -7 21 -56 q 189 59 110 43 q 139 100 159 73 q 118 162 118 127 q 141 234 118 203 q 210 293 163 264 q 116 373 152 317 q 79 505 79 430 q 153 692 79 625 q 361 758 227 758 q 471 745 425 758 l 726 745 l 726 672 l 589 655 q 623 591 610 629 q 637 509 637 554 q 562 332 637 397 q 355 267 486 267 q 291 272 323 267 q 223 180 223 235 q 253 134 223 147 q 335 121 282 121 l 466 121 q 652 70 587 121 q 717 -79 717 19 q 616 -268 717 -202 q 326 -334 516 -334 m 359 349 q 521 508 521 349 q 357 675 521 675 q 238 632 280 675 q 197 506 197 589 q 239 389 197 430 q 359 349 281 349 m 330 -245 q 535 -204 467 -245 q 604 -90 604 -162 q 558 -4 604 -24 q 427 16 513 16 l 298 16 q 178 -19 222 16 q 134 -122 134 -54 q 184 -214 134 -182 q 330 -245 235 -245 m 359 1021 q 407 1003 387 1021 q 427 947 427 985 q 407 892 427 910 q 359 873 387 873 q 311 892 330 873 q 292 947 292 910 q 311 1003 292 985 q 359 1021 330 1021 z "},"Ģ":{"ha":1010,"x_min":85,"x_max":906,"o":"m 559 519 l 906 519 l 906 39 q 746 -1 828 12 q 562 -14 663 -14 q 301 48 407 -14 q 140 224 195 110 q 85 496 85 338 q 145 764 85 650 q 321 942 206 879 q 597 1006 436 1006 q 754 990 680 1006 q 892 947 829 975 l 848 847 q 727 888 793 871 q 591 905 661 905 q 383 854 469 905 q 251 713 296 804 q 205 496 205 621 q 245 280 205 372 q 370 137 285 188 q 588 86 454 86 q 703 94 655 86 q 791 113 751 102 l 791 416 l 559 416 l 559 519 m 640 -85 l 640 -96 q 617 -161 633 -123 q 579 -238 601 -199 q 532 -307 557 -277 l 471 -307 l 471 -291 q 493 -231 481 -268 q 515 -154 505 -194 q 528 -85 525 -115 l 640 -85 z "},"ģ":{"ha":754,"x_min":21,"x_max":726,"o":"m 452 1063 l 452 1048 q 429 987 441 1025 q 407 910 416 950 q 393 841 397 871 l 281 841 l 281 854 q 304 917 288 880 q 342 994 320 955 q 389 1063 364 1033 l 452 1063 m 326 -334 q 100 -279 180 -334 q 21 -126 21 -224 q 65 -7 21 -56 q 189 59 110 43 q 139 100 159 73 q 118 162 118 127 q 141 234 118 203 q 210 293 163 264 q 116 373 152 317 q 79 505 79 430 q 153 692 79 625 q 361 758 227 758 q 471 745 425 758 l 726 745 l 726 672 l 589 655 q 623 591 610 629 q 637 509 637 554 q 562 332 637 397 q 355 267 486 267 q 291 272 323 267 q 223 180 223 235 q 253 134 223 147 q 335 121 282 121 l 466 121 q 652 70 587 121 q 717 -79 717 19 q 616 -268 717 -202 q 326 -334 516 -334 m 359 349 q 521 508 521 349 q 357 675 521 675 q 238 632 280 675 q 197 506 197 589 q 239 389 197 430 q 359 349 281 349 m 330 -245 q 535 -204 467 -245 q 604 -90 604 -162 q 558 -4 604 -24 q 427 16 513 16 l 298 16 q 178 -19 222 16 q 134 -122 134 -54 q 184 -214 134 -182 q 330 -245 235 -245 z "},"Ĥ":{"ha":1024,"x_min":136,"x_max":887,"o":"m 887 0 l 772 0 l 772 467 l 251 467 l 251 0 l 136 0 l 136 991 l 251 991 l 251 569 l 772 569 l 772 991 l 887 991 l 887 0 m 572 1312 q 619 1243 589 1282 q 684 1168 650 1205 q 744 1105 718 1132 l 744 1090 l 664 1090 q 589 1149 627 1114 q 513 1221 550 1183 q 439 1149 477 1183 q 365 1090 401 1115 l 288 1090 l 288 1105 q 346 1169 313 1133 q 409 1244 379 1206 q 457 1312 439 1282 l 572 1312 z "},"ĥ":{"ha":852,"x_min":-50,"x_max":739,"o":"m 231 1055 l 231 740 q 225 635 231 681 l 233 635 q 329 724 267 693 q 469 755 392 755 q 670 691 602 755 q 739 484 739 626 l 739 0 l 627 0 l 627 477 q 455 662 627 662 q 281 591 330 662 q 231 389 231 521 l 231 0 l 119 0 l 119 1055 l 231 1055 m 235 1376 q 282 1307 252 1345 q 347 1232 313 1269 q 407 1169 380 1196 l 407 1154 l 327 1154 q 252 1213 290 1178 q 176 1284 213 1247 q 102 1213 140 1247 q 28 1154 64 1179 l -50 1154 l -50 1169 q 9 1233 -24 1196 q 72 1308 42 1270 q 120 1376 102 1345 l 235 1376 z "},"Ħ":{"ha":1024,"x_min":0,"x_max":1023,"o":"m 136 0 l 136 730 l 0 730 l 0 823 l 136 823 l 136 991 l 251 991 l 251 823 l 772 823 l 772 991 l 887 991 l 887 823 l 1023 823 l 1023 730 l 887 730 l 887 0 l 772 0 l 772 467 l 251 467 l 251 0 l 136 0 m 251 569 l 772 569 l 772 730 l 251 730 l 251 569 z "},"ħ":{"ha":852,"x_min":14,"x_max":739,"o":"m 231 1055 l 231 928 l 530 928 l 530 843 l 231 843 l 231 715 q 225 611 231 657 l 233 611 q 329 701 267 669 q 470 732 392 732 q 671 667 603 732 q 739 460 739 602 l 739 0 l 627 0 l 627 452 q 455 637 627 637 q 281 567 330 637 q 231 365 231 497 l 231 0 l 119 0 l 119 843 l 14 843 l 14 928 l 119 928 l 119 1055 l 231 1055 z "},"Ĩ":{"ha":388,"x_min":-56,"x_max":448,"o":"m 136 0 l 136 991 l 251 991 l 251 0 l 136 0 m -56 1093 q -10 1219 -49 1173 q 93 1265 29 1265 q 171 1245 135 1265 q 240 1204 208 1225 q 303 1183 273 1183 q 354 1203 336 1183 q 381 1267 372 1223 l 448 1267 q 401 1140 439 1187 q 298 1093 363 1093 q 223 1114 259 1093 q 153 1155 186 1135 q 88 1175 120 1175 q 37 1155 55 1175 q 10 1093 20 1135 l -56 1093 z "},"ĩ":{"ha":351,"x_min":-81,"x_max":423,"o":"m 231 0 l 119 0 l 119 743 l 231 743 l 231 0 m -81 844 q -34 970 -73 924 q 68 1017 5 1017 q 147 996 111 1017 q 216 955 183 976 q 279 935 249 935 q 329 955 311 935 q 357 1018 347 975 l 423 1018 q 376 891 414 939 q 274 844 338 844 q 198 865 235 844 q 129 906 162 886 q 64 926 96 926 q 13 906 31 926 q -14 844 -5 886 l -81 844 z "},"Ī":{"ha":388,"x_min":-9,"x_max":397,"o":"m 136 0 l 136 991 l 251 991 l 251 0 l 136 0 m 397 1183 l 397 1092 l -9 1092 l -9 1183 l 397 1183 z "},"ī":{"ha":351,"x_min":-28,"x_max":378,"o":"m 231 0 l 119 0 l 119 743 l 231 743 l 231 0 m 378 934 l 378 843 l -28 843 l -28 934 l 378 934 z "},"Ĭ":{"ha":388,"x_min":-17,"x_max":405,"o":"m 136 0 l 136 991 l 251 991 l 251 0 l 136 0 m 405 1274 q 343 1141 398 1192 q 191 1090 288 1090 q 40 1140 91 1090 q -17 1274 -12 1190 l 54 1274 q 95 1199 60 1217 q 193 1182 130 1182 q 288 1201 250 1182 q 333 1274 326 1219 l 405 1274 z "},"ĭ":{"ha":351,"x_min":-31,"x_max":391,"o":"m 231 0 l 119 0 l 119 743 l 231 743 l 231 0 m 391 1025 q 330 892 385 943 q 177 842 275 842 q 26 891 77 842 q -31 1025 -25 941 l 40 1025 q 81 950 46 968 q 180 933 116 933 q 274 952 236 933 q 319 1025 313 970 l 391 1025 z "},"Į":{"ha":388,"x_min":60,"x_max":284,"o":"m 136 0 l 136 991 l 251 991 l 251 0 l 136 0 m 153 -163 q 218 -229 153 -229 q 256 -225 240 -229 q 284 -220 273 -222 l 284 -293 q 245 -301 265 -298 q 199 -305 226 -305 q 94 -271 128 -305 q 60 -176 60 -237 q 79 -100 60 -137 q 129 -32 99 -63 q 189 20 159 -1 l 251 0 q 178 -81 203 -43 q 153 -163 153 -119 z "},"į":{"ha":351,"x_min":33,"x_max":258,"o":"m 176 1021 q 224 1003 204 1021 q 244 947 244 985 q 224 892 244 910 q 176 873 204 873 q 128 892 147 873 q 109 947 109 910 q 128 1003 109 985 q 176 1021 147 1021 m 231 743 l 231 0 l 119 0 l 119 743 l 231 743 m 126 -163 q 191 -229 126 -229 q 230 -225 214 -229 q 258 -220 246 -222 l 258 -293 q 219 -301 239 -298 q 173 -305 199 -305 q 67 -271 102 -305 q 33 -176 33 -237 q 53 -100 33 -137 q 102 -32 73 -63 q 162 20 132 -1 l 224 0 q 152 -81 177 -43 q 126 -163 126 -119 z "},"İ":{"ha":388,"x_min":128,"x_max":264,"o":"m 136 0 l 136 991 l 251 991 l 251 0 l 136 0 m 196 1270 q 244 1252 224 1270 q 264 1196 264 1234 q 244 1141 264 1159 q 196 1122 224 1122 q 148 1141 167 1122 q 128 1196 128 1159 q 148 1252 128 1234 q 196 1270 167 1270 z "},"Ĳ":{"ha":761,"x_min":136,"x_max":633,"o":"m 136 0 l 136 991 l 251 991 l 251 0 l 136 0 m 380 -261 q 321 -256 347 -261 q 277 -243 295 -252 l 277 -145 q 323 -156 298 -152 q 378 -159 349 -159 q 476 -124 435 -159 q 517 5 517 -89 l 517 991 l 633 991 l 633 14 q 565 -193 633 -125 q 380 -261 497 -261 z "},"ĳ":{"ha":701,"x_min":109,"x_max":595,"o":"m 176 1021 q 224 1003 204 1021 q 244 947 244 985 q 224 892 244 910 q 176 873 204 873 q 128 892 147 873 q 109 947 109 910 q 128 1003 109 985 q 176 1021 147 1021 m 231 743 l 231 0 l 119 0 l 119 743 l 231 743 m 459 947 q 478 1003 459 985 q 527 1021 498 1021 q 575 1003 555 1021 q 595 947 595 985 q 575 892 595 910 q 527 873 555 873 q 478 892 498 873 q 459 947 459 910 m 380 -334 q 319 -329 345 -334 q 275 -317 294 -323 l 275 -225 q 317 -236 296 -232 q 366 -239 339 -239 q 441 -214 412 -239 q 469 -120 469 -188 l 469 743 l 582 743 l 582 -117 q 533 -277 582 -220 q 380 -334 484 -334 z "},"Ĵ":{"ha":373,"x_min":-111,"x_max":418,"o":"m -7 -261 q -67 -256 -41 -261 q -111 -243 -93 -252 l -111 -145 q -64 -156 -90 -152 q -10 -159 -39 -159 q 88 -124 47 -159 q 130 5 130 -89 l 130 991 l 245 991 l 245 14 q 177 -193 245 -125 q -7 -261 109 -261 m 246 1312 q 294 1243 263 1282 q 358 1168 324 1205 q 418 1105 392 1132 l 418 1090 l 338 1090 q 263 1149 302 1114 q 188 1221 224 1183 q 114 1149 151 1183 q 39 1090 76 1115 l -38 1090 l -38 1105 q 21 1169 -12 1133 q 84 1244 54 1206 q 132 1312 114 1282 l 246 1312 z "},"ĵ":{"ha":351,"x_min":-76,"x_max":406,"o":"m 29 -334 q -31 -329 -5 -334 q -76 -317 -57 -323 l -76 -225 q -33 -236 -55 -232 q 16 -239 -12 -239 q 90 -214 62 -239 q 119 -120 119 -188 l 119 743 l 231 743 l 231 -117 q 182 -277 231 -220 q 29 -334 133 -334 m 233 1063 q 281 995 250 1033 q 345 920 311 956 q 406 857 379 883 l 406 842 l 326 842 q 250 900 289 865 q 175 972 212 935 q 101 900 138 935 q 26 842 63 866 l -51 842 l -51 857 q 8 920 -25 884 q 71 995 41 957 q 119 1063 101 1033 l 233 1063 z "},"Ķ":{"ha":850,"x_min":136,"x_max":850,"o":"m 850 0 l 714 0 l 357 482 l 251 387 l 251 0 l 136 0 l 136 991 l 251 991 l 251 497 q 330 585 290 541 q 411 673 371 629 l 701 991 l 836 991 l 441 562 l 850 0 m 538 -85 l 538 -96 q 515 -161 531 -123 q 476 -238 498 -199 q 430 -307 454 -277 l 368 -307 l 368 -291 q 390 -231 378 -268 q 412 -154 402 -194 q 426 -85 422 -115 l 538 -85 z "},"ķ":{"ha":730,"x_min":119,"x_max":719,"o":"m 231 1055 l 231 507 q 229 441 231 480 q 225 372 227 402 l 230 372 q 272 425 244 390 q 318 480 299 459 l 565 743 l 697 743 l 398 426 l 719 0 l 583 0 l 321 352 l 231 269 l 231 0 l 119 0 l 119 1055 l 231 1055 m 451 -85 l 451 -96 q 428 -161 444 -123 q 390 -238 412 -199 q 343 -307 368 -277 l 281 -307 l 281 -291 q 303 -231 292 -268 q 326 -154 315 -194 q 339 -85 336 -115 l 451 -85 z "},"ĸ":{"ha":730,"x_min":119,"x_max":719,"o":"m 696 743 l 414 415 l 719 0 l 585 0 l 335 342 l 238 258 l 238 0 l 119 0 l 119 743 l 238 743 l 238 549 q 236 440 238 494 q 230 354 233 386 l 233 354 q 261 391 246 372 q 290 427 277 410 l 559 743 l 696 743 z "},"Ĺ":{"ha":725,"x_min":113,"x_max":691,"o":"m 136 0 l 136 991 l 251 991 l 251 103 l 691 103 l 691 0 l 136 0 m 388 1313 l 388 1299 q 335 1234 370 1274 q 261 1156 300 1195 q 189 1090 222 1116 l 113 1090 l 113 1107 q 161 1169 135 1133 q 211 1243 186 1205 q 252 1313 235 1282 l 388 1313 z "},"ĺ":{"ha":351,"x_min":97,"x_max":372,"o":"m 232 0 l 119 0 l 119 1055 l 232 1055 l 232 0 m 372 1377 l 372 1363 q 319 1298 353 1337 q 245 1219 284 1259 q 172 1154 205 1180 l 97 1154 l 97 1171 q 144 1233 119 1196 q 195 1307 170 1269 q 235 1377 219 1345 l 372 1377 z "},"Ļ":{"ha":725,"x_min":136,"x_max":691,"o":"m 136 0 l 136 991 l 251 991 l 251 103 l 691 103 l 691 0 l 136 0 m 498 -85 l 498 -96 q 475 -161 491 -123 q 436 -238 458 -199 q 390 -307 414 -277 l 328 -307 l 328 -291 q 350 -231 338 -268 q 372 -154 362 -194 q 386 -85 382 -115 l 498 -85 z "},"ļ":{"ha":351,"x_min":89,"x_max":258,"o":"m 232 0 l 119 0 l 119 1055 l 232 1055 l 232 0 m 258 -85 l 258 -96 q 235 -161 252 -123 q 197 -238 219 -199 q 151 -307 175 -277 l 89 -307 l 89 -291 q 111 -231 99 -268 q 133 -154 123 -194 q 146 -85 143 -115 l 258 -85 z "},"Ľ":{"ha":725,"x_min":136,"x_max":691,"o":"m 136 0 l 136 991 l 251 991 l 251 103 l 691 103 l 691 0 l 136 0 m 689 991 l 689 980 q 667 916 683 954 q 632 840 652 878 q 591 770 612 801 l 529 770 l 529 785 q 548 848 538 811 q 566 923 558 885 q 577 991 574 962 l 689 991 z "},"ľ":{"ha":351,"x_min":119,"x_max":451,"o":"m 232 0 l 119 0 l 119 1055 l 232 1055 l 232 0 m 451 1055 l 451 1044 q 429 980 445 1017 q 394 903 414 942 q 353 833 374 865 l 291 833 l 291 849 q 310 912 300 875 q 328 987 320 949 q 339 1055 336 1025 l 451 1055 z "},"Ŀ":{"ha":725,"x_min":136,"x_max":691,"o":"m 136 0 l 136 991 l 251 991 l 251 103 l 691 103 l 691 0 l 136 0 m 528 575 q 575 557 555 575 q 595 501 595 539 q 575 446 595 464 q 528 427 555 427 q 479 446 498 427 q 460 501 460 464 q 479 557 460 539 q 528 575 498 575 z "},"ŀ":{"ha":363,"x_min":119,"x_max":425,"o":"m 232 0 l 119 0 l 119 1055 l 232 1055 l 232 0 m 357 602 q 405 584 385 602 q 425 528 425 566 q 405 473 425 491 q 357 454 385 454 q 308 473 328 454 q 289 528 289 491 q 308 584 289 566 q 357 602 328 602 z "},"Ł":{"ha":725,"x_min":18,"x_max":691,"o":"m 136 0 l 136 349 l 63 307 l 18 383 l 136 455 l 136 991 l 251 991 l 251 523 l 447 640 l 493 558 l 251 416 l 251 103 l 691 103 l 691 0 l 136 0 z "},"ł":{"ha":351,"x_min":-9,"x_max":363,"o":"m 111 0 l 111 404 l 37 357 l -9 433 l 111 511 l 111 1055 l 224 1055 l 224 584 l 315 647 l 363 571 l 224 477 l 224 0 l 111 0 z "},"Ń":{"ha":1046,"x_min":136,"x_max":911,"o":"m 911 0 l 778 0 l 237 833 l 232 833 q 239 713 235 783 q 243 570 243 644 l 243 0 l 136 0 l 136 991 l 268 991 l 806 161 l 811 161 q 808 229 810 185 q 804 323 806 273 q 802 417 802 374 l 802 991 l 911 991 l 911 0 m 720 1313 l 720 1299 q 667 1234 701 1274 q 593 1156 632 1195 q 520 1090 553 1116 l 445 1090 l 445 1107 q 492 1169 467 1133 q 543 1243 518 1205 q 583 1313 567 1282 l 720 1313 z "},"ń":{"ha":852,"x_min":119,"x_max":739,"o":"m 471 757 q 671 692 603 757 q 739 484 739 627 l 739 0 l 627 0 l 627 477 q 455 662 627 662 q 281 592 332 662 q 231 389 231 522 l 231 0 l 119 0 l 119 743 l 210 743 l 227 636 l 233 636 q 332 726 269 695 q 471 757 395 757 m 625 1064 l 625 1050 q 572 985 606 1025 q 498 907 537 946 q 425 842 458 867 l 350 842 l 350 858 q 397 920 372 884 q 448 995 423 956 q 488 1064 472 1033 l 625 1064 z "},"Ņ":{"ha":1046,"x_min":136,"x_max":911,"o":"m 911 0 l 778 0 l 237 833 l 232 833 q 239 713 235 783 q 243 570 243 644 l 243 0 l 136 0 l 136 991 l 268 991 l 806 161 l 811 161 q 808 229 810 185 q 804 323 806 273 q 802 417 802 374 l 802 991 l 911 991 l 911 0 m 606 -85 l 606 -96 q 583 -161 600 -123 q 545 -238 567 -199 q 498 -307 523 -277 l 437 -307 l 437 -291 q 459 -231 447 -268 q 481 -154 471 -194 q 494 -85 491 -115 l 606 -85 z "},"ņ":{"ha":852,"x_min":119,"x_max":739,"o":"m 471 757 q 671 692 603 757 q 739 484 739 627 l 739 0 l 627 0 l 627 477 q 455 662 627 662 q 281 592 332 662 q 231 389 231 522 l 231 0 l 119 0 l 119 743 l 210 743 l 227 636 l 233 636 q 332 726 269 695 q 471 757 395 757 m 509 -85 l 509 -96 q 486 -161 503 -123 q 448 -238 470 -199 q 401 -307 426 -277 l 340 -307 l 340 -291 q 362 -231 350 -268 q 384 -154 374 -194 q 397 -85 394 -115 l 509 -85 z "},"Ň":{"ha":1046,"x_min":136,"x_max":911,"o":"m 911 0 l 778 0 l 237 833 l 232 833 q 239 713 235 783 q 243 570 243 644 l 243 0 l 136 0 l 136 991 l 268 991 l 806 161 l 811 161 q 808 229 810 185 q 804 323 806 273 q 802 417 802 374 l 802 991 l 911 991 l 911 0 m 465 1090 q 416 1159 447 1122 q 353 1233 386 1196 q 295 1295 320 1269 l 295 1312 l 372 1312 q 448 1252 409 1287 q 521 1179 487 1217 q 596 1252 557 1217 q 671 1312 635 1287 l 751 1312 l 751 1295 q 691 1233 725 1269 q 627 1159 657 1196 q 579 1090 596 1122 l 465 1090 z "},"ň":{"ha":852,"x_min":119,"x_max":739,"o":"m 471 757 q 671 692 603 757 q 739 484 739 627 l 739 0 l 627 0 l 627 477 q 455 662 627 662 q 281 592 332 662 q 231 389 231 522 l 231 0 l 119 0 l 119 743 l 210 743 l 227 636 l 233 636 q 332 726 269 695 q 471 757 395 757 m 370 842 q 321 910 352 873 q 258 984 291 947 q 200 1046 225 1020 l 200 1063 l 277 1063 q 353 1003 314 1038 q 426 930 392 968 q 501 1003 463 968 q 576 1063 540 1038 l 656 1063 l 656 1046 q 596 984 630 1020 q 532 910 562 947 q 484 842 501 873 l 370 842 z "},"ŉ":{"ha":939,"x_min":1,"x_max":826,"o":"m 558 757 q 758 692 690 757 q 826 484 826 627 l 826 0 l 715 0 l 715 477 q 543 662 715 662 q 369 592 419 662 q 319 389 319 522 l 319 0 l 206 0 l 206 743 l 297 743 l 314 636 l 320 636 q 419 726 356 695 q 558 757 483 757 m 191 991 l 201 977 q 150 814 183 903 q 84 652 117 726 l 1 652 q 29 764 16 703 q 54 884 43 824 q 73 991 66 943 l 191 991 z "},"Ŋ":{"ha":1046,"x_min":136,"x_max":911,"o":"m 655 -261 q 549 -243 589 -261 l 549 -146 q 597 -156 570 -152 q 655 -159 625 -159 q 726 -145 693 -159 q 781 -96 760 -131 q 802 1 802 -60 l 237 833 l 232 833 q 237 758 234 805 q 241 658 239 711 q 243 555 243 604 l 243 0 l 136 0 l 136 991 l 268 991 l 806 185 l 811 185 q 805 306 808 231 q 802 455 802 381 l 802 991 l 911 991 l 911 7 q 842 -195 911 -130 q 655 -261 773 -261 z "},"ŋ":{"ha":852,"x_min":119,"x_max":740,"o":"m 546 -334 q 490 -329 513 -334 q 449 -317 467 -323 l 449 -225 q 487 -236 467 -232 q 532 -239 507 -239 q 601 -214 574 -239 q 627 -120 627 -188 l 627 478 q 456 662 627 662 q 282 592 333 662 q 231 391 231 523 l 231 0 l 119 0 l 119 743 l 210 743 l 228 636 l 234 636 q 331 726 269 695 q 470 757 393 757 q 672 692 605 757 q 740 486 740 627 l 740 -117 q 692 -277 740 -220 q 546 -334 644 -334 z "},"Ō":{"ha":1080,"x_min":85,"x_max":996,"o":"m 996 497 q 944 229 996 344 q 791 51 892 115 q 541 -14 690 -14 q 286 51 387 -14 q 135 230 184 115 q 85 498 85 345 q 135 765 85 650 q 287 943 185 880 q 543 1007 389 1007 q 791 944 690 1007 q 944 767 892 881 q 996 497 996 652 m 206 497 q 288 197 206 308 q 541 86 370 86 q 794 197 713 86 q 874 497 874 307 q 794 797 874 689 q 543 905 713 905 q 288 796 370 905 q 206 497 206 687 m 743 1183 l 743 1092 l 337 1092 l 337 1183 l 743 1183 z "},"ō":{"ha":836,"x_min":77,"x_max":760,"o":"m 760 373 q 668 88 760 190 q 416 -14 576 -14 q 240 32 317 -14 q 120 164 163 78 q 77 373 77 251 q 169 656 77 556 q 420 757 261 757 q 598 711 522 757 q 717 580 675 666 q 760 373 760 494 m 194 373 q 248 159 194 238 q 418 80 302 80 q 589 159 534 80 q 643 373 643 239 q 589 584 643 507 q 418 662 535 662 q 248 585 302 662 q 194 373 194 509 m 621 934 l 621 843 l 214 843 l 214 934 l 621 934 z "},"Ŏ":{"ha":1080,"x_min":85,"x_max":996,"o":"m 996 497 q 944 229 996 344 q 791 51 892 115 q 541 -14 690 -14 q 286 51 387 -14 q 135 230 184 115 q 85 498 85 345 q 135 765 85 650 q 287 943 185 880 q 543 1007 389 1007 q 791 944 690 1007 q 944 767 892 881 q 996 497 996 652 m 206 497 q 288 197 206 308 q 541 86 370 86 q 794 197 713 86 q 874 497 874 307 q 794 797 874 689 q 543 905 713 905 q 288 796 370 905 q 206 497 206 687 m 757 1274 q 695 1141 750 1192 q 543 1090 640 1090 q 392 1140 443 1090 q 335 1274 340 1190 l 406 1274 q 447 1199 412 1217 q 545 1182 481 1182 q 640 1201 602 1182 q 685 1274 678 1219 l 757 1274 z "},"ŏ":{"ha":836,"x_min":77,"x_max":760,"o":"m 760 373 q 668 88 760 190 q 416 -14 576 -14 q 240 32 317 -14 q 120 164 163 78 q 77 373 77 251 q 169 656 77 556 q 420 757 261 757 q 598 711 522 757 q 717 580 675 666 q 760 373 760 494 m 194 373 q 248 159 194 238 q 418 80 302 80 q 589 159 534 80 q 643 373 643 239 q 589 584 643 507 q 418 662 535 662 q 248 585 302 662 q 194 373 194 509 m 634 1025 q 572 892 627 943 q 420 842 517 842 q 269 891 320 842 q 212 1025 218 941 l 283 1025 q 324 950 289 968 q 422 933 359 933 q 517 952 479 933 q 562 1025 555 970 l 634 1025 z "},"Ő":{"ha":1080,"x_min":85,"x_max":996,"o":"m 996 497 q 944 229 996 344 q 791 51 892 115 q 541 -14 690 -14 q 286 51 387 -14 q 135 230 184 115 q 85 498 85 345 q 135 765 85 650 q 287 943 185 880 q 543 1007 389 1007 q 791 944 690 1007 q 944 767 892 881 q 996 497 996 652 m 206 497 q 288 197 206 308 q 541 86 370 86 q 794 197 713 86 q 874 497 874 307 q 794 797 874 689 q 543 905 713 905 q 288 796 370 905 q 206 497 206 687 m 861 1313 l 861 1299 q 815 1235 846 1274 q 747 1156 783 1196 q 679 1090 710 1116 l 614 1090 l 614 1107 q 657 1170 634 1133 q 702 1244 680 1206 q 738 1313 724 1282 l 861 1313 m 619 1313 l 619 1299 q 573 1235 604 1274 q 505 1156 541 1196 q 437 1090 468 1116 l 372 1090 l 372 1107 q 415 1170 392 1133 q 459 1244 437 1206 q 496 1313 481 1282 l 619 1313 z "},"ő":{"ha":836,"x_min":77,"x_max":760,"o":"m 760 373 q 668 88 760 190 q 416 -14 576 -14 q 240 32 317 -14 q 120 164 163 78 q 77 373 77 251 q 169 656 77 556 q 420 757 261 757 q 598 711 522 757 q 717 580 675 666 q 760 373 760 494 m 194 373 q 248 159 194 238 q 418 80 302 80 q 589 159 534 80 q 643 373 643 239 q 589 584 643 507 q 418 662 535 662 q 248 585 302 662 q 194 373 194 509 m 739 1064 l 739 1050 q 692 986 724 1025 q 624 907 661 947 q 556 842 587 867 l 491 842 l 491 858 q 534 921 511 884 q 579 995 557 957 q 615 1064 601 1033 l 739 1064 m 496 1064 l 496 1050 q 450 986 481 1025 q 382 907 418 947 q 314 842 345 867 l 249 842 l 249 858 q 292 921 269 884 q 336 995 315 957 q 373 1064 358 1033 l 496 1064 z "},"Œ":{"ha":1284,"x_min":85,"x_max":1201,"o":"m 535 1006 q 667 991 606 1006 l 1201 991 l 1201 890 l 791 890 l 791 569 l 1175 569 l 1175 469 l 791 469 l 791 102 l 1201 102 l 1201 0 l 673 0 q 610 -9 643 -5 q 541 -12 576 -12 q 286 52 387 -12 q 135 230 184 115 q 85 498 85 345 q 135 766 85 652 q 284 943 184 880 q 535 1006 385 1006 m 545 904 q 288 795 371 904 q 205 497 205 687 q 287 197 205 307 q 543 87 370 87 q 677 109 619 87 l 677 884 q 545 904 624 904 z "},"œ":{"ha":1317,"x_min":76,"x_max":1244,"o":"m 945 755 q 1165 664 1086 755 q 1244 420 1244 572 l 1244 351 l 743 351 q 805 148 746 214 q 976 83 865 83 q 1102 96 1048 83 q 1211 134 1155 109 l 1211 35 q 1101 -2 1155 9 q 975 -14 1048 -14 q 688 150 772 -14 q 410 -14 605 -14 q 236 32 311 -14 q 118 164 161 77 q 76 373 76 250 q 166 655 76 555 q 414 755 256 755 q 576 713 506 755 q 685 593 646 671 q 790 713 724 670 q 945 755 857 755 m 945 663 q 806 607 858 663 q 746 441 755 550 l 1124 441 q 1081 603 1124 542 q 945 663 1038 663 m 409 662 q 245 588 296 662 q 194 373 194 515 q 245 155 194 231 q 411 80 297 80 q 575 154 524 80 q 627 368 627 228 q 574 587 627 513 q 409 662 522 662 z "},"Ŕ":{"ha":857,"x_min":136,"x_max":834,"o":"m 404 991 q 675 923 587 991 q 764 712 764 855 q 735 581 764 633 q 661 496 707 528 q 562 446 614 463 l 834 0 l 700 0 l 457 414 l 251 414 l 251 0 l 136 0 l 136 991 l 404 991 m 397 892 l 251 892 l 251 511 l 408 511 q 587 561 530 511 q 644 707 644 610 q 584 850 644 808 q 397 892 523 892 m 628 1313 l 628 1299 q 575 1234 610 1274 q 501 1156 541 1195 q 429 1090 462 1116 l 353 1090 l 353 1107 q 401 1169 375 1133 q 451 1243 427 1205 q 492 1313 475 1282 l 628 1313 z "},"ŕ":{"ha":568,"x_min":119,"x_max":547,"o":"m 456 757 q 547 748 505 757 l 532 644 q 450 654 492 654 q 340 622 390 654 q 261 533 291 591 q 232 399 232 476 l 232 0 l 119 0 l 119 743 l 212 743 l 224 606 l 229 606 q 320 713 263 669 q 456 757 377 757 m 526 1064 l 526 1050 q 473 985 508 1025 q 399 907 439 946 q 327 842 360 867 l 252 842 l 252 858 q 299 920 273 884 q 349 995 325 956 q 390 1064 374 1033 l 526 1064 z "},"Ŗ":{"ha":857,"x_min":136,"x_max":834,"o":"m 404 991 q 675 923 587 991 q 764 712 764 855 q 735 581 764 633 q 661 496 707 528 q 562 446 614 463 l 834 0 l 700 0 l 457 414 l 251 414 l 251 0 l 136 0 l 136 991 l 404 991 m 397 892 l 251 892 l 251 511 l 408 511 q 587 561 530 511 q 644 707 644 610 q 584 850 644 808 q 397 892 523 892 m 535 -85 l 535 -96 q 512 -161 528 -123 q 474 -238 496 -199 q 427 -307 452 -277 l 366 -307 l 366 -291 q 388 -231 376 -268 q 410 -154 399 -194 q 423 -85 420 -115 l 535 -85 z "},"ŗ":{"ha":568,"x_min":85,"x_max":547,"o":"m 456 757 q 547 748 505 757 l 532 644 q 450 654 492 654 q 340 622 390 654 q 261 533 291 591 q 232 399 232 476 l 232 0 l 119 0 l 119 743 l 212 743 l 224 606 l 229 606 q 320 713 263 669 q 456 757 377 757 m 254 -85 l 254 -96 q 231 -161 248 -123 q 193 -238 215 -199 q 146 -307 171 -277 l 85 -307 l 85 -291 q 107 -231 95 -268 q 129 -154 119 -194 q 142 -85 139 -115 l 254 -85 z "},"Ř":{"ha":857,"x_min":136,"x_max":834,"o":"m 404 991 q 675 923 587 991 q 764 712 764 855 q 735 581 764 633 q 661 496 707 528 q 562 446 614 463 l 834 0 l 700 0 l 457 414 l 251 414 l 251 0 l 136 0 l 136 991 l 404 991 m 397 892 l 251 892 l 251 511 l 408 511 q 587 561 530 511 q 644 707 644 610 q 584 850 644 808 q 397 892 523 892 m 373 1090 q 325 1159 355 1122 q 261 1233 294 1196 q 203 1295 229 1269 l 203 1312 l 281 1312 q 356 1252 317 1287 q 429 1179 395 1217 q 505 1252 466 1217 q 580 1312 543 1287 l 660 1312 l 660 1295 q 600 1233 633 1269 q 535 1159 566 1196 q 488 1090 505 1122 l 373 1090 z "},"ř":{"ha":568,"x_min":101,"x_max":557,"o":"m 456 757 q 547 748 505 757 l 532 644 q 450 654 492 654 q 340 622 390 654 q 261 533 291 591 q 232 399 232 476 l 232 0 l 119 0 l 119 743 l 212 743 l 224 606 l 229 606 q 320 713 263 669 q 456 757 377 757 m 271 842 q 222 910 253 873 q 159 984 192 947 q 101 1046 126 1020 l 101 1063 l 178 1063 q 254 1003 215 1038 q 327 930 293 968 q 402 1003 363 968 q 477 1063 441 1038 l 557 1063 l 557 1046 q 497 984 531 1020 q 433 910 463 947 q 385 842 402 873 l 271 842 z "},"Ś":{"ha":762,"x_min":71,"x_max":695,"o":"m 695 264 q 599 59 695 131 q 344 -14 503 -14 q 189 -1 259 -14 q 71 33 119 11 l 71 143 q 195 104 122 122 q 349 86 269 86 q 520 131 460 86 q 580 254 580 175 q 557 339 580 305 q 483 402 535 374 q 342 462 431 430 q 150 572 216 507 q 84 753 84 637 q 124 889 84 832 q 236 976 165 945 q 401 1006 308 1006 q 548 991 480 1006 q 671 951 615 976 l 635 852 q 522 889 582 874 q 398 904 462 904 q 252 863 303 904 q 201 752 201 822 q 223 665 201 700 q 293 604 245 631 q 422 548 342 577 q 570 480 509 516 q 663 394 631 445 q 695 264 695 342 m 592 1313 l 592 1299 q 539 1234 574 1274 q 465 1156 505 1195 q 393 1090 426 1116 l 317 1090 l 317 1107 q 365 1169 339 1133 q 415 1243 391 1205 q 456 1313 439 1282 l 592 1313 z "},"ś":{"ha":662,"x_min":70,"x_max":600,"o":"m 600 203 q 520 42 600 97 q 304 -14 441 -14 q 170 -1 227 -14 q 70 33 113 11 l 70 137 q 178 96 115 115 q 307 78 241 78 q 447 109 404 78 q 490 194 490 140 q 450 271 490 240 q 302 342 410 302 q 179 396 231 369 q 99 461 127 422 q 71 562 71 500 q 148 706 71 656 q 348 757 224 757 q 474 744 415 757 q 583 708 532 730 l 545 618 q 447 651 499 637 q 340 665 395 665 q 221 639 262 665 q 179 568 179 613 q 198 511 179 534 q 260 469 218 489 q 373 423 303 450 q 494 370 443 397 q 572 303 545 342 q 600 203 600 264 m 528 1064 l 528 1050 q 475 985 510 1025 q 401 907 441 946 q 329 842 362 867 l 254 842 l 254 858 q 301 920 275 884 q 351 995 327 956 q 392 1064 376 1033 l 528 1064 z "},"Ŝ":{"ha":762,"x_min":71,"x_max":695,"o":"m 695 264 q 599 59 695 131 q 344 -14 503 -14 q 189 -1 259 -14 q 71 33 119 11 l 71 143 q 195 104 122 122 q 349 86 269 86 q 520 131 460 86 q 580 254 580 175 q 557 339 580 305 q 483 402 535 374 q 342 462 431 430 q 150 572 216 507 q 84 753 84 637 q 124 889 84 832 q 236 976 165 945 q 401 1006 308 1006 q 548 991 480 1006 q 671 951 615 976 l 635 852 q 522 889 582 874 q 398 904 462 904 q 252 863 303 904 q 201 752 201 822 q 223 665 201 700 q 293 604 245 631 q 422 548 342 577 q 570 480 509 516 q 663 394 631 445 q 695 264 695 342 m 454 1312 q 502 1243 471 1282 q 566 1168 532 1205 q 627 1105 600 1132 l 627 1090 l 547 1090 q 471 1149 510 1114 q 396 1221 433 1183 q 322 1149 359 1183 q 248 1090 284 1115 l 170 1090 l 170 1105 q 229 1169 196 1133 q 292 1244 262 1206 q 340 1312 322 1282 l 454 1312 z "},"ŝ":{"ha":662,"x_min":70,"x_max":600,"o":"m 600 203 q 520 42 600 97 q 304 -14 441 -14 q 170 -1 227 -14 q 70 33 113 11 l 70 137 q 178 96 115 115 q 307 78 241 78 q 447 109 404 78 q 490 194 490 140 q 450 271 490 240 q 302 342 410 302 q 179 396 231 369 q 99 461 127 422 q 71 562 71 500 q 148 706 71 656 q 348 757 224 757 q 474 744 415 757 q 583 708 532 730 l 545 618 q 447 651 499 637 q 340 665 395 665 q 221 639 262 665 q 179 568 179 613 q 198 511 179 534 q 260 469 218 489 q 373 423 303 450 q 494 370 443 397 q 572 303 545 342 q 600 203 600 264 m 390 1063 q 437 995 407 1033 q 502 920 468 956 q 562 857 536 883 l 562 842 l 482 842 q 407 900 446 865 q 332 972 368 935 q 257 900 295 935 q 183 842 220 866 l 106 842 l 106 857 q 164 920 132 884 q 228 995 197 957 q 275 1063 258 1033 l 390 1063 z "},"Ş":{"ha":762,"x_min":71,"x_max":695,"o":"m 695 264 q 599 59 695 131 q 344 -14 503 -14 q 189 -1 259 -14 q 71 33 119 11 l 71 143 q 195 104 122 122 q 349 86 269 86 q 520 131 460 86 q 580 254 580 175 q 557 339 580 305 q 483 402 535 374 q 342 462 431 430 q 150 572 216 507 q 84 753 84 637 q 124 889 84 832 q 236 976 165 945 q 401 1006 308 1006 q 548 991 480 1006 q 671 951 615 976 l 635 852 q 522 889 582 874 q 398 904 462 904 q 252 863 303 904 q 201 752 201 822 q 223 665 201 700 q 293 604 245 631 q 422 548 342 577 q 570 480 509 516 q 663 394 631 445 q 695 264 695 342 m 495 -194 q 444 -297 495 -260 q 295 -334 393 -334 q 255 -331 274 -334 q 224 -326 236 -329 l 224 -255 q 298 -262 253 -262 q 376 -247 349 -262 q 404 -197 404 -232 q 367 -142 404 -159 q 275 -119 331 -125 l 335 0 l 410 0 l 374 -76 q 460 -114 425 -86 q 495 -194 495 -141 z "},"ş":{"ha":662,"x_min":70,"x_max":600,"o":"m 600 203 q 520 42 600 97 q 304 -14 441 -14 q 170 -1 227 -14 q 70 33 113 11 l 70 137 q 178 96 115 115 q 307 78 241 78 q 447 109 404 78 q 490 194 490 140 q 450 271 490 240 q 302 342 410 302 q 179 396 231 369 q 99 461 127 422 q 71 562 71 500 q 148 706 71 656 q 348 757 224 757 q 474 744 415 757 q 583 708 532 730 l 545 618 q 447 651 499 637 q 340 665 395 665 q 221 639 262 665 q 179 568 179 613 q 198 511 179 534 q 260 469 218 489 q 373 423 303 450 q 494 370 443 397 q 572 303 545 342 q 600 203 600 264 m 468 -194 q 417 -297 468 -260 q 268 -334 366 -334 q 228 -331 247 -334 q 197 -326 209 -329 l 197 -255 q 271 -262 226 -262 q 349 -247 322 -262 q 376 -197 376 -232 q 340 -142 376 -159 q 248 -119 304 -125 l 308 0 l 383 0 l 347 -76 q 433 -114 397 -86 q 468 -194 468 -141 z "},"Š":{"ha":762,"x_min":71,"x_max":695,"o":"m 695 264 q 599 59 695 131 q 344 -14 503 -14 q 189 -1 259 -14 q 71 33 119 11 l 71 143 q 195 104 122 122 q 349 86 269 86 q 520 131 460 86 q 580 254 580 175 q 557 339 580 305 q 483 402 535 374 q 342 462 431 430 q 150 572 216 507 q 84 753 84 637 q 124 889 84 832 q 236 976 165 945 q 401 1006 308 1006 q 548 991 480 1006 q 671 951 615 976 l 635 852 q 522 889 582 874 q 398 904 462 904 q 252 863 303 904 q 201 752 201 822 q 223 665 201 700 q 293 604 245 631 q 422 548 342 577 q 570 480 509 516 q 663 394 631 445 q 695 264 695 342 m 337 1090 q 289 1159 319 1122 q 225 1233 258 1196 q 168 1295 193 1269 l 168 1312 l 245 1312 q 320 1252 281 1287 q 393 1179 359 1217 q 469 1252 430 1217 q 544 1312 507 1287 l 624 1312 l 624 1295 q 564 1233 597 1269 q 499 1159 530 1196 q 452 1090 469 1122 l 337 1090 z "},"š":{"ha":662,"x_min":70,"x_max":600,"o":"m 600 203 q 520 42 600 97 q 304 -14 441 -14 q 170 -1 227 -14 q 70 33 113 11 l 70 137 q 178 96 115 115 q 307 78 241 78 q 447 109 404 78 q 490 194 490 140 q 450 271 490 240 q 302 342 410 302 q 179 396 231 369 q 99 461 127 422 q 71 562 71 500 q 148 706 71 656 q 348 757 224 757 q 474 744 415 757 q 583 708 532 730 l 545 618 q 447 651 499 637 q 340 665 395 665 q 221 639 262 665 q 179 568 179 613 q 198 511 179 534 q 260 469 218 489 q 373 423 303 450 q 494 370 443 397 q 572 303 545 342 q 600 203 600 264 m 273 842 q 224 910 255 873 q 161 984 194 947 q 103 1046 128 1020 l 103 1063 l 180 1063 q 256 1003 217 1038 q 329 930 295 968 q 404 1003 366 968 q 479 1063 443 1038 l 559 1063 l 559 1046 q 499 984 533 1020 q 435 910 465 947 q 387 842 404 873 l 273 842 z "},"Ț":{"ha":765,"x_min":12,"x_max":751,"o":"m 440 0 l 324 0 l 324 890 l 12 890 l 12 991 l 751 991 l 751 890 l 440 890 l 440 0 m 465 -85 l 465 -96 q 442 -161 458 -123 q 404 -238 426 -199 q 357 -307 382 -277 l 296 -307 l 296 -291 q 318 -231 306 -268 q 340 -154 330 -194 q 353 -85 350 -115 l 465 -85 z "},"ț":{"ha":495,"x_min":22,"x_max":463,"o":"m 359 79 q 416 83 387 79 q 463 95 445 88 l 463 7 q 409 -7 444 -1 q 340 -14 374 -14 q 233 7 281 -14 q 156 77 185 28 q 127 214 127 127 l 127 655 l 22 655 l 22 710 l 128 754 l 173 916 l 241 916 l 241 743 l 458 743 l 458 655 l 241 655 l 241 218 q 273 113 241 148 q 359 79 305 79 m 376 -85 l 376 -96 q 353 -161 370 -123 q 315 -238 337 -199 q 269 -307 293 -277 l 207 -307 l 207 -291 q 229 -231 217 -268 q 251 -154 241 -194 q 264 -85 261 -115 l 376 -85 z "},"Ť":{"ha":765,"x_min":12,"x_max":751,"o":"m 440 0 l 324 0 l 324 890 l 12 890 l 12 991 l 751 991 l 751 890 l 440 890 l 440 0 m 323 1090 q 275 1159 306 1122 q 212 1233 245 1196 q 154 1295 179 1269 l 154 1312 l 231 1312 q 307 1252 268 1287 q 380 1179 346 1217 q 455 1252 416 1217 q 530 1312 494 1287 l 610 1312 l 610 1295 q 550 1233 584 1269 q 486 1159 516 1196 q 438 1090 455 1122 l 323 1090 z "},"ť":{"ha":495,"x_min":22,"x_max":637,"o":"m 359 79 q 416 83 387 79 q 463 95 445 88 l 463 7 q 409 -7 444 -1 q 340 -14 374 -14 q 233 7 281 -14 q 156 77 185 28 q 127 214 127 127 l 127 655 l 22 655 l 22 710 l 128 754 l 173 916 l 241 916 l 241 743 l 458 743 l 458 655 l 241 655 l 241 218 q 273 113 241 148 q 359 79 305 79 m 637 1055 l 637 1044 q 616 980 631 1017 q 580 903 600 942 q 539 833 560 865 l 477 833 l 477 849 q 497 912 487 875 q 514 987 507 949 q 526 1055 522 1025 l 637 1055 z "},"Ŧ":{"ha":765,"x_min":12,"x_max":751,"o":"m 323 0 l 323 456 l 110 456 l 110 551 l 323 551 l 323 888 l 12 888 l 12 991 l 751 991 l 751 888 l 438 888 l 438 551 l 650 551 l 650 456 l 438 456 l 438 0 l 323 0 z "},"ŧ":{"ha":495,"x_min":22,"x_max":463,"o":"m 359 79 q 416 83 387 79 q 463 95 445 88 l 463 7 q 409 -7 444 -1 q 340 -14 374 -14 q 233 7 281 -14 q 156 77 185 28 q 127 214 127 127 l 127 389 l 33 389 l 33 475 l 127 475 l 127 655 l 22 655 l 22 710 l 128 754 l 173 916 l 241 916 l 241 743 l 458 743 l 458 655 l 241 655 l 241 475 l 444 475 l 444 389 l 241 389 l 241 218 q 273 113 241 148 q 359 79 305 79 z "},"Ũ":{"ha":1013,"x_min":125,"x_max":886,"o":"m 886 991 l 886 350 q 843 163 886 245 q 715 34 801 81 q 501 -14 630 -14 q 221 86 317 -14 q 125 353 125 186 l 125 991 l 241 991 l 241 349 q 308 155 241 223 q 508 86 375 86 q 707 159 644 86 q 771 349 771 231 l 771 991 l 886 991 m 255 1093 q 301 1219 262 1173 q 404 1265 340 1265 q 483 1245 446 1265 q 552 1204 519 1225 q 614 1183 585 1183 q 665 1203 647 1183 q 692 1267 683 1223 l 759 1267 q 712 1140 750 1187 q 610 1093 674 1093 q 534 1114 570 1093 q 465 1155 498 1135 q 399 1175 431 1175 q 349 1155 366 1175 q 321 1093 331 1135 l 255 1093 z "},"ũ":{"ha":852,"x_min":111,"x_max":732,"o":"m 732 743 l 732 0 l 640 0 l 624 104 l 618 104 q 519 16 583 46 q 378 -14 455 -14 q 178 51 245 -14 q 111 256 111 116 l 111 743 l 224 743 l 224 264 q 395 80 224 80 q 569 150 518 80 q 619 352 619 220 l 619 743 l 732 743 m 173 844 q 219 970 180 924 q 322 1017 258 1017 q 400 996 364 1017 q 470 955 437 976 q 532 935 503 935 q 583 955 565 935 q 610 1018 601 975 l 677 1018 q 630 891 668 939 q 528 844 592 844 q 452 865 488 844 q 382 906 416 886 q 317 926 349 926 q 267 906 284 926 q 239 844 249 886 l 173 844 z "},"Ū":{"ha":1013,"x_min":125,"x_max":886,"o":"m 886 991 l 886 350 q 843 163 886 245 q 715 34 801 81 q 501 -14 630 -14 q 221 86 317 -14 q 125 353 125 186 l 125 991 l 241 991 l 241 349 q 308 155 241 223 q 508 86 375 86 q 707 159 644 86 q 771 349 771 231 l 771 991 l 886 991 m 709 1183 l 709 1092 l 303 1092 l 303 1183 l 709 1183 z "},"ū":{"ha":852,"x_min":111,"x_max":732,"o":"m 732 743 l 732 0 l 640 0 l 624 104 l 618 104 q 519 16 583 46 q 378 -14 455 -14 q 178 51 245 -14 q 111 256 111 116 l 111 743 l 224 743 l 224 264 q 395 80 224 80 q 569 150 518 80 q 619 352 619 220 l 619 743 l 732 743 m 629 934 l 629 843 l 222 843 l 222 934 l 629 934 z "},"Ŭ":{"ha":1013,"x_min":125,"x_max":886,"o":"m 886 991 l 886 350 q 843 163 886 245 q 715 34 801 81 q 501 -14 630 -14 q 221 86 317 -14 q 125 353 125 186 l 125 991 l 241 991 l 241 349 q 308 155 241 223 q 508 86 375 86 q 707 159 644 86 q 771 349 771 231 l 771 991 l 886 991 m 723 1274 q 661 1141 716 1192 q 509 1090 606 1090 q 358 1140 409 1090 q 301 1274 307 1190 l 372 1274 q 413 1199 378 1217 q 511 1182 448 1182 q 606 1201 568 1182 q 651 1274 644 1219 l 723 1274 z "},"ŭ":{"ha":852,"x_min":111,"x_max":732,"o":"m 732 743 l 732 0 l 640 0 l 624 104 l 618 104 q 519 16 583 46 q 378 -14 455 -14 q 178 51 245 -14 q 111 256 111 116 l 111 743 l 224 743 l 224 264 q 395 80 224 80 q 569 150 518 80 q 619 352 619 220 l 619 743 l 732 743 m 642 1025 q 581 892 635 943 q 428 842 526 842 q 277 891 328 842 q 220 1025 226 941 l 291 1025 q 332 950 297 968 q 431 933 367 933 q 525 952 487 933 q 570 1025 564 970 l 642 1025 z "},"Ů":{"ha":1013,"x_min":125,"x_max":886,"o":"m 886 991 l 886 350 q 843 163 886 245 q 715 34 801 81 q 501 -14 630 -14 q 221 86 317 -14 q 125 353 125 186 l 125 991 l 241 991 l 241 349 q 308 155 241 223 q 508 86 375 86 q 707 159 644 86 q 771 349 771 231 l 771 991 l 886 991 m 507 1091 q 399 1130 441 1091 q 357 1238 357 1168 q 399 1344 357 1305 q 507 1383 441 1383 q 616 1344 572 1383 q 660 1239 660 1305 q 616 1130 660 1169 q 507 1091 573 1091 m 507 1156 q 566 1178 543 1156 q 589 1238 589 1200 q 565 1297 589 1275 q 507 1318 542 1318 q 450 1297 473 1318 q 427 1238 427 1275 q 448 1178 427 1200 q 507 1156 469 1156 z "},"ů":{"ha":852,"x_min":111,"x_max":732,"o":"m 732 743 l 732 0 l 640 0 l 624 104 l 618 104 q 519 16 583 46 q 378 -14 455 -14 q 178 51 245 -14 q 111 256 111 116 l 111 743 l 224 743 l 224 264 q 395 80 224 80 q 569 150 518 80 q 619 352 619 220 l 619 743 l 732 743 m 427 842 q 319 881 361 842 q 277 989 277 920 q 318 1095 277 1057 q 427 1134 360 1134 q 535 1095 491 1134 q 579 990 579 1057 q 536 881 579 920 q 427 842 492 842 m 427 907 q 485 929 463 907 q 508 989 508 951 q 485 1048 508 1026 q 427 1069 461 1069 q 369 1048 393 1069 q 346 989 346 1026 q 367 929 346 951 q 427 907 388 907 z "},"Ű":{"ha":1013,"x_min":125,"x_max":886,"o":"m 886 991 l 886 350 q 843 163 886 245 q 715 34 801 81 q 501 -14 630 -14 q 221 86 317 -14 q 125 353 125 186 l 125 991 l 241 991 l 241 349 q 308 155 241 223 q 508 86 375 86 q 707 159 644 86 q 771 349 771 231 l 771 991 l 886 991 m 827 1313 l 827 1299 q 781 1235 812 1274 q 713 1156 749 1196 q 645 1090 676 1116 l 580 1090 l 580 1107 q 623 1170 600 1133 q 668 1244 646 1206 q 704 1313 690 1282 l 827 1313 m 585 1313 l 585 1299 q 539 1235 570 1274 q 471 1156 507 1196 q 403 1090 434 1116 l 338 1090 l 338 1107 q 381 1170 358 1133 q 425 1244 404 1206 q 462 1313 447 1282 l 585 1313 z "},"ű":{"ha":852,"x_min":111,"x_max":746,"o":"m 732 743 l 732 0 l 640 0 l 624 104 l 618 104 q 519 16 583 46 q 378 -14 455 -14 q 178 51 245 -14 q 111 256 111 116 l 111 743 l 224 743 l 224 264 q 395 80 224 80 q 569 150 518 80 q 619 352 619 220 l 619 743 l 732 743 m 746 1064 l 746 1050 q 700 986 731 1025 q 631 907 668 947 q 564 842 595 867 l 498 842 l 498 858 q 542 921 519 884 q 587 995 565 957 q 623 1064 608 1033 l 746 1064 m 504 1064 l 504 1050 q 457 986 489 1025 q 389 907 426 947 q 321 842 353 867 l 256 842 l 256 858 q 299 921 277 884 q 344 995 322 957 q 380 1064 366 1033 l 504 1064 z "},"Ų":{"ha":1013,"x_min":125,"x_max":886,"o":"m 642 -151 q 659 -211 642 -193 q 707 -229 676 -229 q 745 -225 729 -229 q 773 -220 762 -222 l 773 -293 q 735 -301 754 -298 q 689 -305 715 -305 q 549 -164 549 -305 q 572 -77 549 -120 q 625 0 594 -35 q 501 -14 568 -14 q 221 86 317 -14 q 125 353 125 186 l 125 991 l 241 991 l 241 349 q 308 155 241 223 q 508 86 375 86 q 707 159 644 86 q 771 349 771 231 l 771 991 l 886 991 l 886 350 q 855 187 886 260 q 762 64 824 113 q 672 -51 703 -2 q 642 -151 642 -100 z "},"ų":{"ha":852,"x_min":111,"x_max":745,"o":"m 732 743 l 732 0 l 640 0 l 624 104 l 618 104 q 519 16 583 46 q 378 -14 455 -14 q 178 51 245 -14 q 111 256 111 116 l 111 743 l 224 743 l 224 264 q 395 80 224 80 q 569 150 518 80 q 619 352 619 220 l 619 743 l 732 743 m 613 -163 q 678 -229 613 -229 q 717 -225 701 -229 q 745 -220 733 -222 l 745 -293 q 706 -301 726 -298 q 660 -305 686 -305 q 554 -271 589 -305 q 520 -176 520 -237 q 540 -100 520 -137 q 589 -32 559 -63 q 649 20 619 -1 l 711 0 q 638 -81 664 -43 q 613 -163 613 -119 z "},"Ŵ":{"ha":1282,"x_min":20,"x_max":1262,"o":"m 1262 991 l 997 0 l 881 0 l 684 667 q 653 780 667 724 q 635 856 639 835 q 621 781 633 835 q 591 667 608 726 l 399 0 l 283 0 l 20 991 l 140 991 l 300 370 q 347 141 332 246 q 368 255 355 194 q 399 376 382 316 l 577 991 l 696 991 l 882 372 q 914 248 901 308 q 935 141 927 188 q 953 249 941 191 q 982 370 965 307 l 1141 991 l 1262 991 m 699 1312 q 747 1243 716 1282 q 811 1168 777 1205 q 871 1105 845 1132 l 871 1090 l 791 1090 q 716 1149 755 1114 q 641 1221 677 1183 q 567 1149 604 1183 q 492 1090 529 1115 l 415 1090 l 415 1105 q 474 1169 441 1133 q 537 1244 507 1206 q 585 1312 567 1282 l 699 1312 z "},"ŵ":{"ha":1076,"x_min":16,"x_max":1060,"o":"m 724 1 l 591 434 q 561 541 574 489 q 541 623 547 592 l 536 623 q 517 540 530 592 q 486 432 505 488 l 348 1 l 221 1 l 16 745 l 133 745 l 240 334 q 270 215 256 273 q 288 119 283 157 l 294 119 q 315 210 301 153 q 343 314 328 267 l 480 745 l 602 745 l 734 315 q 763 212 749 266 q 783 120 778 159 l 789 120 q 807 213 793 154 q 837 334 821 271 l 945 745 l 1060 745 l 854 1 l 724 1 m 598 1063 q 646 995 615 1033 q 710 920 676 956 q 770 857 744 883 l 770 842 l 690 842 q 615 900 654 865 q 540 972 576 935 q 466 900 503 935 q 391 842 428 866 l 314 842 l 314 857 q 373 920 340 884 q 436 995 406 957 q 484 1063 466 1033 l 598 1063 z "},"Ŷ":{"ha":777,"x_min":0,"x_max":777,"o":"m 389 494 l 652 991 l 777 991 l 446 385 l 446 0 l 331 0 l 331 379 l 0 991 l 126 991 l 389 494 m 447 1312 q 494 1243 464 1282 q 559 1168 525 1205 q 619 1105 593 1132 l 619 1090 l 539 1090 q 464 1149 503 1114 q 389 1221 425 1183 q 314 1149 352 1183 q 240 1090 277 1115 l 163 1090 l 163 1105 q 221 1169 189 1133 q 284 1244 254 1206 q 332 1312 315 1282 l 447 1312 z "},"ŷ":{"ha":696,"x_min":1,"x_max":696,"o":"m 1 743 l 122 743 l 286 312 q 324 204 307 254 q 349 111 340 155 l 354 111 q 381 200 363 144 q 419 313 399 255 l 574 743 l 696 743 l 372 -109 q 274 -273 334 -212 q 111 -334 215 -334 q 55 -331 79 -334 q 13 -322 31 -327 l 13 -232 q 49 -238 28 -235 q 94 -241 71 -241 q 195 -205 156 -241 q 258 -106 234 -170 l 299 -1 l 1 743 m 406 1063 q 454 995 423 1033 q 518 920 484 956 q 578 857 552 883 l 578 842 l 498 842 q 423 900 462 865 q 348 972 385 935 q 274 900 311 935 q 199 842 236 866 l 122 842 l 122 857 q 181 920 148 884 q 244 995 214 957 q 292 1063 274 1033 l 406 1063 z "},"Ÿ":{"ha":777,"x_min":0,"x_max":777,"o":"m 389 494 l 652 991 l 777 991 l 446 385 l 446 0 l 331 0 l 331 379 l 0 991 l 126 991 l 389 494 m 197 1194 q 214 1244 197 1228 q 258 1259 232 1259 q 302 1244 284 1259 q 320 1194 320 1228 q 302 1144 320 1161 q 258 1128 284 1128 q 214 1144 232 1128 q 197 1194 197 1161 m 457 1194 q 475 1244 457 1228 q 517 1259 492 1259 q 562 1244 543 1259 q 580 1194 580 1228 q 562 1144 580 1161 q 517 1128 543 1128 q 475 1144 492 1128 q 457 1194 457 1161 z "},"Ź":{"ha":795,"x_min":53,"x_max":741,"o":"m 741 0 l 53 0 l 53 87 l 587 888 l 71 888 l 71 991 l 727 991 l 727 905 l 193 103 l 741 103 l 741 0 m 600 1313 l 600 1299 q 547 1234 581 1274 q 473 1156 512 1195 q 400 1090 433 1116 l 325 1090 l 325 1107 q 372 1169 347 1133 q 422 1243 398 1205 q 463 1313 447 1282 l 600 1313 z "},"ź":{"ha":651,"x_min":54,"x_max":596,"o":"m 596 0 l 54 0 l 54 75 l 462 655 l 80 655 l 80 743 l 587 743 l 587 660 l 185 87 l 596 87 l 596 0 m 522 1064 l 522 1050 q 469 985 503 1025 q 395 907 434 946 q 322 842 355 867 l 247 842 l 247 858 q 294 920 269 884 q 345 995 320 956 q 385 1064 369 1033 l 522 1064 z "},"Ż":{"ha":795,"x_min":53,"x_max":741,"o":"m 741 0 l 53 0 l 53 87 l 587 888 l 71 888 l 71 991 l 727 991 l 727 905 l 193 103 l 741 103 l 741 0 m 405 1270 q 453 1252 433 1270 q 473 1196 473 1234 q 453 1141 473 1159 q 405 1122 433 1122 q 356 1141 376 1122 q 337 1196 337 1159 q 356 1252 337 1234 q 405 1270 376 1270 z "},"ż":{"ha":651,"x_min":54,"x_max":596,"o":"m 596 0 l 54 0 l 54 75 l 462 655 l 80 655 l 80 743 l 587 743 l 587 660 l 185 87 l 596 87 l 596 0 m 328 1021 q 375 1003 355 1021 q 395 947 395 985 q 375 892 395 910 q 328 873 355 873 q 279 892 298 873 q 260 947 260 910 q 279 1003 260 985 q 328 1021 298 1021 z "},"Ž":{"ha":795,"x_min":53,"x_max":741,"o":"m 741 0 l 53 0 l 53 87 l 587 888 l 71 888 l 71 991 l 727 991 l 727 905 l 193 103 l 741 103 l 741 0 m 344 1090 q 296 1159 326 1122 q 232 1233 265 1196 q 174 1295 199 1269 l 174 1312 l 252 1312 q 327 1252 288 1287 q 400 1179 366 1217 q 475 1252 437 1217 q 551 1312 514 1287 l 631 1312 l 631 1295 q 570 1233 604 1269 q 506 1159 536 1196 q 458 1090 475 1122 l 344 1090 z "},"ž":{"ha":651,"x_min":54,"x_max":596,"o":"m 596 0 l 54 0 l 54 75 l 462 655 l 80 655 l 80 743 l 587 743 l 587 660 l 185 87 l 596 87 l 596 0 m 267 842 q 218 910 249 873 q 155 984 188 947 q 97 1046 122 1020 l 97 1063 l 174 1063 q 250 1003 211 1038 q 323 930 289 968 q 398 1003 359 968 q 473 1063 437 1038 l 553 1063 l 553 1046 q 493 984 527 1020 q 429 910 459 947 q 381 842 398 873 l 267 842 z "},"ſ":{"ha":448,"x_min":119,"x_max":494,"o":"m 359 968 q 266 930 299 968 q 232 802 232 892 l 232 0 l 119 0 l 119 803 q 184 1003 119 943 q 361 1063 250 1063 q 435 1055 402 1063 q 494 1038 468 1047 l 466 948 q 416 962 444 956 q 359 968 388 968 z "},"ƒ":{"ha":794,"x_min":129,"x_max":704,"o":"m 565 1006 q 642 997 607 1006 q 704 978 677 987 l 676 890 q 625 904 653 897 q 568 911 597 911 q 475 877 505 911 q 446 753 446 842 l 446 654 l 633 654 l 633 566 l 448 566 l 448 -94 q 390 -279 448 -224 q 224 -334 332 -334 q 172 -330 197 -334 q 129 -321 147 -326 l 129 -227 q 172 -236 150 -232 q 217 -239 194 -239 q 304 -207 277 -239 q 332 -93 332 -175 l 332 566 l 188 566 l 188 621 l 332 659 l 332 753 q 392 950 332 895 q 565 1006 452 1006 z "},"Ǻ":{"ha":880,"x_min":-1,"x_max":880,"o":"m 378 1150 l 378 1162 q 443 1245 408 1197 q 500 1332 477 1293 l 636 1332 l 636 1321 q 589 1267 621 1299 q 522 1204 558 1236 q 454 1150 485 1173 l 378 1150 m -1 0 l 361 840 q 307 889 327 857 q 288 968 288 921 q 330 1075 288 1036 q 437 1114 372 1114 q 548 1076 503 1114 q 592 968 592 1037 q 572 890 592 923 q 519 841 553 858 l 880 0 l 760 0 l 642 273 l 231 273 l 117 0 l -1 0 m 437 885 q 497 907 474 885 q 519 968 519 928 q 497 1027 519 1006 q 437 1048 474 1048 q 379 1027 402 1048 q 356 968 356 1006 q 378 907 356 929 q 437 885 399 885 m 271 376 l 608 376 l 488 668 q 464 729 477 692 q 439 802 450 766 q 415 728 428 766 q 392 666 401 690 l 271 376 z "},"ǻ":{"ha":772,"x_min":64,"x_max":659,"o":"m 608 1329 l 608 1321 q 555 1277 593 1303 q 474 1225 517 1251 q 399 1181 431 1199 l 318 1181 l 318 1192 q 384 1259 349 1219 q 441 1329 419 1298 l 608 1329 m 393 1128 q 502 1089 458 1128 q 545 984 545 1050 q 502 876 545 915 q 393 837 459 837 q 285 876 327 837 q 243 983 243 914 q 285 1090 243 1051 q 393 1128 327 1128 m 393 1064 q 335 1042 358 1064 q 312 983 312 1021 q 333 924 312 946 q 393 902 355 902 q 451 924 429 902 q 473 983 473 946 q 450 1042 473 1021 q 393 1064 427 1064 m 397 755 q 594 696 530 755 q 659 505 659 636 l 659 0 l 576 0 l 555 110 l 549 110 q 448 17 503 48 q 297 -14 393 -14 q 130 40 195 -14 q 64 204 64 94 q 152 375 64 315 q 420 440 240 435 l 549 446 l 549 491 q 507 626 549 587 q 391 665 466 665 q 279 648 332 665 q 179 608 227 631 l 144 693 q 260 737 195 719 q 397 755 325 755 m 547 366 l 434 361 q 238 316 295 356 q 181 203 181 276 q 220 109 181 139 q 322 78 258 78 q 484 133 421 78 q 547 298 547 188 l 547 366 z "},"Ǽ":{"ha":1206,"x_min":-1,"x_max":1129,"o":"m 1129 0 l 611 0 l 611 315 l 269 315 l 118 0 l -1 0 l 465 991 l 1129 991 l 1129 890 l 726 890 l 726 569 l 1103 569 l 1103 469 l 726 469 l 726 102 l 1129 102 l 1129 0 m 313 417 l 611 417 l 611 888 l 533 888 l 313 417 m 867 1313 l 867 1299 q 814 1234 849 1274 q 741 1156 780 1195 q 668 1090 701 1116 l 593 1090 l 593 1107 q 640 1169 614 1133 q 690 1243 666 1205 q 731 1313 715 1282 l 867 1313 z "},"ǽ":{"ha":1198,"x_min":64,"x_max":1126,"o":"m 838 757 q 992 715 928 757 q 1092 597 1057 673 q 1126 423 1126 522 l 1126 352 l 645 352 q 704 149 648 215 q 866 83 760 83 q 986 96 934 83 q 1093 134 1038 109 l 1093 35 q 984 -2 1038 9 q 863 -14 931 -14 q 581 149 663 -14 q 471 31 535 75 q 299 -14 408 -14 q 130 40 197 -14 q 64 204 64 94 q 404 440 64 429 l 530 446 l 530 494 q 487 626 530 588 q 371 665 444 665 q 263 648 316 665 q 162 608 210 631 l 127 693 q 244 738 177 720 q 380 755 312 755 q 523 725 467 755 q 606 626 579 694 q 701 722 642 688 q 838 757 760 757 m 836 665 q 705 607 754 665 q 648 441 655 550 l 1006 441 q 965 603 1007 542 q 836 665 924 665 m 527 366 l 420 361 q 235 316 290 356 q 181 203 181 276 q 218 109 181 139 q 317 78 255 78 q 468 133 408 78 q 527 298 527 188 l 527 366 m 804 1064 l 804 1050 q 751 985 785 1025 q 677 907 716 946 q 604 842 637 867 l 529 842 l 529 858 q 576 920 551 884 q 627 995 602 956 q 667 1064 651 1033 l 804 1064 z "},"Ǿ":{"ha":1080,"x_min":85,"x_max":996,"o":"m 996 497 q 944 229 996 344 q 791 51 892 115 q 541 -14 690 -14 q 281 56 382 -14 l 212 -42 l 133 9 l 208 115 q 115 280 146 183 q 85 498 85 378 q 135 765 85 650 q 287 943 185 880 q 543 1007 389 1007 q 679 990 616 1007 q 793 941 742 972 l 859 1036 l 937 982 l 865 882 q 962 718 928 815 q 996 497 996 621 m 206 497 q 277 214 206 317 l 731 852 q 543 905 656 905 q 288 796 370 905 q 206 497 206 687 m 874 497 q 799 787 874 682 l 342 144 q 430 101 380 117 q 541 86 479 86 q 794 197 713 86 q 874 497 874 307 m 739 1313 l 739 1299 q 686 1234 720 1274 q 612 1156 651 1195 q 539 1090 572 1116 l 464 1090 l 464 1107 q 511 1169 486 1133 q 562 1243 537 1205 q 602 1313 586 1282 l 739 1313 z "},"ǿ":{"ha":836,"x_min":77,"x_max":760,"o":"m 760 373 q 668 88 760 190 q 416 -14 576 -14 q 232 37 310 -14 l 172 -45 l 98 5 l 164 95 q 100 215 123 146 q 77 373 77 285 q 169 656 77 556 q 420 757 261 757 q 605 704 527 757 l 663 785 l 739 735 l 673 646 q 736 528 713 596 q 760 373 760 459 m 194 373 q 202 271 194 317 q 230 189 211 224 l 547 623 q 418 662 494 662 q 248 585 302 662 q 194 373 194 509 m 643 373 q 608 552 643 484 l 290 117 q 418 80 339 80 q 589 159 534 80 q 643 373 643 239 m 615 1064 l 615 1050 q 562 985 597 1025 q 488 907 528 946 q 416 842 449 867 l 340 842 l 340 858 q 388 920 362 884 q 438 995 414 956 q 479 1064 463 1033 l 615 1064 z "},"Ș":{"ha":762,"x_min":71,"x_max":695,"o":"m 695 264 q 599 59 695 131 q 344 -14 503 -14 q 189 -1 259 -14 q 71 33 119 11 l 71 143 q 195 104 122 122 q 349 86 269 86 q 520 131 460 86 q 580 254 580 175 q 557 339 580 305 q 483 402 535 374 q 342 462 431 430 q 150 572 216 507 q 84 753 84 637 q 124 889 84 832 q 236 976 165 945 q 401 1006 308 1006 q 548 991 480 1006 q 671 951 615 976 l 635 852 q 522 889 582 874 q 398 904 462 904 q 252 863 303 904 q 201 752 201 822 q 223 665 201 700 q 293 604 245 631 q 422 548 342 577 q 570 480 509 516 q 663 394 631 445 q 695 264 695 342 m 441 -85 l 441 -96 q 418 -161 435 -123 q 380 -238 402 -199 q 334 -307 358 -277 l 272 -307 l 272 -291 q 294 -231 282 -268 q 316 -154 306 -194 q 330 -85 326 -115 l 441 -85 z "},"ș":{"ha":662,"x_min":70,"x_max":600,"o":"m 600 203 q 520 42 600 97 q 304 -14 441 -14 q 170 -1 227 -14 q 70 33 113 11 l 70 137 q 178 96 115 115 q 307 78 241 78 q 447 109 404 78 q 490 194 490 140 q 450 271 490 240 q 302 342 410 302 q 179 396 231 369 q 99 461 127 422 q 71 562 71 500 q 148 706 71 656 q 348 757 224 757 q 474 744 415 757 q 583 708 532 730 l 545 618 q 447 651 499 637 q 340 665 395 665 q 221 639 262 665 q 179 568 179 613 q 198 511 179 534 q 260 469 218 489 q 373 423 303 450 q 494 370 443 397 q 572 303 545 342 q 600 203 600 264 m 414 -85 l 414 -96 q 391 -161 408 -123 q 353 -238 375 -199 q 307 -307 331 -277 l 245 -307 l 245 -291 q 267 -231 255 -268 q 289 -154 279 -194 q 302 -85 299 -115 l 414 -85 z "},"ˆ":{"ha":568,"x_min":56,"x_max":512,"o":"m 340 1063 q 387 995 357 1033 q 452 920 418 956 q 512 857 486 883 l 512 842 l 432 842 q 357 900 395 865 q 281 972 318 935 q 207 900 245 935 q 133 842 170 866 l 56 842 l 56 857 q 114 920 81 884 q 177 995 147 957 q 225 1063 208 1033 l 340 1063 z "},"ˇ":{"ha":568,"x_min":56,"x_max":512,"o":"m 225 842 q 177 910 208 873 q 114 984 146 947 q 56 1046 81 1020 l 56 1063 l 133 1063 q 209 1003 170 1038 q 281 930 248 968 q 357 1003 318 968 q 432 1063 395 1038 l 512 1063 l 512 1046 q 452 984 486 1020 q 387 910 418 947 q 340 842 357 873 l 225 842 z "},"ˉ":{"ha":517,"x_min":56,"x_max":462,"o":"m 462 934 l 462 843 l 56 843 l 56 934 l 462 934 z "},"˘":{"ha":533,"x_min":56,"x_max":477,"o":"m 477 1025 q 416 892 471 943 q 263 842 361 842 q 112 891 163 842 q 56 1025 61 941 l 126 1025 q 167 950 132 968 q 266 933 202 933 q 360 952 322 933 q 406 1025 399 970 l 477 1025 z "},"˙":{"ha":247,"x_min":56,"x_max":191,"o":"m 123 1021 q 171 1003 151 1021 q 191 947 191 985 q 171 892 191 910 q 123 873 151 873 q 75 892 94 873 q 56 947 56 910 q 75 1003 56 985 q 123 1021 94 1021 z "},"˚":{"ha":414,"x_min":56,"x_max":358,"o":"m 205 842 q 98 881 140 842 q 56 989 56 920 q 97 1095 56 1057 q 205 1134 139 1134 q 314 1095 270 1134 q 358 990 358 1057 q 315 881 358 920 q 205 842 271 842 m 205 907 q 264 929 241 907 q 287 989 287 951 q 263 1048 287 1026 q 205 1069 240 1069 q 148 1048 172 1069 q 125 989 125 1026 q 146 929 125 951 q 205 907 167 907 z "},"˛":{"ha":336,"x_min":56,"x_max":280,"o":"m 149 -163 q 214 -229 149 -229 q 252 -225 236 -229 q 280 -220 269 -222 l 280 -293 q 241 -301 261 -298 q 195 -305 222 -305 q 90 -271 124 -305 q 56 -176 56 -237 q 75 -100 56 -137 q 125 -32 95 -63 q 184 20 155 -1 l 247 0 q 174 -81 199 -43 q 149 -163 149 -119 z "},"˜":{"ha":614,"x_min":56,"x_max":559,"o":"m 56 844 q 102 970 63 924 q 205 1017 141 1017 q 283 996 247 1017 q 352 955 319 976 q 415 935 385 935 q 466 955 448 935 q 493 1018 484 975 l 559 1018 q 513 891 551 939 q 410 844 475 844 q 335 865 371 844 q 265 906 298 886 q 200 926 232 926 q 149 906 167 926 q 122 844 132 886 l 56 844 z "},"˝":{"ha":601,"x_min":56,"x_max":545,"o":"m 545 1064 l 545 1050 q 499 986 530 1025 q 431 907 467 947 q 363 842 394 867 l 298 842 l 298 858 q 341 921 318 884 q 386 995 364 957 q 422 1064 408 1033 l 545 1064 m 303 1064 l 303 1050 q 257 986 288 1025 q 189 907 225 947 q 121 842 152 867 l 56 842 l 56 858 q 99 921 76 884 q 143 995 121 957 q 180 1064 165 1033 l 303 1064 z "},"΄":{"ha":802,"x_min":353,"x_max":538,"o":"m 353 842 l 353 860 q 378 940 366 895 q 401 1033 391 986 q 416 1118 411 1080 l 538 1118 l 538 1103 q 511 1025 530 1072 q 469 929 492 978 q 422 842 445 880 l 353 842 z "},"΅":{"ha":802,"x_min":195,"x_max":618,"o":"m 541 1164 l 541 1150 q 484 1048 520 1107 q 410 941 448 989 l 355 941 l 355 956 q 389 1057 371 998 q 417 1164 408 1116 l 541 1164 m 256 1010 q 299 995 281 1010 q 316 945 316 979 q 299 896 316 912 q 256 879 281 879 q 213 896 230 879 q 195 945 195 912 q 213 995 195 979 q 256 1010 230 1010 m 557 1010 q 600 995 582 1010 q 618 945 618 979 q 600 896 618 912 q 557 879 582 879 q 514 896 530 879 q 497 945 497 912 q 514 995 497 979 q 557 1010 530 1010 z "},"Ά":{"ha":878,"x_min":0,"x_max":877,"o":"m 758 0 l 635 315 l 238 315 l 117 0 l 0 0 l 388 996 l 492 996 l 877 0 l 758 0 m 601 417 l 485 730 q 472 770 481 742 q 453 827 463 798 q 437 876 444 857 q 415 794 427 834 q 395 730 403 754 l 277 417 l 601 417 m 18 768 l 18 786 q 44 866 31 821 q 66 959 56 912 q 82 1044 77 1006 l 203 1044 l 203 1029 q 177 951 196 998 q 134 855 158 904 q 87 768 111 806 l 18 768 z "},"·":{"ha":365,"x_min":102,"x_max":263,"o":"m 102 673 q 125 741 102 721 q 181 761 148 761 q 239 741 216 761 q 263 673 263 721 q 239 605 263 627 q 181 584 216 584 q 125 605 148 584 q 102 673 102 627 z "},"Έ":{"ha":882,"x_min":-1,"x_max":798,"o":"m 798 0 l 246 0 l 246 991 l 798 991 l 798 890 l 361 890 l 361 569 l 773 569 l 773 469 l 361 469 l 361 102 l 798 102 l 798 0 m -1 768 l -1 786 q 24 866 12 821 q 47 959 37 912 q 62 1044 57 1006 l 184 1044 l 184 1029 q 157 951 176 998 q 115 855 138 904 q 68 768 91 806 l -1 768 z "},"Ή":{"ha":1135,"x_min":-1,"x_max":998,"o":"m 998 0 l 882 0 l 882 467 l 361 467 l 361 0 l 246 0 l 246 991 l 361 991 l 361 569 l 882 569 l 882 991 l 998 991 l 998 0 m -1 768 l -1 786 q 24 866 12 821 q 47 959 37 912 q 62 1044 57 1006 l 184 1044 l 184 1029 q 157 951 176 998 q 115 855 138 904 q 68 768 91 806 l -1 768 z "},"Ί":{"ha":502,"x_min":-1,"x_max":364,"o":"m 249 0 l 249 991 l 364 991 l 364 0 l 249 0 m -1 768 l -1 786 q 24 866 12 821 q 47 959 37 912 q 62 1044 57 1006 l 184 1044 l 184 1029 q 157 951 176 998 q 115 855 138 904 q 68 768 91 806 l -1 768 z "},"Ό":{"ha":1139,"x_min":-1,"x_max":1053,"o":"m 1053 497 q 1002 229 1053 344 q 849 51 950 115 q 599 -14 748 -14 q 343 51 445 -14 q 192 230 242 115 q 142 498 142 345 q 193 765 142 650 q 345 943 243 880 q 601 1007 447 1007 q 849 944 748 1007 q 1001 767 949 881 q 1053 497 1053 652 m 264 497 q 346 197 264 308 q 599 86 427 86 q 851 197 771 86 q 932 497 932 307 q 851 797 932 689 q 601 905 771 905 q 346 796 428 905 q 264 497 264 687 m -1 768 l -1 786 q 24 866 12 821 q 47 959 37 912 q 62 1044 57 1006 l 184 1044 l 184 1029 q 157 951 176 998 q 115 855 138 904 q 68 768 91 806 l -1 768 z "},"Ύ":{"ha":987,"x_min":-1,"x_max":986,"o":"m 598 494 l 862 991 l 986 991 l 656 385 l 656 0 l 541 0 l 541 379 l 210 991 l 336 991 l 598 494 m -1 768 l -1 786 q 24 866 12 821 q 47 959 37 912 q 62 1044 57 1006 l 184 1044 l 184 1029 q 157 951 176 998 q 115 855 138 904 q 68 768 91 806 l -1 768 z "},"Ώ":{"ha":1131,"x_min":-9,"x_max":1080,"o":"m 589 905 q 340 811 422 905 q 258 554 258 718 q 314 297 258 410 q 498 92 369 184 l 498 0 l 101 0 l 101 102 l 355 102 q 200 284 263 170 q 136 558 136 399 q 190 796 136 695 q 345 952 243 897 q 589 1007 446 1007 q 837 952 735 1007 q 991 798 939 898 q 1044 559 1044 697 q 982 285 1044 399 q 826 102 919 170 l 1080 102 l 1080 0 l 682 0 l 682 92 q 869 297 814 183 q 924 554 924 411 q 841 812 924 718 q 589 905 758 905 m -9 769 l -9 787 q 16 868 3 822 q 39 961 28 913 q 54 1046 49 1008 l 176 1046 l 176 1031 q 149 952 168 999 q 106 857 130 905 q 60 769 83 808 l -9 769 z "},"ΐ":{"ha":471,"x_min":-29,"x_max":447,"o":"m 225 743 l 225 218 q 252 113 225 148 q 336 79 279 79 q 397 84 366 79 q 447 94 429 89 l 447 7 q 392 -8 428 -2 q 321 -14 356 -14 q 214 6 260 -14 q 140 76 167 26 q 114 215 114 126 l 114 743 l 225 743 m 317 1164 l 317 1150 q 259 1048 296 1107 q 185 941 223 989 l 130 941 l 130 956 q 165 1057 146 998 q 193 1164 183 1116 l 317 1164 m 31 1010 q 74 995 57 1010 q 92 945 92 979 q 74 896 92 912 q 31 879 57 879 q -12 896 5 879 q -29 945 -29 912 q -12 995 -29 979 q 31 1010 5 1010 m 333 1010 q 376 995 357 1010 q 394 945 394 979 q 376 896 394 912 q 333 879 357 879 q 289 896 306 879 q 273 945 273 912 q 289 995 273 979 q 333 1010 306 1010 z "},"Α":{"ha":878,"x_min":0,"x_max":877,"o":"m 758 0 l 635 315 l 238 315 l 117 0 l 0 0 l 388 996 l 492 996 l 877 0 l 758 0 m 601 417 l 485 730 q 472 770 481 742 q 453 827 463 798 q 437 876 444 857 q 415 794 427 834 q 395 730 403 754 l 277 417 l 601 417 z "},"Β":{"ha":897,"x_min":136,"x_max":822,"o":"m 136 991 l 416 991 q 696 936 602 991 q 789 747 789 880 q 741 602 789 660 q 600 526 692 543 l 600 519 q 759 450 696 504 q 822 282 822 395 q 728 73 822 145 q 477 0 635 0 l 136 0 l 136 991 m 251 566 l 441 566 q 620 609 570 566 q 670 734 670 652 q 611 856 670 819 q 422 893 551 893 l 251 893 l 251 566 m 251 469 l 251 98 l 457 98 q 644 150 589 98 q 699 290 699 202 q 642 422 699 374 q 447 469 585 469 l 251 469 z "},"Γ":{"ha":722,"x_min":136,"x_max":692,"o":"m 692 991 l 692 888 l 251 888 l 251 0 l 136 0 l 136 991 l 692 991 z "},"Δ":{"ha":804,"x_min":25,"x_max":779,"o":"m 459 991 l 779 69 l 779 0 l 25 0 l 25 71 l 345 991 l 459 991 m 652 102 l 466 644 q 429 762 446 705 q 400 866 412 819 q 373 763 388 819 q 338 650 357 707 l 149 102 l 652 102 z "},"Ε":{"ha":772,"x_min":136,"x_max":688,"o":"m 688 0 l 136 0 l 136 991 l 688 991 l 688 890 l 251 890 l 251 569 l 663 569 l 663 469 l 251 469 l 251 102 l 688 102 l 688 0 z "},"Ζ":{"ha":795,"x_min":53,"x_max":741,"o":"m 741 0 l 53 0 l 53 87 l 587 888 l 71 888 l 71 991 l 727 991 l 727 905 l 193 103 l 741 103 l 741 0 z "},"Η":{"ha":1024,"x_min":136,"x_max":887,"o":"m 887 0 l 772 0 l 772 467 l 251 467 l 251 0 l 136 0 l 136 991 l 251 991 l 251 569 l 772 569 l 772 991 l 887 991 l 887 0 z "},"Θ":{"ha":1080,"x_min":85,"x_max":996,"o":"m 996 497 q 944 229 996 344 q 791 51 892 115 q 541 -14 690 -14 q 286 51 387 -14 q 135 230 184 115 q 85 498 85 345 q 135 765 85 650 q 287 943 185 880 q 543 1007 389 1007 q 791 944 690 1007 q 944 767 892 881 q 996 497 996 652 m 206 497 q 288 197 206 308 q 541 86 370 86 q 794 197 713 86 q 874 497 874 307 q 794 797 874 689 q 543 905 713 905 q 288 796 370 905 q 206 497 206 687 m 752 554 l 752 454 l 327 454 l 327 554 l 752 554 z "},"Ι":{"ha":388,"x_min":136,"x_max":251,"o":"m 136 0 l 136 991 l 251 991 l 251 0 l 136 0 z "},"Κ":{"ha":850,"x_min":136,"x_max":850,"o":"m 850 0 l 714 0 l 357 482 l 251 387 l 251 0 l 136 0 l 136 991 l 251 991 l 251 497 q 330 585 290 541 q 411 673 371 629 l 701 991 l 836 991 l 441 562 l 850 0 z "},"Λ":{"ha":838,"x_min":0,"x_max":836,"o":"m 477 991 l 836 0 l 715 0 l 486 644 q 447 762 465 706 q 416 865 429 817 q 388 762 406 817 q 349 645 370 706 l 122 0 l 0 0 l 357 991 l 477 991 z "},"Μ":{"ha":1249,"x_min":136,"x_max":1114,"o":"m 572 0 l 239 878 l 233 878 q 240 768 237 836 q 243 627 243 700 l 243 0 l 136 0 l 136 991 l 307 991 l 621 167 l 625 167 l 944 991 l 1114 991 l 1114 0 l 1000 0 l 1000 635 q 1003 767 1000 701 q 1008 876 1006 833 l 1003 876 l 666 0 l 572 0 z "},"Ν":{"ha":1046,"x_min":136,"x_max":911,"o":"m 911 0 l 778 0 l 237 833 l 232 833 q 239 713 235 783 q 243 570 243 644 l 243 0 l 136 0 l 136 991 l 268 991 l 806 161 l 811 161 q 808 229 810 185 q 804 323 806 273 q 802 417 802 374 l 802 991 l 911 991 l 911 0 z "},"Ξ":{"ha":765,"x_min":45,"x_max":719,"o":"m 73 890 l 73 991 l 691 991 l 691 890 l 73 890 m 129 468 l 129 569 l 635 569 l 635 468 l 129 468 m 45 0 l 45 102 l 719 102 l 719 0 l 45 0 z "},"Ο":{"ha":1080,"x_min":85,"x_max":996,"o":"m 996 497 q 944 229 996 344 q 791 51 892 115 q 541 -14 690 -14 q 286 51 387 -14 q 135 230 184 115 q 85 498 85 345 q 135 765 85 650 q 287 943 185 880 q 543 1007 389 1007 q 791 944 690 1007 q 944 767 892 881 q 996 497 996 652 m 206 497 q 288 197 206 308 q 541 86 370 86 q 794 197 713 86 q 874 497 874 307 q 794 797 874 689 q 543 905 713 905 q 288 796 370 905 q 206 497 206 687 z "},"Π":{"ha":1011,"x_min":136,"x_max":874,"o":"m 136 0 l 136 991 l 874 991 l 874 0 l 760 0 l 760 890 l 251 890 l 251 0 l 136 0 z "},"Ρ":{"ha":836,"x_min":136,"x_max":764,"o":"m 395 991 q 675 917 587 991 q 764 702 764 842 q 726 547 764 618 q 602 433 688 475 q 372 390 516 390 l 251 390 l 251 0 l 136 0 l 136 991 l 395 991 m 384 893 l 251 893 l 251 489 l 359 489 q 573 536 501 489 q 644 697 644 583 q 581 845 644 796 q 384 893 518 893 z "},"Σ":{"ha":787,"x_min":49,"x_max":755,"o":"m 49 0 l 49 95 l 381 518 l 57 896 l 57 991 l 715 991 l 715 888 l 351 888 q 298 888 330 888 q 237 889 267 888 q 191 890 207 889 l 510 519 l 176 100 q 278 101 227 100 q 382 102 329 102 l 755 102 l 755 0 l 49 0 z "},"Τ":{"ha":765,"x_min":12,"x_max":751,"o":"m 440 0 l 324 0 l 324 890 l 12 890 l 12 991 l 751 991 l 751 890 l 440 890 l 440 0 z "},"Υ":{"ha":777,"x_min":0,"x_max":777,"o":"m 389 494 l 652 991 l 777 991 l 446 385 l 446 0 l 331 0 l 331 379 l 0 991 l 126 991 l 389 494 z "},"Φ":{"ha":1107,"x_min":71,"x_max":1034,"o":"m 610 1006 l 610 884 q 860 832 767 881 q 994 701 953 783 q 1034 515 1034 619 q 1013 378 1034 445 q 942 259 991 312 q 811 173 893 205 q 610 139 730 141 l 610 -14 l 496 -14 l 496 139 q 291 174 373 141 q 161 261 209 208 q 92 380 113 315 q 71 514 71 446 q 112 698 71 615 q 246 831 153 781 q 496 884 339 881 l 496 1006 l 610 1006 m 496 786 q 258 709 327 782 q 189 515 189 637 q 263 313 189 387 q 496 234 338 239 l 496 786 m 610 786 l 610 234 q 845 315 772 239 q 918 517 918 390 q 848 711 918 640 q 610 786 779 782 z "},"Χ":{"ha":802,"x_min":4,"x_max":798,"o":"m 798 0 l 667 0 l 399 437 l 127 0 l 4 0 l 334 517 l 27 991 l 155 991 l 403 596 l 652 991 l 774 991 l 467 519 l 798 0 z "},"Ψ":{"ha":1107,"x_min":75,"x_max":1029,"o":"m 1029 991 l 1029 665 q 1009 525 1029 591 q 940 409 988 459 q 810 331 891 359 q 607 302 728 302 l 607 0 l 494 0 l 494 302 q 292 331 373 302 q 163 410 211 360 q 96 526 116 460 q 75 664 75 591 l 75 991 l 191 991 l 191 667 q 263 467 191 532 q 494 401 336 402 l 494 991 l 607 991 l 607 401 q 840 468 769 402 q 911 665 911 533 l 911 991 l 1029 991 z "},"Ω":{"ha":1084,"x_min":54,"x_max":1032,"o":"m 542 905 q 293 811 374 905 q 211 554 211 718 q 266 297 211 410 q 451 92 321 184 l 451 0 l 54 0 l 54 102 l 308 102 q 152 284 216 170 q 89 558 89 399 q 142 796 89 695 q 297 952 196 897 q 542 1007 399 1007 q 789 952 688 1007 q 944 798 891 898 q 997 559 997 697 q 934 285 997 399 q 779 102 871 170 l 1032 102 l 1032 0 l 635 0 l 635 92 q 821 297 766 183 q 876 554 876 411 q 793 812 876 718 q 542 905 711 905 z "},"Ϊ":{"ha":388,"x_min":4,"x_max":387,"o":"m 136 0 l 136 991 l 251 991 l 251 0 l 136 0 m 4 1194 q 22 1244 4 1228 q 65 1259 39 1259 q 110 1244 92 1259 q 127 1194 127 1228 q 110 1144 127 1161 q 65 1128 92 1128 q 22 1144 39 1128 q 4 1194 4 1161 m 264 1194 q 282 1244 264 1228 q 325 1259 300 1259 q 369 1244 351 1259 q 387 1194 387 1228 q 369 1144 387 1161 q 325 1128 351 1128 q 282 1144 300 1128 q 264 1194 264 1161 z "},"Ϋ":{"ha":777,"x_min":0,"x_max":777,"o":"m 389 494 l 652 991 l 777 991 l 446 385 l 446 0 l 331 0 l 331 379 l 0 991 l 126 991 l 389 494 m 197 1194 q 214 1244 197 1228 q 258 1259 232 1259 q 302 1244 284 1259 q 320 1194 320 1228 q 302 1144 320 1161 q 258 1128 284 1128 q 214 1144 232 1128 q 197 1194 197 1161 m 457 1194 q 475 1244 457 1228 q 517 1259 492 1259 q 562 1244 543 1259 q 580 1194 580 1228 q 562 1144 580 1161 q 517 1128 543 1128 q 475 1144 492 1128 q 457 1194 457 1161 z "},"ά":{"ha":848,"x_min":77,"x_max":829,"o":"m 382 -14 q 161 83 244 -14 q 77 369 77 179 q 161 657 77 557 q 394 757 244 757 q 532 727 477 757 q 623 639 587 697 l 631 639 q 647 693 636 665 q 673 743 658 722 l 762 743 q 744 664 752 712 q 732 562 736 616 q 728 456 728 507 l 728 164 q 745 98 728 117 q 787 79 762 79 q 810 81 798 79 q 829 86 823 83 l 829 3 q 797 -8 819 -3 q 754 -14 776 -14 q 670 12 703 -14 q 625 106 638 38 l 616 106 q 531 21 585 56 q 382 -14 477 -14 m 401 80 q 567 149 517 80 q 616 362 616 218 l 616 373 q 569 589 616 515 q 401 662 522 662 q 245 587 296 662 q 194 368 194 511 q 244 153 194 225 q 401 80 294 80 m 376 842 l 376 860 q 402 940 389 895 q 425 1033 414 986 q 440 1118 435 1080 l 562 1118 l 562 1103 q 535 1025 554 1072 q 492 929 516 978 q 446 842 469 880 l 376 842 z "},"έ":{"ha":663,"x_min":60,"x_max":616,"o":"m 487 434 l 487 342 l 388 342 q 173 208 173 342 q 230 109 173 138 q 374 79 287 79 q 508 96 450 79 q 613 136 567 114 l 613 36 q 511 0 571 14 q 368 -14 452 -14 q 136 48 211 -14 q 60 201 60 109 q 109 325 60 284 q 225 385 157 366 l 225 392 q 124 453 161 411 q 87 560 87 494 q 166 706 87 656 q 368 757 245 757 q 504 744 447 757 q 616 705 561 730 l 574 615 q 480 650 528 636 q 368 663 431 663 q 195 552 195 663 q 253 461 195 489 q 410 434 311 434 l 487 434 m 316 842 l 316 860 q 341 940 329 895 q 364 1033 354 986 q 380 1118 374 1080 l 501 1118 l 501 1103 q 475 1025 494 1072 q 432 929 456 978 q 385 842 408 880 l 316 842 z "},"ή":{"ha":852,"x_min":119,"x_max":739,"o":"m 471 757 q 671 692 603 757 q 739 484 739 627 l 739 -334 l 627 -334 l 627 477 q 455 662 627 662 q 282 592 332 662 q 231 389 231 522 l 231 0 l 119 0 l 119 743 l 210 743 l 227 636 l 233 636 q 332 726 269 695 q 471 757 395 757 m 397 842 l 397 860 q 423 940 410 895 q 446 1033 435 986 q 461 1118 456 1080 l 583 1118 l 583 1103 q 556 1025 575 1072 q 513 929 537 978 q 467 842 490 880 l 397 842 z "},"ί":{"ha":471,"x_min":114,"x_max":447,"o":"m 225 743 l 225 218 q 252 113 225 148 q 336 79 279 79 q 397 84 366 79 q 447 94 429 89 l 447 7 q 392 -8 428 -2 q 321 -14 356 -14 q 214 6 260 -14 q 140 76 167 26 q 114 215 114 126 l 114 743 l 225 743 m 124 842 l 124 860 q 150 940 137 895 q 172 1033 162 986 q 188 1118 182 1080 l 309 1118 l 309 1103 q 283 1025 302 1072 q 240 929 264 978 q 193 842 216 880 l 124 842 z "},"ΰ":{"ha":847,"x_min":111,"x_max":770,"o":"m 423 -14 q 235 32 303 -14 q 139 156 167 77 q 111 336 111 235 l 111 743 l 223 743 l 223 340 q 273 148 223 217 q 432 79 323 79 q 601 160 545 79 q 656 410 656 241 q 645 583 656 506 q 612 743 633 661 l 726 743 q 759 584 747 661 q 770 406 770 507 q 682 89 770 191 q 423 -14 595 -14 m 565 1164 l 565 1150 q 508 1048 544 1107 q 433 941 471 989 l 378 941 l 378 956 q 413 1057 395 998 q 441 1164 431 1116 l 565 1164 m 279 1010 q 322 995 305 1010 q 340 945 340 979 q 322 896 340 912 q 279 879 305 879 q 236 896 254 879 q 219 945 219 912 q 236 995 219 979 q 279 1010 254 1010 m 581 1010 q 624 995 606 1010 q 642 945 642 979 q 624 896 642 912 q 581 879 606 879 q 537 896 554 879 q 521 945 521 912 q 537 995 521 979 q 581 1010 554 1010 z "},"α":{"ha":848,"x_min":77,"x_max":829,"o":"m 382 -14 q 161 83 244 -14 q 77 369 77 179 q 161 657 77 557 q 394 757 244 757 q 532 727 477 757 q 623 639 587 697 l 631 639 q 647 693 636 665 q 673 743 658 722 l 762 743 q 744 664 752 712 q 732 562 736 616 q 728 456 728 507 l 728 164 q 745 98 728 117 q 787 79 762 79 q 810 81 798 79 q 829 86 823 83 l 829 3 q 797 -8 819 -3 q 754 -14 776 -14 q 670 12 703 -14 q 625 106 638 38 l 616 106 q 531 21 585 56 q 382 -14 477 -14 m 401 80 q 567 149 517 80 q 616 362 616 218 l 616 373 q 569 589 616 515 q 401 662 522 662 q 245 587 296 662 q 194 368 194 511 q 244 153 194 225 q 401 80 294 80 z "},"β":{"ha":871,"x_min":119,"x_max":807,"o":"m 449 1063 q 612 1033 541 1063 q 723 945 683 1004 q 764 799 764 886 q 710 640 764 699 q 555 564 656 581 l 555 558 q 743 476 679 544 q 807 283 807 408 q 718 64 807 141 q 469 -13 629 -13 q 334 1 390 -13 q 232 38 279 14 l 232 -334 l 119 -334 l 119 744 q 161 924 119 854 q 278 1029 203 995 q 449 1063 353 1063 m 446 968 q 338 947 387 968 q 261 876 290 926 q 232 738 232 825 l 232 140 q 335 96 281 113 q 460 80 389 80 q 638 135 581 80 q 694 290 694 190 q 628 453 694 400 q 448 505 562 505 l 374 505 l 374 601 l 435 601 q 596 653 545 601 q 648 793 648 705 q 593 924 648 880 q 446 968 539 968 z "},"γ":{"ha":710,"x_min":6,"x_max":702,"o":"m 702 743 l 428 22 q 391 -99 406 -35 q 368 -224 376 -163 q 359 -334 359 -286 l 237 -334 q 247 -234 237 -293 q 272 -110 256 -174 q 308 9 288 -46 l 6 743 l 123 743 l 288 337 q 317 260 302 302 q 343 180 332 218 q 360 117 355 142 l 366 117 q 381 179 370 140 q 406 260 393 218 q 431 332 420 302 l 585 743 l 702 743 z "},"δ":{"ha":833,"x_min":76,"x_max":758,"o":"m 441 1057 q 601 1034 534 1057 q 724 983 668 1011 l 675 895 q 564 944 622 924 q 437 964 507 964 q 339 934 371 964 q 308 862 308 904 q 350 771 308 809 q 495 677 393 734 q 688 529 619 609 q 758 326 758 449 q 664 74 758 162 q 414 -14 571 -14 q 239 23 315 -14 q 119 129 163 59 q 76 296 76 198 q 158 513 76 429 q 368 635 239 597 q 241 733 288 682 q 194 863 194 785 q 264 1007 194 958 q 441 1057 335 1057 m 458 585 q 336 538 397 570 q 234 448 275 506 q 193 296 193 389 q 252 140 193 199 q 414 80 311 80 q 582 143 524 80 q 641 324 641 207 q 592 481 641 420 q 458 585 544 541 z "},"ε":{"ha":663,"x_min":60,"x_max":616,"o":"m 487 434 l 487 342 l 388 342 q 173 208 173 342 q 230 109 173 138 q 374 79 287 79 q 508 96 450 79 q 613 136 567 114 l 613 36 q 511 0 571 14 q 368 -14 452 -14 q 136 48 211 -14 q 60 201 60 109 q 109 325 60 284 q 225 385 157 366 l 225 392 q 124 453 161 411 q 87 560 87 494 q 166 706 87 656 q 368 757 245 757 q 504 744 447 757 q 616 705 561 730 l 574 615 q 480 650 528 636 q 368 663 431 663 q 195 552 195 663 q 253 461 195 489 q 410 434 311 434 l 487 434 z "},"ζ":{"ha":668,"x_min":77,"x_max":631,"o":"m 629 -61 q 603 -174 629 -121 q 543 -271 577 -227 l 431 -271 q 491 -177 465 -227 q 517 -90 517 -127 q 505 -51 517 -68 q 456 -19 492 -33 q 347 8 420 -5 q 145 103 213 31 q 77 311 77 174 q 110 500 77 414 q 200 663 142 586 q 334 814 258 740 q 496 966 410 888 q 457 965 488 966 q 384 963 427 964 q 296 962 341 962 l 119 962 l 119 1055 l 631 1055 l 631 970 q 402 755 488 850 q 270 583 315 660 q 210 442 225 507 q 194 319 194 378 q 222 197 194 240 q 303 134 250 155 q 432 97 356 113 q 583 39 537 76 q 629 -61 629 1 z "},"η":{"ha":852,"x_min":119,"x_max":739,"o":"m 471 757 q 671 692 603 757 q 739 484 739 627 l 739 -334 l 627 -334 l 627 477 q 455 662 627 662 q 282 592 332 662 q 231 389 231 522 l 231 0 l 119 0 l 119 743 l 210 743 l 227 636 l 233 636 q 332 726 269 695 q 471 757 395 757 z "},"θ":{"ha":821,"x_min":77,"x_max":744,"o":"m 744 526 q 666 128 744 270 q 408 -14 588 -14 q 158 128 239 -14 q 77 526 77 270 q 154 923 77 782 q 408 1064 232 1064 q 661 924 578 1064 q 744 526 744 784 m 408 971 q 249 874 300 971 q 191 586 197 778 l 629 586 q 570 874 622 778 q 408 971 517 971 m 408 79 q 572 182 519 79 q 630 492 625 286 l 191 492 q 245 183 194 288 q 408 79 296 79 z "},"ι":{"ha":471,"x_min":114,"x_max":447,"o":"m 225 743 l 225 218 q 252 113 225 148 q 336 79 279 79 q 397 84 366 79 q 447 94 429 89 l 447 7 q 392 -8 428 -2 q 321 -14 356 -14 q 214 6 260 -14 q 140 76 167 26 q 114 215 114 126 l 114 743 l 225 743 z "},"κ":{"ha":730,"x_min":119,"x_max":719,"o":"m 696 743 l 414 415 l 719 0 l 585 0 l 335 342 l 238 258 l 238 0 l 119 0 l 119 743 l 238 743 l 238 549 q 236 440 238 494 q 230 354 233 386 l 233 354 q 261 391 246 372 q 290 427 277 410 l 559 743 l 696 743 z "},"λ":{"ha":743,"x_min":-8,"x_max":745,"o":"m -8 0 l 313 732 l 274 842 q 224 937 251 903 q 139 970 197 970 q 96 967 115 970 q 63 961 77 964 l 63 1053 q 104 1061 81 1057 q 152 1064 127 1064 q 262 1040 220 1064 q 333 967 304 1017 q 390 840 362 918 l 635 153 q 704 79 661 79 q 726 82 714 79 q 745 86 738 84 l 745 2 q 711 -9 730 -5 q 669 -14 692 -14 q 591 12 620 -14 q 541 96 562 37 l 431 406 q 406 477 420 439 q 381 552 393 515 q 365 614 370 589 l 360 614 q 329 517 348 569 q 288 413 309 465 l 109 0 l -8 0 z "},"μ":{"ha":859,"x_min":119,"x_max":740,"o":"m 740 743 l 740 0 l 648 0 l 631 103 l 625 103 q 535 17 590 47 q 398 -14 480 -14 q 299 5 340 -14 q 231 54 258 23 l 225 54 q 231 -106 231 5 l 231 -334 l 119 -334 l 119 743 l 231 743 l 231 263 q 406 80 231 80 q 579 151 531 80 q 627 352 627 221 l 627 743 l 740 743 z "},"ν":{"ha":751,"x_min":0,"x_max":695,"o":"m 0 743 l 117 743 l 275 315 q 301 244 287 286 q 329 162 316 202 q 349 96 342 122 l 354 96 q 534 382 484 226 q 584 743 584 538 l 695 743 q 668 470 695 596 q 577 228 642 343 q 398 0 512 113 l 277 0 l 0 743 z "},"ξ":{"ha":659,"x_min":76,"x_max":629,"o":"m 76 287 q 103 410 76 357 q 176 498 131 463 q 274 549 221 534 l 274 557 q 163 622 203 576 q 123 748 123 668 q 151 858 123 814 q 227 927 180 901 q 331 969 275 954 q 258 964 304 966 q 164 962 212 962 l 119 962 l 119 1055 l 595 1055 l 595 968 l 557 968 q 403 944 478 968 q 280 872 328 920 q 232 750 232 824 q 285 637 232 676 q 463 599 338 599 l 576 599 l 576 512 l 460 512 q 263 451 332 512 q 194 295 194 389 q 223 186 194 224 q 307 131 253 149 q 436 97 361 113 q 586 36 543 74 q 629 -61 629 -3 q 603 -173 629 -120 q 547 -271 577 -227 l 439 -271 q 497 -176 473 -225 q 521 -88 521 -126 q 509 -51 521 -67 q 460 -19 497 -34 q 349 9 423 -5 q 145 99 214 32 q 76 287 76 166 z "},"ο":{"ha":836,"x_min":77,"x_max":760,"o":"m 760 373 q 668 88 760 190 q 416 -14 576 -14 q 240 32 317 -14 q 120 164 163 78 q 77 373 77 251 q 169 656 77 556 q 420 757 261 757 q 598 711 522 757 q 717 580 675 666 q 760 373 760 494 m 194 373 q 248 159 194 238 q 418 80 302 80 q 589 159 534 80 q 643 373 643 239 q 589 584 643 507 q 418 662 535 662 q 248 585 302 662 q 194 373 194 509 z "},"π":{"ha":904,"x_min":17,"x_max":861,"o":"m 781 79 q 815 83 800 79 q 841 92 831 87 l 841 3 q 807 -8 830 -3 q 752 -14 784 -14 q 602 160 602 -14 l 602 649 l 279 649 l 279 0 l 168 0 l 168 649 l 17 649 l 17 700 l 119 743 l 861 743 l 861 649 l 713 649 l 713 169 q 732 99 713 119 q 781 79 750 79 z "},"ρ":{"ha":835,"x_min":111,"x_max":758,"o":"m 758 372 q 671 85 758 184 q 431 -14 583 -14 q 225 50 309 -14 l 219 50 q 224 -23 222 25 q 225 -131 225 -71 l 225 -334 l 111 -334 l 111 383 q 199 664 111 571 q 439 757 288 757 q 670 658 582 757 q 758 372 758 559 m 434 662 q 276 591 328 662 q 225 380 225 520 l 225 150 q 319 98 266 115 q 431 80 372 80 q 592 154 542 80 q 643 372 643 228 q 594 590 643 517 q 434 662 545 662 z "},"ς":{"ha":670,"x_min":77,"x_max":632,"o":"m 433 757 q 541 746 488 757 q 632 718 593 734 l 597 624 q 517 648 559 637 q 429 659 475 659 q 249 581 304 659 q 194 355 194 503 q 214 223 194 272 q 287 146 234 174 q 435 98 339 119 q 586 37 543 75 q 629 -61 629 -1 q 603 -175 629 -121 q 547 -271 576 -229 l 439 -271 q 497 -177 473 -227 q 522 -88 522 -127 q 510 -50 522 -66 q 461 -18 498 -33 q 351 10 425 -3 q 211 63 273 25 q 113 171 149 100 q 77 353 77 241 q 122 581 77 492 q 247 713 167 670 q 433 757 327 757 z "},"σ":{"ha":850,"x_min":77,"x_max":816,"o":"m 758 342 q 719 160 758 241 q 603 33 680 79 q 414 -14 527 -14 q 169 81 260 -14 q 77 354 77 176 q 185 652 77 561 q 480 743 292 743 l 816 743 l 816 649 l 637 649 q 724 519 691 595 q 758 342 758 444 m 194 354 q 247 157 194 234 q 418 80 299 80 q 589 153 535 80 q 642 340 642 226 q 612 510 642 432 q 526 649 582 587 l 480 649 q 264 581 335 649 q 194 354 194 513 z "},"τ":{"ha":657,"x_min":14,"x_max":618,"o":"m 618 743 l 618 648 l 328 648 l 328 227 q 365 111 328 144 q 463 77 401 77 q 526 81 494 77 q 580 92 558 85 l 580 7 q 524 -8 560 -1 q 447 -15 487 -15 q 330 5 382 -15 q 245 74 277 24 q 214 214 214 124 l 214 648 l 14 648 l 14 700 l 115 743 l 618 743 z "},"υ":{"ha":847,"x_min":111,"x_max":770,"o":"m 423 -14 q 235 32 303 -14 q 139 156 167 77 q 111 336 111 235 l 111 743 l 223 743 l 223 340 q 273 148 223 217 q 432 79 323 79 q 601 160 545 79 q 656 410 656 241 q 645 583 656 506 q 612 743 633 661 l 726 743 q 759 584 747 661 q 770 406 770 507 q 682 89 770 191 q 423 -14 595 -14 z "},"φ":{"ha":996,"x_min":77,"x_max":918,"o":"m 219 751 l 306 690 q 222 547 254 623 q 190 373 190 471 q 222 209 190 271 q 311 116 255 146 q 435 80 367 86 l 435 503 q 492 692 435 627 q 650 757 549 757 q 794 711 734 757 q 886 583 854 665 q 918 391 918 500 q 867 171 918 258 q 732 38 817 83 q 545 -13 647 -7 l 545 -334 l 435 -334 l 435 -13 q 250 34 330 -7 q 123 159 169 75 q 77 376 77 243 q 117 583 77 490 q 219 751 157 676 m 651 663 q 576 627 606 663 q 545 504 545 591 l 545 80 q 730 165 656 89 q 804 389 804 242 q 761 592 804 521 q 651 663 718 663 z "},"χ":{"ha":756,"x_min":-11,"x_max":747,"o":"m 119 749 q 217 707 184 749 q 279 588 249 666 l 380 331 l 597 743 l 717 743 l 429 222 l 561 -113 q 612 -209 587 -178 q 686 -240 637 -240 q 720 -238 704 -240 q 747 -235 735 -237 l 747 -322 q 713 -330 732 -326 q 665 -334 693 -334 q 568 -312 606 -334 q 505 -249 530 -290 q 458 -151 480 -208 l 354 122 l 110 -334 l -11 -334 l 302 235 l 182 543 q 140 627 163 597 q 83 656 117 656 q 37 648 56 656 l 37 737 q 71 745 51 742 q 119 749 92 749 z "},"ψ":{"ha":1048,"x_min":111,"x_max":962,"o":"m 581 1054 l 581 83 q 779 168 706 94 q 851 392 851 242 q 840 568 851 488 q 806 743 828 649 l 918 743 q 951 570 940 652 q 962 396 962 488 q 912 168 962 256 q 776 37 862 80 q 581 -12 690 -5 l 581 -334 l 471 -334 l 471 -12 q 283 32 364 -7 q 156 156 201 72 q 111 374 111 239 l 111 743 l 222 743 l 222 372 q 255 205 222 267 q 346 115 289 144 q 471 82 402 87 l 471 1054 l 581 1054 z "},"ω":{"ha":1075,"x_min":78,"x_max":996,"o":"m 913 743 q 976 557 956 647 q 996 359 996 468 q 967 166 996 250 q 880 34 938 81 q 735 -14 822 -14 q 610 19 658 -14 q 540 113 562 52 l 534 113 q 340 -14 490 -14 q 145 89 213 -14 q 78 359 78 191 q 98 558 78 469 q 161 743 119 647 l 276 743 q 212 557 233 646 q 191 358 191 469 q 233 150 191 220 q 347 80 275 80 q 450 132 417 80 q 484 264 484 184 l 484 477 l 591 477 l 591 264 q 626 128 591 176 q 726 80 661 80 q 842 151 800 80 q 884 358 884 222 q 863 557 884 469 q 798 743 842 646 l 913 743 z "},"ϊ":{"ha":471,"x_min":-16,"x_max":447,"o":"m 225 743 l 225 218 q 252 113 225 148 q 336 79 279 79 q 397 84 366 79 q 447 94 429 89 l 447 7 q 392 -8 428 -2 q 321 -14 356 -14 q 214 6 260 -14 q 140 76 167 26 q 114 215 114 126 l 114 743 l 225 743 m -16 945 q 2 995 -16 979 q 45 1010 20 1010 q 90 995 72 1010 q 108 945 108 979 q 90 896 108 912 q 45 879 72 879 q 2 896 20 879 q -16 945 -16 912 m 245 945 q 262 995 245 979 q 305 1010 280 1010 q 349 995 331 1010 q 368 945 368 979 q 349 896 368 912 q 305 879 331 879 q 262 896 280 879 q 245 945 245 912 z "},"ϋ":{"ha":847,"x_min":111,"x_max":770,"o":"m 423 -14 q 235 32 303 -14 q 139 156 167 77 q 111 336 111 235 l 111 743 l 223 743 l 223 340 q 273 148 223 217 q 432 79 323 79 q 601 160 545 79 q 656 410 656 241 q 645 583 656 506 q 612 743 633 661 l 726 743 q 759 584 747 661 q 770 406 770 507 q 682 89 770 191 q 423 -14 595 -14 m 233 945 q 250 995 233 979 q 294 1010 268 1010 q 338 995 320 1010 q 356 945 356 979 q 338 896 356 912 q 294 879 320 879 q 250 896 268 879 q 233 945 233 912 m 493 945 q 511 995 493 979 q 553 1010 528 1010 q 597 995 579 1010 q 616 945 616 979 q 597 896 616 912 q 553 879 579 879 q 511 896 528 879 q 493 945 493 912 z "},"ό":{"ha":836,"x_min":77,"x_max":760,"o":"m 760 373 q 668 88 760 190 q 416 -14 576 -14 q 240 32 317 -14 q 120 164 163 78 q 77 373 77 251 q 169 656 77 556 q 420 757 261 757 q 598 711 522 757 q 717 580 675 666 q 760 373 760 494 m 194 373 q 248 159 194 238 q 418 80 302 80 q 589 159 534 80 q 643 373 643 239 q 589 584 643 507 q 418 662 535 662 q 248 585 302 662 q 194 373 194 509 m 366 842 l 366 860 q 392 940 379 895 q 414 1033 404 986 q 430 1118 425 1080 l 551 1118 l 551 1103 q 525 1025 544 1072 q 482 929 506 978 q 435 842 458 880 l 366 842 z "},"ύ":{"ha":847,"x_min":111,"x_max":770,"o":"m 423 -14 q 235 32 303 -14 q 139 156 167 77 q 111 336 111 235 l 111 743 l 223 743 l 223 340 q 273 148 223 217 q 432 79 323 79 q 601 160 545 79 q 656 410 656 241 q 645 583 656 506 q 612 743 633 661 l 726 743 q 759 584 747 661 q 770 406 770 507 q 682 89 770 191 q 423 -14 595 -14 m 372 842 l 372 860 q 398 940 385 895 q 420 1033 410 986 q 436 1118 431 1080 l 557 1118 l 557 1103 q 531 1025 550 1072 q 488 929 512 978 q 441 842 465 880 l 372 842 z "},"ώ":{"ha":1075,"x_min":78,"x_max":996,"o":"m 913 743 q 976 557 956 647 q 996 359 996 468 q 967 166 996 250 q 880 34 938 81 q 735 -14 822 -14 q 610 19 658 -14 q 540 113 562 52 l 534 113 q 340 -14 490 -14 q 145 89 213 -14 q 78 359 78 191 q 98 558 78 469 q 161 743 119 647 l 276 743 q 212 557 233 646 q 191 358 191 469 q 233 150 191 220 q 347 80 275 80 q 450 132 417 80 q 484 264 484 184 l 484 477 l 591 477 l 591 264 q 626 128 591 176 q 726 80 661 80 q 842 151 800 80 q 884 358 884 222 q 863 557 884 469 q 798 743 842 646 l 913 743 m 483 842 l 483 860 q 508 940 496 895 q 531 1033 521 986 q 547 1118 541 1080 l 668 1118 l 668 1103 q 642 1025 661 1072 q 599 929 623 978 q 552 842 575 880 l 483 842 z "},"Ё":{"ha":772,"x_min":136,"x_max":688,"o":"m 688 0 l 136 0 l 136 991 l 688 991 l 688 890 l 251 890 l 251 569 l 663 569 l 663 469 l 251 469 l 251 102 l 688 102 l 688 0 m 233 1194 q 250 1244 233 1228 q 294 1259 268 1259 q 338 1244 320 1259 q 356 1194 356 1228 q 338 1144 356 1161 q 294 1128 320 1128 q 250 1144 268 1128 q 233 1194 233 1161 m 493 1194 q 511 1244 493 1228 q 553 1259 528 1259 q 597 1244 579 1259 q 616 1194 616 1228 q 597 1144 616 1161 q 553 1128 579 1128 q 511 1144 528 1128 q 493 1194 493 1161 z "},"Ђ":{"ha":1019,"x_min":12,"x_max":912,"o":"m 663 -14 q 559 2 595 -14 l 559 102 q 604 92 581 96 q 659 89 627 89 q 724 102 692 89 q 777 151 756 116 q 798 250 798 186 l 798 341 q 757 464 798 424 q 617 505 715 505 l 357 505 l 357 0 l 243 0 l 243 890 l 12 890 l 12 991 l 667 991 l 667 890 l 357 890 l 357 606 l 627 606 q 838 542 764 606 q 912 355 912 478 l 912 257 q 842 54 912 121 q 663 -14 772 -14 z "},"Ѓ":{"ha":722,"x_min":136,"x_max":692,"o":"m 692 991 l 692 888 l 251 888 l 251 0 l 136 0 l 136 991 l 692 991 m 618 1313 l 618 1299 q 565 1234 600 1274 q 491 1156 530 1195 q 418 1090 452 1116 l 343 1090 l 343 1107 q 391 1169 365 1133 q 441 1243 416 1205 q 481 1313 465 1282 l 618 1313 z "},"Є":{"ha":888,"x_min":85,"x_max":848,"o":"m 565 904 q 319 818 412 904 q 210 566 226 731 l 701 566 l 701 466 l 206 466 q 302 187 214 286 q 562 87 390 87 q 692 99 631 87 q 811 127 753 110 l 811 26 q 547 -14 704 -14 q 286 50 388 -14 q 134 229 183 114 q 85 497 85 344 q 140 764 85 650 q 304 943 196 879 q 568 1007 412 1007 q 723 991 654 1007 q 848 947 791 975 l 801 848 q 693 888 751 873 q 565 904 635 904 z "},"Ѕ":{"ha":762,"x_min":71,"x_max":695,"o":"m 695 264 q 599 59 695 131 q 344 -14 503 -14 q 189 -1 259 -14 q 71 33 119 11 l 71 143 q 195 104 122 122 q 349 86 269 86 q 520 131 460 86 q 580 254 580 175 q 557 339 580 305 q 483 402 535 374 q 342 462 431 430 q 150 572 216 507 q 84 753 84 637 q 124 889 84 832 q 236 976 165 945 q 401 1006 308 1006 q 548 991 480 1006 q 671 951 615 976 l 635 852 q 522 889 582 874 q 398 904 462 904 q 252 863 303 904 q 201 752 201 822 q 223 665 201 700 q 293 604 245 631 q 422 548 342 577 q 570 480 509 516 q 663 394 631 445 q 695 264 695 342 z "},"І":{"ha":388,"x_min":136,"x_max":251,"o":"m 136 0 l 136 991 l 251 991 l 251 0 l 136 0 z "},"Ї":{"ha":388,"x_min":4,"x_max":387,"o":"m 136 0 l 136 991 l 251 991 l 251 0 l 136 0 m 4 1194 q 22 1244 4 1228 q 65 1259 39 1259 q 110 1244 92 1259 q 127 1194 127 1228 q 110 1144 127 1161 q 65 1128 92 1128 q 22 1144 39 1128 q 4 1194 4 1161 m 264 1194 q 282 1244 264 1228 q 325 1259 300 1259 q 369 1244 351 1259 q 387 1194 387 1228 q 369 1144 387 1161 q 325 1128 351 1128 q 282 1144 300 1128 q 264 1194 264 1161 z "},"Ј":{"ha":373,"x_min":-111,"x_max":245,"o":"m -7 -261 q -67 -256 -41 -261 q -111 -243 -93 -252 l -111 -145 q -64 -156 -90 -152 q -10 -159 -39 -159 q 88 -124 47 -159 q 130 5 130 -89 l 130 991 l 245 991 l 245 14 q 177 -193 245 -125 q -7 -261 109 -261 z "},"Љ":{"ha":1299,"x_min":1,"x_max":1243,"o":"m 89 -16 q 42 -11 65 -16 q 1 1 19 -6 l 1 98 q 36 86 16 91 q 77 81 55 81 q 143 115 119 81 q 183 201 168 148 q 209 313 197 254 q 238 480 222 376 q 272 715 254 585 q 309 991 290 846 l 770 991 l 770 570 l 864 570 q 1088 534 1005 570 q 1207 435 1171 498 q 1243 290 1243 372 q 1156 78 1243 157 q 884 0 1069 0 l 655 0 l 655 890 l 406 890 q 378 676 393 789 q 347 460 362 564 q 315 281 331 357 q 271 120 297 186 q 202 19 245 54 q 89 -16 159 -16 m 770 99 l 869 99 q 1062 146 1000 99 q 1124 290 1124 193 q 1056 430 1124 390 q 850 469 988 469 l 770 469 l 770 99 z "},"Њ":{"ha":1331,"x_min":136,"x_max":1275,"o":"m 136 0 l 136 991 l 251 991 l 251 570 l 686 570 l 686 991 l 803 991 l 803 570 l 896 570 q 1120 534 1037 570 q 1239 435 1202 498 q 1275 290 1275 372 q 1188 78 1275 157 q 918 0 1101 0 l 686 0 l 686 468 l 251 468 l 251 0 l 136 0 m 803 99 l 903 99 q 1094 146 1032 99 q 1156 290 1156 193 q 1088 430 1156 390 q 882 469 1020 469 l 803 469 l 803 99 z "},"Ћ":{"ha":1019,"x_min":12,"x_max":912,"o":"m 702 991 l 702 888 l 357 888 l 357 605 l 633 605 q 840 542 768 605 q 912 355 912 479 l 912 0 l 798 0 l 798 341 q 758 464 798 425 q 624 503 719 503 l 357 503 l 357 0 l 241 0 l 241 888 l 12 888 l 12 991 l 702 991 z "},"Ќ":{"ha":847,"x_min":136,"x_max":846,"o":"m 846 0 l 707 0 l 251 503 l 251 0 l 136 0 l 136 991 l 251 991 l 251 511 l 695 991 l 827 991 l 389 510 l 846 0 m 656 1313 l 656 1299 q 603 1234 637 1274 q 529 1156 568 1195 q 456 1090 490 1116 l 381 1090 l 381 1107 q 429 1169 403 1133 q 479 1243 454 1205 q 519 1313 503 1282 l 656 1313 z "},"Ў":{"ha":858,"x_min":15,"x_max":858,"o":"m 858 991 l 535 273 q 450 114 493 178 q 347 18 406 50 q 195 -14 287 -14 q 122 -8 156 -14 q 62 7 89 -2 l 62 121 q 121 101 90 109 q 188 94 153 94 q 312 131 267 94 q 397 254 358 168 l 15 991 l 141 991 l 423 437 q 458 359 441 403 l 463 359 q 476 397 468 375 q 492 433 485 418 l 735 991 l 858 991 m 690 1298 q 622 1143 682 1196 q 435 1090 562 1090 q 248 1142 304 1090 q 185 1298 193 1193 l 291 1298 q 331 1196 298 1223 q 437 1169 363 1169 q 539 1198 502 1169 q 584 1298 576 1226 l 690 1298 z "},"Џ":{"ha":1011,"x_min":136,"x_max":874,"o":"m 874 0 l 561 0 l 561 -259 l 442 -259 l 442 0 l 136 0 l 136 991 l 251 991 l 251 103 l 760 103 l 760 991 l 874 991 l 874 0 z "},"А":{"ha":878,"x_min":0,"x_max":877,"o":"m 758 0 l 635 315 l 238 315 l 117 0 l 0 0 l 388 996 l 492 996 l 877 0 l 758 0 m 601 417 l 485 730 q 472 770 481 742 q 453 827 463 798 q 437 876 444 857 q 415 794 427 834 q 395 730 403 754 l 277 417 l 601 417 z "},"Б":{"ha":850,"x_min":136,"x_max":775,"o":"m 136 0 l 136 991 l 718 991 l 718 890 l 251 890 l 251 570 l 405 570 q 629 534 548 570 q 742 436 709 499 q 775 290 775 373 q 693 76 775 153 q 422 0 612 0 l 136 0 m 251 99 l 410 99 q 601 146 545 99 q 656 290 656 193 q 594 430 656 390 q 391 469 532 469 l 251 469 l 251 99 z "},"В":{"ha":897,"x_min":136,"x_max":822,"o":"m 136 991 l 416 991 q 696 936 602 991 q 789 747 789 880 q 741 602 789 660 q 600 526 692 543 l 600 519 q 759 450 696 504 q 822 282 822 395 q 728 73 822 145 q 477 0 635 0 l 136 0 l 136 991 m 251 566 l 441 566 q 620 609 570 566 q 670 734 670 652 q 611 856 670 819 q 422 893 551 893 l 251 893 l 251 566 m 251 469 l 251 98 l 457 98 q 644 150 589 98 q 699 290 699 202 q 642 422 699 374 q 447 469 585 469 l 251 469 z "},"Г":{"ha":722,"x_min":136,"x_max":692,"o":"m 692 991 l 692 888 l 251 888 l 251 0 l 136 0 l 136 991 l 692 991 z "},"Д":{"ha":950,"x_min":8,"x_max":918,"o":"m 796 991 l 796 103 l 918 103 l 918 -259 l 808 -259 l 808 0 l 119 0 l 119 -259 l 8 -259 l 8 103 l 84 103 q 179 298 135 190 q 259 525 224 406 q 316 762 294 643 q 344 991 338 882 l 796 991 m 682 888 l 446 888 q 418 700 439 804 q 365 488 397 597 q 291 280 332 380 q 206 103 251 180 l 682 103 l 682 888 z "},"Е":{"ha":772,"x_min":136,"x_max":688,"o":"m 688 0 l 136 0 l 136 991 l 688 991 l 688 890 l 251 890 l 251 569 l 663 569 l 663 469 l 251 469 l 251 102 l 688 102 l 688 0 z "},"Ж":{"ha":1168,"x_min":3,"x_max":1164,"o":"m 406 510 l 18 991 l 146 991 l 528 511 l 528 991 l 640 991 l 640 511 l 1022 991 l 1150 991 l 762 511 l 1164 0 l 1031 0 l 640 503 l 640 0 l 528 0 l 528 503 l 136 0 l 3 0 l 406 510 z "},"З":{"ha":810,"x_min":54,"x_max":734,"o":"m 714 759 q 652 599 714 658 q 485 523 589 541 l 485 518 q 671 439 607 500 q 734 279 734 378 q 636 67 734 149 q 342 -14 537 -14 q 188 -1 261 -14 q 54 41 115 12 l 54 147 q 194 99 117 116 q 340 81 271 81 q 544 133 475 81 q 614 279 614 185 q 533 421 614 376 q 308 465 453 465 l 165 465 l 165 562 l 303 562 q 522 612 449 562 q 594 748 594 662 q 537 868 594 826 q 390 910 481 910 q 234 886 296 910 q 114 824 172 862 l 58 903 q 201 976 117 945 q 391 1006 284 1006 q 631 937 548 1006 q 714 759 714 867 z "},"И":{"ha":1055,"x_min":137,"x_max":920,"o":"m 137 991 l 245 991 l 245 418 q 243 323 245 375 q 240 226 242 271 q 236 160 238 182 l 241 160 l 793 991 l 920 991 l 920 0 l 812 0 l 812 566 q 814 669 812 614 q 819 769 817 723 q 823 836 822 814 l 817 836 l 264 0 l 137 0 l 137 991 z "},"Й":{"ha":1055,"x_min":137,"x_max":920,"o":"m 137 991 l 245 991 l 245 418 q 243 323 245 375 q 240 226 242 271 q 236 160 238 182 l 241 160 l 793 991 l 920 991 l 920 0 l 812 0 l 812 566 q 814 669 812 614 q 819 769 817 723 q 823 836 822 814 l 817 836 l 264 0 l 137 0 l 137 991 m 798 1298 q 729 1143 789 1196 q 542 1090 669 1090 q 355 1142 411 1090 q 292 1298 300 1193 l 398 1298 q 438 1196 406 1223 q 544 1169 471 1169 q 646 1198 609 1169 q 691 1298 684 1226 l 798 1298 z "},"К":{"ha":847,"x_min":136,"x_max":846,"o":"m 846 0 l 707 0 l 251 503 l 251 0 l 136 0 l 136 991 l 251 991 l 251 511 l 695 991 l 827 991 l 389 510 l 846 0 z "},"Л":{"ha":977,"x_min":1,"x_max":841,"o":"m 841 0 l 726 0 l 726 890 l 404 890 q 376 676 391 789 q 346 460 361 564 q 315 281 331 357 q 272 120 298 186 q 202 19 245 54 q 89 -16 159 -16 q 42 -11 65 -16 q 1 1 18 -6 l 1 98 q 36 86 16 91 q 77 81 55 81 q 144 116 119 81 q 183 203 169 150 q 209 311 198 256 q 237 477 221 372 q 271 714 253 581 q 308 991 290 846 l 841 991 l 841 0 z "},"М":{"ha":1249,"x_min":136,"x_max":1114,"o":"m 572 0 l 239 878 l 233 878 q 240 768 237 836 q 243 627 243 700 l 243 0 l 136 0 l 136 991 l 307 991 l 621 167 l 625 167 l 944 991 l 1114 991 l 1114 0 l 1000 0 l 1000 635 q 1003 767 1000 701 q 1008 876 1006 833 l 1003 876 l 666 0 l 572 0 z "},"Н":{"ha":1024,"x_min":136,"x_max":887,"o":"m 887 0 l 772 0 l 772 467 l 251 467 l 251 0 l 136 0 l 136 991 l 251 991 l 251 569 l 772 569 l 772 991 l 887 991 l 887 0 z "},"О":{"ha":1080,"x_min":85,"x_max":996,"o":"m 996 497 q 944 229 996 344 q 791 51 892 115 q 541 -14 690 -14 q 286 51 387 -14 q 135 230 184 115 q 85 498 85 345 q 135 765 85 650 q 287 943 185 880 q 543 1007 389 1007 q 791 944 690 1007 q 944 767 892 881 q 996 497 996 652 m 206 497 q 288 197 206 308 q 541 86 370 86 q 794 197 713 86 q 874 497 874 307 q 794 797 874 689 q 543 905 713 905 q 288 796 370 905 q 206 497 206 687 z "},"П":{"ha":1011,"x_min":136,"x_max":874,"o":"m 136 0 l 136 991 l 874 991 l 874 0 l 760 0 l 760 890 l 251 890 l 251 0 l 136 0 z "},"Р":{"ha":836,"x_min":136,"x_max":764,"o":"m 395 991 q 675 917 587 991 q 764 702 764 842 q 726 547 764 618 q 602 433 688 475 q 372 390 516 390 l 251 390 l 251 0 l 136 0 l 136 991 l 395 991 m 384 893 l 251 893 l 251 489 l 359 489 q 573 536 501 489 q 644 697 644 583 q 581 845 644 796 q 384 893 518 893 z "},"С":{"ha":875,"x_min":85,"x_max":832,"o":"m 559 904 q 371 854 450 904 q 249 713 292 805 q 206 496 206 622 q 294 198 206 309 q 556 87 381 87 q 681 99 623 87 q 795 127 740 110 l 795 26 q 682 -4 741 6 q 540 -14 622 -14 q 287 49 389 -14 q 135 227 186 112 q 85 497 85 341 q 140 762 85 647 q 302 941 196 876 q 561 1006 408 1006 q 832 948 715 1006 l 786 850 q 682 888 739 872 q 559 904 625 904 z "},"Т":{"ha":765,"x_min":12,"x_max":751,"o":"m 440 0 l 324 0 l 324 890 l 12 890 l 12 991 l 751 991 l 751 890 l 440 890 l 440 0 z "},"У":{"ha":858,"x_min":15,"x_max":858,"o":"m 858 991 l 535 273 q 450 114 493 178 q 347 18 406 50 q 195 -14 287 -14 q 122 -8 156 -14 q 62 7 89 -2 l 62 121 q 121 101 90 109 q 188 94 153 94 q 312 131 267 94 q 397 254 358 168 l 15 991 l 141 991 l 423 437 q 458 359 441 403 l 463 359 q 476 397 468 375 q 492 433 485 418 l 735 991 l 858 991 z "},"Ф":{"ha":1107,"x_min":71,"x_max":1034,"o":"m 610 1006 l 610 884 q 860 832 767 881 q 994 701 953 783 q 1034 515 1034 619 q 1013 378 1034 445 q 942 259 991 312 q 811 173 893 205 q 610 139 730 141 l 610 -14 l 496 -14 l 496 139 q 291 174 373 141 q 161 261 209 208 q 92 380 113 315 q 71 514 71 446 q 112 698 71 615 q 246 831 153 781 q 496 884 339 881 l 496 1006 l 610 1006 m 496 786 q 258 709 327 782 q 189 515 189 637 q 263 313 189 387 q 496 234 338 239 l 496 786 m 610 786 l 610 234 q 845 315 772 239 q 918 517 918 390 q 848 711 918 640 q 610 786 779 782 z "},"Х":{"ha":802,"x_min":4,"x_max":798,"o":"m 798 0 l 667 0 l 399 437 l 127 0 l 4 0 l 334 517 l 27 991 l 155 991 l 403 596 l 652 991 l 774 991 l 467 519 l 798 0 z "},"Ц":{"ha":1024,"x_min":136,"x_max":993,"o":"m 993 102 l 993 -259 l 882 -259 l 882 0 l 136 0 l 136 991 l 251 991 l 251 103 l 760 103 l 760 991 l 874 991 l 874 102 l 993 102 z "},"Ч":{"ha":963,"x_min":113,"x_max":827,"o":"m 827 0 l 712 0 l 712 411 q 562 365 633 382 q 404 347 490 347 q 188 412 263 347 q 113 598 113 477 l 113 991 l 229 991 l 229 614 q 272 491 229 532 q 415 449 316 449 q 565 464 498 449 q 712 508 631 479 l 712 991 l 827 991 l 827 0 z "},"Ш":{"ha":1433,"x_min":136,"x_max":1296,"o":"m 1296 0 l 136 0 l 136 991 l 251 991 l 251 103 l 657 103 l 657 991 l 772 991 l 772 103 l 1179 103 l 1179 991 l 1296 991 l 1296 0 z "},"Щ":{"ha":1440,"x_min":136,"x_max":1397,"o":"m 1397 102 l 1397 -259 l 1286 -259 l 1286 0 l 136 0 l 136 991 l 251 991 l 251 103 l 648 103 l 648 991 l 765 991 l 765 103 l 1163 103 l 1163 991 l 1278 991 l 1278 102 l 1397 102 z "},"Ъ":{"ha":953,"x_min":10,"x_max":882,"o":"m 241 0 l 241 890 l 10 890 l 10 991 l 356 991 l 356 570 l 518 570 q 732 533 653 570 q 847 434 812 497 q 882 290 882 370 q 798 78 882 157 q 535 0 713 0 l 241 0 m 356 99 l 522 99 q 704 146 646 99 q 762 290 762 193 q 698 430 762 390 q 504 469 633 469 l 356 469 l 356 99 z "},"Ы":{"ha":1178,"x_min":136,"x_max":1038,"o":"m 136 0 l 136 991 l 251 991 l 251 570 l 410 570 q 623 533 544 570 q 737 434 703 497 q 772 290 772 370 q 688 78 772 157 q 425 0 604 0 l 136 0 m 922 0 l 922 991 l 1038 991 l 1038 0 l 922 0 m 251 98 l 414 98 q 594 146 536 98 q 652 290 652 193 q 589 429 652 390 q 397 468 526 468 l 251 468 l 251 98 z "},"Ь":{"ha":880,"x_min":136,"x_max":808,"o":"m 136 0 l 136 991 l 251 991 l 251 570 l 439 570 q 655 533 574 570 q 772 434 736 497 q 808 290 808 370 q 721 78 808 157 q 455 0 633 0 l 136 0 m 251 99 l 443 99 q 690 290 690 99 q 622 430 690 390 q 425 469 554 469 l 251 469 l 251 99 z "},"Э":{"ha":876,"x_min":43,"x_max":789,"o":"m 321 904 q 195 888 253 904 q 90 851 137 873 l 43 948 q 323 1006 163 1006 q 584 942 481 1006 q 739 767 688 879 q 789 512 789 656 q 736 233 789 351 q 577 51 684 115 q 312 -14 471 -14 q 166 -4 226 -14 q 49 26 106 6 l 49 127 q 166 99 106 111 q 294 87 227 87 q 570 186 476 87 q 668 467 663 286 l 178 467 l 178 569 l 667 569 q 563 815 654 727 q 321 904 472 904 z "},"Ю":{"ha":1455,"x_min":136,"x_max":1369,"o":"m 1369 497 q 1320 229 1369 344 q 1175 50 1272 114 q 933 -14 1078 -14 q 696 46 792 -14 q 550 213 600 105 q 494 467 499 321 l 251 467 l 251 0 l 136 0 l 136 991 l 251 991 l 251 568 l 496 568 q 556 800 505 701 q 701 953 608 899 q 931 1007 795 1007 q 1172 944 1074 1007 q 1319 766 1269 880 q 1369 497 1369 651 m 614 499 q 690 198 614 309 q 930 86 766 86 q 1173 197 1097 86 q 1249 497 1249 308 q 1174 796 1249 686 q 932 905 1099 905 q 691 797 768 905 q 614 499 614 688 z "},"Я":{"ha":878,"x_min":31,"x_max":743,"o":"m 424 414 l 166 0 l 31 0 l 309 435 q 207 484 254 452 q 131 571 160 515 q 102 713 102 627 q 195 920 102 849 q 471 991 288 991 l 743 991 l 743 0 l 627 0 l 627 414 l 424 414 m 627 893 l 475 893 q 286 850 351 893 q 221 708 221 807 q 283 563 221 614 q 474 513 346 513 l 627 513 l 627 893 z "},"а":{"ha":772,"x_min":64,"x_max":659,"o":"m 397 755 q 594 696 530 755 q 659 505 659 636 l 659 0 l 576 0 l 555 110 l 549 110 q 448 17 503 48 q 297 -14 393 -14 q 130 40 195 -14 q 64 204 64 94 q 152 375 64 315 q 420 440 240 435 l 549 446 l 549 491 q 507 626 549 587 q 391 665 466 665 q 279 648 332 665 q 179 608 227 631 l 144 693 q 260 737 195 719 q 397 755 325 755 m 547 366 l 434 361 q 238 316 295 356 q 181 203 181 276 q 220 109 181 139 q 322 78 258 78 q 484 133 421 78 q 547 298 547 188 l 547 366 z "},"б":{"ha":826,"x_min":80,"x_max":750,"o":"m 80 446 q 150 819 80 684 q 370 991 219 953 q 547 1032 457 1015 q 721 1062 636 1049 l 741 963 q 620 944 684 955 q 497 921 556 933 q 396 897 438 909 q 259 796 310 873 q 202 565 209 719 l 210 565 q 266 624 231 595 q 350 672 301 653 q 460 692 399 692 q 677 600 604 692 q 750 357 750 508 q 658 80 750 174 q 414 -14 566 -14 q 169 107 257 -14 q 80 446 80 227 m 423 80 q 575 142 519 80 q 631 346 631 205 q 586 531 631 464 q 442 597 541 597 q 330 571 380 597 q 245 509 280 545 q 195 445 211 473 q 205 311 195 376 q 241 193 216 245 q 310 111 266 141 q 423 80 355 80 z "},"в":{"ha":798,"x_min":119,"x_max":734,"o":"m 709 557 q 669 448 709 487 q 564 395 628 409 l 564 390 q 684 340 633 380 q 734 217 734 300 q 665 61 734 121 q 439 0 595 0 l 119 0 l 119 743 l 436 743 q 577 725 516 743 q 674 667 639 707 q 709 557 709 626 m 595 544 q 556 623 595 597 q 429 649 517 649 l 232 649 l 232 435 l 410 435 q 595 544 595 435 m 617 217 q 567 312 617 283 q 422 341 517 341 l 232 341 l 232 92 l 425 92 q 568 120 519 92 q 617 217 617 149 z "},"г":{"ha":599,"x_min":119,"x_max":570,"o":"m 570 743 l 570 648 l 232 648 l 232 0 l 119 0 l 119 743 l 570 743 z "},"д":{"ha":798,"x_min":26,"x_max":770,"o":"m 663 743 l 663 96 l 770 96 l 770 -257 l 661 -257 l 661 0 l 134 0 l 134 -257 l 26 -257 l 26 96 l 85 96 q 228 397 180 227 q 277 743 275 566 l 663 743 m 554 654 l 378 654 q 349 452 372 555 q 289 257 326 350 q 202 96 252 165 l 554 96 l 554 654 z "},"е":{"ha":780,"x_min":77,"x_max":707,"o":"m 405 757 q 568 715 500 757 q 671 597 635 673 q 707 420 707 522 l 707 351 l 194 351 q 259 151 196 220 q 437 83 322 83 q 562 96 507 83 q 674 134 616 109 l 674 35 q 563 -2 618 9 q 432 -14 507 -14 q 174 84 271 -14 q 77 366 77 182 q 118 574 77 486 q 232 709 158 662 q 405 757 305 757 m 404 665 q 260 606 313 665 q 196 441 206 547 l 589 441 q 544 603 589 541 q 404 665 498 665 z "},"ж":{"ha":1021,"x_min":3,"x_max":1016,"o":"m 989 743 l 680 382 l 1016 0 l 887 0 l 562 377 l 562 0 l 456 0 l 456 377 l 132 0 l 3 0 l 338 382 l 28 743 l 153 743 l 456 382 l 456 743 l 562 743 l 562 382 l 867 743 l 989 743 z "},"з":{"ha":671,"x_min":45,"x_max":608,"o":"m 310 757 q 509 706 435 757 q 582 562 582 656 q 545 455 582 495 q 444 397 509 415 l 444 392 q 560 331 513 374 q 608 205 608 288 q 531 49 608 111 q 296 -14 454 -14 q 152 -1 217 -14 q 45 35 87 12 l 45 137 q 157 96 93 114 q 294 79 220 79 q 437 110 379 79 q 496 212 496 140 q 282 342 496 342 l 182 342 l 182 434 l 264 434 q 417 461 360 434 q 474 553 474 488 q 430 636 474 608 q 304 663 386 663 q 196 651 243 663 q 95 615 149 638 l 55 705 q 310 757 170 757 z "},"и":{"ha":883,"x_min":119,"x_max":762,"o":"m 226 743 l 226 276 q 224 227 226 258 q 221 164 223 195 q 218 113 220 132 l 624 743 l 762 743 l 762 0 l 657 0 l 657 456 q 658 511 657 477 q 660 578 659 545 q 662 629 661 611 l 258 0 l 119 0 l 119 743 l 226 743 z "},"й":{"ha":883,"x_min":119,"x_max":762,"o":"m 226 743 l 226 276 q 224 227 226 258 q 221 164 223 195 q 218 113 220 132 l 624 743 l 762 743 l 762 0 l 657 0 l 657 456 q 658 511 657 477 q 660 578 659 545 q 662 629 661 611 l 258 0 l 119 0 l 119 743 l 226 743 m 707 1049 q 638 894 698 947 q 451 842 578 842 q 264 893 320 842 q 201 1049 209 944 l 307 1049 q 347 947 315 975 q 453 920 380 920 q 555 949 518 920 q 600 1049 593 977 l 707 1049 z "},"к":{"ha":718,"x_min":119,"x_max":702,"o":"m 552 743 l 676 743 l 355 385 l 702 0 l 570 0 l 232 377 l 232 0 l 119 0 l 119 743 l 232 743 l 232 382 l 552 743 z "},"л":{"ha":795,"x_min":9,"x_max":676,"o":"m 676 0 l 562 0 l 562 649 l 336 649 q 287 270 318 415 q 203 58 255 125 q 71 -9 151 -9 q 9 0 31 -9 l 9 85 q 48 80 24 80 q 170 241 125 80 q 238 743 214 402 l 676 743 l 676 0 z "},"м":{"ha":1019,"x_min":118,"x_max":903,"o":"m 903 743 l 903 0 l 802 0 l 802 484 q 803 545 802 514 q 808 607 805 576 l 804 607 l 557 0 l 461 0 l 220 607 l 216 607 q 220 480 220 544 l 220 0 l 118 0 l 118 743 l 269 743 l 509 136 l 753 743 l 903 743 z "},"н":{"ha":879,"x_min":119,"x_max":759,"o":"m 232 743 l 232 431 l 646 431 l 646 743 l 759 743 l 759 0 l 646 0 l 646 336 l 232 336 l 232 0 l 119 0 l 119 743 l 232 743 z "},"о":{"ha":836,"x_min":77,"x_max":760,"o":"m 760 373 q 668 88 760 190 q 416 -14 576 -14 q 240 32 317 -14 q 120 164 163 78 q 77 373 77 251 q 169 656 77 556 q 420 757 261 757 q 598 711 522 757 q 717 580 675 666 q 760 373 760 494 m 194 373 q 248 159 194 238 q 418 80 302 80 q 589 159 534 80 q 643 373 643 239 q 589 584 643 507 q 418 662 535 662 q 248 585 302 662 q 194 373 194 509 z "},"п":{"ha":861,"x_min":119,"x_max":741,"o":"m 741 743 l 741 0 l 628 0 l 628 646 l 232 646 l 232 0 l 119 0 l 119 743 l 741 743 z "},"р":{"ha":850,"x_min":119,"x_max":772,"o":"m 468 757 q 690 661 607 757 q 772 374 772 566 q 689 85 772 184 q 465 -14 605 -14 q 320 20 376 -14 q 232 102 263 54 l 224 102 q 229 38 226 75 q 232 -27 232 1 l 232 -332 l 119 -332 l 119 743 l 212 743 l 227 633 l 232 633 q 319 721 264 684 q 468 757 375 757 m 448 662 q 283 595 332 662 q 232 394 233 528 l 232 372 q 280 156 232 231 q 450 80 328 80 q 605 162 553 80 q 656 375 656 244 q 605 584 656 507 q 448 662 554 662 z "},"с":{"ha":665,"x_min":77,"x_max":620,"o":"m 416 -14 q 239 28 316 -14 q 120 154 163 69 q 77 368 77 239 q 122 588 77 503 q 247 715 168 674 q 427 757 326 757 q 535 746 483 757 q 620 718 587 734 l 586 623 q 508 648 552 637 q 425 659 463 659 q 251 584 309 659 q 194 369 194 510 q 250 159 194 234 q 416 84 305 84 q 522 97 475 84 q 608 126 570 109 l 608 26 q 525 -3 571 7 q 416 -14 479 -14 z "},"т":{"ha":654,"x_min":28,"x_max":625,"o":"m 625 648 l 380 648 l 380 0 l 269 0 l 269 648 l 28 648 l 28 743 l 625 743 l 625 648 z "},"у":{"ha":696,"x_min":1,"x_max":696,"o":"m 1 743 l 122 743 l 286 312 q 324 204 307 254 q 349 111 340 155 l 354 111 q 381 200 363 144 q 419 313 399 255 l 574 743 l 696 743 l 372 -109 q 274 -273 334 -212 q 111 -334 215 -334 q 55 -331 79 -334 q 13 -322 31 -327 l 13 -232 q 49 -238 28 -235 q 94 -241 71 -241 q 195 -205 156 -241 q 258 -106 234 -170 l 299 -1 l 1 743 z "},"ф":{"ha":994,"x_min":76,"x_max":916,"o":"m 551 1055 l 551 754 q 817 640 717 739 q 916 372 916 541 q 819 103 916 204 q 551 -11 722 3 l 551 -334 l 441 -334 l 441 -11 q 249 45 330 -3 q 121 176 167 93 q 76 372 76 258 q 173 642 76 542 q 444 754 270 741 l 444 1055 l 551 1055 m 444 661 q 254 575 315 649 q 193 372 193 501 q 254 168 193 242 q 444 81 315 94 l 444 661 m 551 659 l 551 81 q 739 170 678 95 q 800 372 800 245 q 739 573 800 500 q 551 659 677 646 z "},"х":{"ha":727,"x_min":26,"x_max":701,"o":"m 296 380 l 39 743 l 168 743 l 363 457 l 559 743 l 686 743 l 429 380 l 701 0 l 572 0 l 363 303 l 154 0 l 26 0 l 296 380 z "},"ц":{"ha":869,"x_min":119,"x_max":842,"o":"m 842 -257 l 732 -257 l 732 0 l 119 0 l 119 743 l 232 743 l 232 96 l 626 96 l 626 743 l 739 743 l 739 94 l 842 94 l 842 -257 z "},"ч":{"ha":843,"x_min":104,"x_max":724,"o":"m 217 743 l 217 476 q 367 340 217 340 q 495 361 437 340 q 612 420 553 383 l 612 743 l 724 743 l 724 0 l 612 0 l 612 333 q 489 270 549 293 q 345 247 429 247 q 167 307 230 247 q 104 468 104 366 l 104 743 l 217 743 z "},"ш":{"ha":1236,"x_min":119,"x_max":1116,"o":"m 1116 743 l 1116 0 l 119 0 l 119 743 l 231 743 l 231 96 l 560 96 l 560 743 l 673 743 l 673 96 l 1003 96 l 1003 743 l 1116 743 z "},"щ":{"ha":1246,"x_min":119,"x_max":1221,"o":"m 1115 743 l 1115 94 l 1221 94 l 1221 -256 l 1108 -256 l 1108 0 l 119 0 l 119 743 l 231 743 l 231 96 l 560 96 l 560 743 l 673 743 l 673 96 l 1003 96 l 1003 743 l 1115 743 z "},"ъ":{"ha":954,"x_min":26,"x_max":882,"o":"m 373 743 l 373 437 l 588 437 q 810 383 738 437 q 882 227 882 330 q 812 61 882 122 q 585 0 743 0 l 260 0 l 260 648 l 26 648 l 26 743 l 373 743 m 583 342 l 373 342 l 373 92 l 585 92 q 721 122 671 92 q 770 221 770 152 q 724 315 770 289 q 583 342 677 342 z "},"ы":{"ha":1067,"x_min":119,"x_max":948,"o":"m 119 0 l 119 743 l 232 743 l 232 437 l 435 437 q 645 384 577 437 q 713 227 713 330 q 646 61 713 122 q 428 0 578 0 l 119 0 m 836 0 l 836 743 l 948 743 l 948 0 l 836 0 m 232 92 l 417 92 q 551 121 501 92 q 602 221 602 151 q 555 316 602 290 q 420 343 508 343 l 232 343 l 232 92 z "},"ь":{"ha":819,"x_min":119,"x_max":744,"o":"m 232 437 l 460 437 q 744 227 744 437 q 674 61 744 122 q 453 0 604 0 l 119 0 l 119 743 l 232 743 l 232 437 m 631 221 q 582 316 631 290 q 447 343 534 343 l 232 343 l 232 92 l 448 92 q 580 122 529 92 q 631 221 631 152 z "}}}
